<svg width="45" height="46" viewBox="0 0 45 46" fill="none" xmlns="http://www.w3.org/2000/svg">
<path d="M43.0774 14.4932C40.9196 9.35956 36.9356 5.21265 31.8988 2.85746C26.8619 0.502256 21.1316 0.106793 15.8202 1.74784C10.5089 3.38888 5.99533 6.94935 3.15584 11.7381C0.31636 16.5268 -0.646494 22.2021 0.454193 27.6623C1.55488 33.1225 4.64058 37.9781 9.11229 41.2863C13.584 44.5946 19.1227 46.1196 24.6531 45.5653C30.1836 45.0109 35.3112 42.4168 39.0407 38.2866C42.7702 34.1563 44.8354 28.7845 44.8354 23.2139C44.8393 20.2182 44.2414 17.2524 43.0774 14.4932ZM22.4832 42.5889C11.8106 42.5889 3.15169 33.9105 3.15169 23.2139C3.15169 12.5173 11.8106 3.83893 22.4832 3.83893C33.1559 3.83893 41.8148 12.5173 41.8148 23.2139C41.8148 33.9105 33.1559 42.5889 22.4832 42.5889ZM25.3085 11.5758L36.9205 23.2139L25.3085 34.852L23.1729 32.7117L31.1422 24.7276H10.1815V21.7003H31.1422L23.176 13.7161L25.3085 11.5758Z" fill="#078FFF"/>
</svg>
