<svg width="285" height="240" viewBox="0 0 285 240" fill="none" xmlns="http://www.w3.org/2000/svg">
<path d="M184.077 13.3642C182.367 12.3522 180.418 11.783 178.739 10.7551C178.307 10.4372 177.928 10.0474 177.614 9.60083C175.693 7.20698 173.515 5.05775 171.122 3.19678C171.715 4.3133 172.404 5.37162 173.176 6.35927C173.641 6.97596 172.606 8.87346 171.916 8.30421C171.226 7.73496 170.687 7.33964 170.042 6.88108C169.318 6.26107 168.494 5.77943 167.613 5.45796C168.417 6.97011 169.366 8.39023 170.447 9.69571C170.927 10.2966 169.877 12.1625 169.172 11.6248C167.85 10.6108 166.467 9.68654 165.034 8.85765C166.488 10.9194 168.136 12.8212 169.952 14.5343C170.462 15.0403 169.622 16.4476 169.052 16.5109C167.673 16.6532 166.263 16.8113 164.884 17.0801C169.892 19.705 174.96 18.0763 177.044 19.0251C182.627 21.7083 187.568 25.6802 191.499 30.6472C196.387 36.8615 197.917 44.8784 193.718 51.915C192.609 53.7665 191.318 55.4891 189.865 57.054C191.09 60.1599 191.936 63.4168 192.384 66.7471C197.361 62.6561 200.857 56.8916 202.295 50.4128C204.799 37.7786 198.921 22.0927 184.077 13.3642Z" fill="#FF3E74"/>
<path d="M190.944 69.0082C190.12 61.2135 187.02 53.8816 182.072 48.0262C177.124 42.1707 170.573 38.0814 163.324 36.3239C156.257 34.5889 148.853 35.2298 142.148 38.1569C135.444 41.0839 129.776 46.1501 125.941 52.6452C122.104 59.1403 120.292 66.7387 120.758 74.3748C121.223 82.0108 123.943 89.302 128.537 95.2253C133.083 101.15 139.221 105.49 146.144 107.677C153.068 109.863 160.456 109.795 167.343 107.48C174.843 104.859 181.27 99.618 185.561 92.6226C189.853 85.6271 191.751 77.2963 190.944 69.0082ZM150.549 60.9913C149.304 74.5584 135.045 75.855 131.206 66.1304C130.966 65.5295 131.536 64.7389 131.971 64.4384C137.869 60.2764 144.329 57.0779 151.134 54.951C157.418 52.9265 163.926 51.7782 170.492 51.5355C170.822 51.5355 170.927 51.7885 170.912 52.1205C170.897 52.4526 170.912 52.8637 171.002 53.1167H180.298C181.273 53.1167 180.403 55.3146 179.518 55.3146H171.031C170.027 65.8457 160.235 71.475 150.549 60.9913Z" fill="#FF3E74"/>
<path d="M163.534 110.642C172.324 108.471 180.088 103.062 185.431 95.3873C190.772 87.7136 193.339 78.2802 192.669 68.7868C197.836 64.4569 201.623 58.5642 203.525 51.8991C207.063 38.2846 201.305 20.9541 185.531 11.4983C183.732 10.423 180.298 9.30034 179.338 8.14603C178.578 7.23949 177.798 6.35399 176.999 5.48953C175.5 3.90828 173.595 1.48897 171.466 0.745789C169.832 0.208165 168.782 1.74197 169.067 3.32322C168.656 3.02753 168.17 2.86924 167.673 2.86924C167.175 2.86924 166.689 3.02753 166.278 3.32322C165.899 3.73403 165.65 4.26042 165.569 4.82793C165.488 5.39544 165.579 5.97544 165.828 6.48571C164.419 5.86903 163.144 5.82159 162.619 7.30796C162.005 9.09478 163.864 11.0555 164.854 12.2573C165.543 13.0953 166.353 13.8385 167.028 14.724C166.488 14.724 165.933 14.8821 165.393 14.9928C164.224 15.1984 162.604 15.4039 162.2 16.8113C161.795 18.2186 163.699 19.1673 164.809 19.6259C166.978 20.4858 169.283 20.9042 171.601 20.8592C173.297 20.6211 175.023 20.8275 176.624 21.4601C178.97 22.7514 181.22 24.226 183.357 25.8718C194.633 34.5528 199.221 45.3211 189.355 55.7415C187.311 51.0293 184.384 46.8015 180.751 43.3125C177.118 39.8235 172.852 37.145 168.212 35.4383C161.002 32.9099 153.231 32.7667 145.941 35.0277C138.651 37.2887 132.192 41.8459 127.427 48.0883C122.699 54.3382 119.871 61.9475 119.311 69.9206C118.753 77.8937 120.488 85.8588 124.293 92.7743C128.259 99.6868 134.17 105.123 141.204 108.326C148.238 111.529 156.043 112.338 163.534 110.642ZM125.853 52.8162C129.251 47.1459 134.038 42.5492 139.709 39.5119C145.38 36.4748 151.724 35.1101 158.07 35.562C164.416 36.0141 170.529 38.2659 175.761 42.0797C180.994 45.8935 185.152 51.1273 187.795 57.2279C189.893 61.9022 191.024 66.9935 191.114 72.1639C191.202 77.3341 190.248 82.4654 188.314 87.2178C186.38 91.9695 183.51 96.2333 179.895 99.7271C176.28 103.22 172 105.863 167.343 107.48C160.462 109.801 153.077 109.88 146.154 107.705C139.231 105.529 133.091 101.202 128.537 95.2885C124.023 89.3486 121.346 82.0922 120.866 74.4972C120.386 66.9025 122.127 59.3352 125.853 52.8162ZM193.763 51.9149C197.962 44.8626 196.432 36.8615 191.544 30.6472C187.594 25.6726 182.634 21.7002 177.029 19.025C175.005 18.1079 169.802 19.6575 164.869 17.0801C166.248 16.8113 167.658 16.6531 169.037 16.5108C169.607 16.5108 170.447 15.0403 169.937 14.5343C168.13 12.8162 166.488 10.9149 165.034 8.85759C166.449 9.69265 167.817 10.6167 169.127 11.6248C169.832 12.1624 170.881 10.2965 170.402 9.69565C169.316 8.39428 168.365 6.97353 167.568 5.4579C168.448 5.78364 169.27 6.26497 169.997 6.88102C170.642 7.33958 171.256 7.79815 171.871 8.30415C172.486 8.81015 173.595 6.9759 173.131 6.35921C172.358 5.37157 171.67 4.31324 171.076 3.19672C173.473 5.05358 175.653 7.20328 177.569 9.60077C177.882 10.0473 178.262 10.4371 178.694 10.7551C180.373 11.7671 182.322 12.3363 184.032 13.3641C198.801 22.0452 204.754 37.7311 202.295 50.4127C200.857 56.8916 197.36 62.656 192.384 66.747C191.935 63.4168 191.09 60.1599 189.865 57.054C191.333 55.4914 192.64 53.7686 193.763 51.9149Z" fill="#0D128A"/>
<path d="M144.656 71.2852C146.366 70.2133 147.798 68.7129 148.826 66.9172C149.855 65.1215 150.446 63.086 150.549 60.9913C157.551 68.5813 164.569 67.7907 168.348 62.5726C169.868 60.4592 170.798 57.9398 171.032 55.2988H179.594C180.478 55.2988 181.348 53.1009 180.373 53.1009H171.032C171.032 52.7847 171.032 52.4526 170.942 52.1363C170.852 51.8201 170.942 51.5197 170.522 51.5197C160.402 51.9281 150.456 54.4318 141.252 58.8883C138.05 60.4807 134.972 62.3365 132.046 64.4384C131.611 64.7389 131.041 65.5295 131.281 66.1304C131.784 67.4423 132.543 68.6283 133.508 69.6118C134.473 70.5953 135.623 71.3545 136.883 71.8402C138.143 72.326 139.487 72.5276 140.826 72.4321C142.165 72.3364 143.469 71.9457 144.656 71.2852ZM169.052 57.6707C168.935 58.2096 168.781 58.7382 168.587 59.2519L160.805 54.698L163.279 54.2868L169.052 57.6707ZM167.553 61.3234C166.985 62.1404 166.272 62.8332 165.454 63.3632L153.458 56.3583C154.762 56.0104 156.067 55.6783 157.387 55.3937L167.553 61.3234ZM148.69 63.3158C148.571 63.8521 148.421 64.3802 148.24 64.897L141.342 60.8964L143.112 60.0742L148.69 63.3158ZM147.19 66.9842C146.632 67.8093 145.923 68.5082 145.106 69.0399L136.109 63.7743C137.039 63.2051 137.984 62.678 138.943 62.1931L147.19 66.9842Z" fill="#0D128A"/>
<path d="M131.596 57.5442C132.106 57.6549 132.555 56.8959 132.705 56.5164C133.455 54.6031 134.94 52.421 137.084 52.168C137.923 52.0731 138.583 49.891 137.459 50.0333C134.46 50.3653 132.315 53.7334 131.266 56.3583C131.116 56.7852 131.101 57.4177 131.596 57.5442Z" fill="#0D128A"/>
<path d="M164.449 44.3566C162.29 42.7754 159.246 41.5578 156.682 42.8544C155.902 43.2497 155.512 45.4477 156.682 44.831C158.616 43.8506 161.495 45.1314 163.264 46.4122C164.059 46.9815 165.214 44.9417 164.449 44.3566Z" fill="#0D128A"/>
<path d="M160.82 68.9767C158.046 71.9652 153.203 75.3016 149.154 72.74C148.36 72.2498 147.22 74.3213 148.03 74.8114C152.528 77.6103 158.121 74.0208 161.27 70.637C161.93 69.9254 161.855 67.854 160.82 68.9767Z" fill="#0D128A"/>
<path d="M137.009 85.4691C135.673 85.749 134.471 86.5119 133.612 87.6259C132.752 88.7407 132.289 90.1361 132.301 91.5727C132.284 92.2763 132.408 92.9752 132.663 93.6251C132.918 94.2758 133.299 94.8625 133.782 95.3479C134.265 95.8333 134.839 96.2065 135.467 96.4445C136.095 96.6817 136.763 96.7781 137.429 96.7275C138.753 96.4761 139.953 95.7503 140.827 94.6727C141.702 93.5951 142.196 92.2321 142.227 90.8137C142.269 90.0871 142.161 89.3589 141.911 88.6798C141.662 88.0006 141.276 87.3863 140.781 86.8788C140.285 86.372 139.691 85.983 139.041 85.7395C138.39 85.4967 137.696 85.4042 137.009 85.4691ZM134.01 90.6081C134.031 90.1511 134.146 89.7044 134.347 89.2981C134.547 88.8925 134.829 88.5375 135.173 88.2584C135.517 87.9785 135.913 87.7809 136.337 87.6789C136.76 87.5769 137.199 87.5729 137.624 87.667C138.468 87.8662 139.223 88.3612 139.767 89.0696C140.311 89.7788 140.613 90.6603 140.623 91.5727C140.383 96.2848 133.845 94.8301 133.935 90.6081H134.01Z" fill="#0D128A"/>
<path d="M129.467 78.5748C128.553 78.7857 127.737 79.3227 127.155 80.0944C126.573 80.8668 126.261 81.8266 126.273 82.8125C126.255 83.2608 126.327 83.7075 126.485 84.1242C126.642 84.54 126.882 84.9164 127.189 85.2271C127.495 85.5386 127.861 85.7774 128.261 85.9276C128.661 86.0786 129.088 86.1379 129.512 86.1015C130.41 85.9197 131.225 85.4224 131.821 84.6902C132.418 83.9581 132.761 83.0339 132.795 82.0693C132.846 81.5957 132.795 81.1166 132.645 80.6676C132.495 80.2185 132.251 79.8105 131.931 79.4745C131.611 79.1385 131.223 78.8833 130.797 78.7274C130.37 78.5716 129.915 78.5194 129.467 78.5748ZM127.967 81.8638C127.967 80.1402 131.116 80.2825 131.236 82.8125C131.071 84.963 127.847 83.7613 127.907 81.8638H127.967Z" fill="#0D128A"/>
<path d="M209.852 85.1527C197.485 84.5233 185.243 87.9989 174.848 95.09C164.45 102.181 156.425 112.531 151.898 124.684C153.816 123.64 155.875 122.914 158.001 122.533C163.185 112.666 170.697 104.375 179.809 98.4668C188.923 92.5576 199.328 89.2299 210.017 88.8053L210.257 85.0736C210.13 85.1329 209.992 85.1606 209.852 85.1527Z" fill="#FF3E74"/>
<path d="M166.668 124.684C168.328 125.99 169.754 127.596 170.881 129.428C180.28 116.646 193.82 107.97 208.908 105.061L209.313 98.7356H209.193C200.77 99.6567 192.628 102.444 185.3 106.917C177.972 111.389 171.622 117.443 166.668 124.684Z" fill="white"/>
<path d="M209.807 90.8768C209.706 90.9369 209.593 90.9749 209.478 90.9875C199.325 91.2824 189.416 94.3279 180.703 99.8306C171.99 105.333 164.765 113.108 159.726 122.407C161.727 122.34 163.71 122.854 165.454 123.893C170.528 116.306 177.076 109.944 184.66 105.231C192.246 100.517 200.695 97.5592 209.448 96.5535L209.807 90.8768Z" fill="#6CECC4"/>
<path d="M234.549 171.457L230.05 173.813V213.819C230.043 214.116 229.965 214.407 229.824 214.663C229.683 214.921 229.482 215.136 229.24 215.289C224.628 217.938 220.248 221.013 216.15 224.476C215.565 225.03 214.066 226.058 214.921 226.722C215.783 227.1 216.727 227.22 217.65 227.07C221.886 226.562 226.054 225.56 230.08 224.081C232.059 223.417 236.543 222.674 236.678 220.065C236.783 219.891 236.888 222.595 234.549 171.457Z" fill="white"/>
<path d="M259.799 219.527C253.097 214.973 252.962 215.558 252.962 214.783C252.962 214.783 252.962 185.783 252.962 174.493L248.283 174.983C246.319 217.977 246.304 213.771 246.274 218.847C246.274 220.903 247.399 221.867 249.123 222.515C253.277 224.097 262.948 227.496 267.357 227.038L268.241 226.832V226.722C265.817 223.856 262.965 221.426 259.799 219.527Z" fill="white"/>
<path d="M272.995 113.489C266.601 112.699 260.12 113.523 254.086 115.892C253.817 115.987 253.652 115.892 253.577 115.718C253.097 115.165 254.386 112.904 254.131 104.033C253.967 98.5616 253.157 92.458 249.858 88.0147C248.357 86.1109 246.387 84.6806 244.165 83.8829C241.942 83.0844 239.554 82.95 237.263 83.4923C236.005 83.8758 234.833 84.5257 233.821 85.4009C232.808 86.2761 231.974 87.3585 231.37 88.5839C227.381 95.7944 227.981 105.408 228.806 113.346C228.806 113.868 228.251 115.086 227.606 114.928C224.259 114.054 220.839 113.525 217.395 113.346C212.806 113.093 207.048 113.22 203.33 116.509C199.611 119.798 201.351 124.415 204.379 127.577C209.478 132.985 216.81 136.622 223.528 139.279C224.112 139.516 223.603 140.67 223.378 140.86C221.718 142.835 220.212 144.951 218.879 147.185C214.891 153.889 210.317 165.575 218.384 171.236C221.578 173.481 225.402 172.564 228.431 170.508C232.929 167.346 236.048 162.001 237.787 156.562C237.922 156.151 238.762 154.98 239.197 155.724C241.55 159.275 244.222 162.578 247.174 165.591C249.608 168.206 252.487 170.314 255.661 171.805C259.305 173.386 264.388 173.386 265.917 168.753C267.447 164.12 266.067 158.696 264.673 154.348C263.119 149.275 260.746 144.525 257.655 140.307C257.22 139.721 257.925 138.393 258.555 138.33C260.993 137.993 263.404 137.465 265.767 136.749C270.018 135.67 274.05 133.795 277.673 131.214C286.385 124.715 285.335 115.386 272.995 113.489ZM236.288 123.292C233.544 123.688 232.689 119.561 232.674 117.458C232.659 115.354 233.559 111.275 236.138 110.674C239.017 109.994 239.857 114.422 239.917 116.493C239.842 118.754 239.047 122.834 236.288 123.292ZM244.97 123.703C242.226 124.099 241.356 119.956 241.356 117.853C241.356 115.75 242.241 111.67 244.82 111.069C247.699 110.389 248.538 114.817 248.598 116.888C248.523 119.165 247.714 123.292 244.97 123.64V123.703Z" fill="#6CECC4"/>
<path d="M189.655 204.126C189.256 201.83 189.035 199.502 188.995 197.168C187.385 196.727 185.818 196.123 184.317 195.366C181.318 199.619 181.318 199.477 180.943 199.999C181.396 204.535 182.285 209.013 183.597 213.36C183.897 214.372 184.751 218.199 186.011 219.068C186.092 217.668 186.022 216.262 185.801 214.878C185.711 214.182 186.986 212.554 187.406 213.692C187.825 214.831 188.44 217.25 189.37 218.041C189.52 218.436 189.58 218.436 189.565 218.041C189.527 216.75 189.392 215.466 189.16 214.198C189.04 213.423 190.314 211.558 190.659 212.775C191.157 214.244 191.974 215.571 193.043 216.649C193.238 213.819 191.034 212.064 189.655 204.126Z" fill="white"/>
<path d="M146.695 207.763C146.695 212.506 146.53 217.108 146.455 221.788L154.522 222.152C154.058 217.124 153.578 212.079 153.023 207.051L146.695 207.763Z" fill="white"/>
<path d="M164.749 205.596C164.209 211.131 163.684 216.665 163.249 222.183L171.376 221.314C171.286 215.922 171.181 210.53 171.091 205.122L164.749 205.596Z" fill="white"/>
<path d="M128.942 199.73C127.853 200.636 126.573 201.253 125.211 201.528C123.849 201.803 122.444 201.729 121.115 201.311C118.401 200.441 116.271 198.291 113.812 196.947C113.317 196.678 112.403 196.093 112.478 196.947C112.553 197.801 114.382 198.955 114.967 199.714C115.552 200.473 114.487 201.975 113.692 201.643C112.208 201.039 110.646 200.672 109.059 200.552C110.447 201.942 112.09 203.019 113.887 203.715C114.682 204.047 113.677 205.992 112.928 205.849C111.312 205.424 109.659 205.174 107.994 205.106C108.414 205.422 110.468 206.608 110.993 206.861C114.466 209.031 118.334 210.405 122.344 210.894C125.482 211.221 128.626 210.35 131.205 208.436C133.784 206.525 135.626 203.697 136.394 200.473C133.896 201.033 131.296 200.774 128.942 199.73Z" fill="white"/>
<path d="M199.416 165.338C198.471 165.48 198.816 164.089 199.191 163.646C201.545 161.094 203.046 157.802 203.465 154.269C203.475 152.838 203.082 151.437 202.339 150.24C201.593 149.045 200.53 148.108 199.281 147.549C197.272 146.458 193.283 144.797 191.784 147.406C191.484 147.897 190.374 148.656 190.374 147.533C190.394 145.084 189.731 142.68 188.47 140.623C183.972 133.602 174 139.405 173.266 139.5C172.531 139.595 173.071 138.298 170.597 133.349C165.963 124.115 159.216 122.407 151.014 127.182C146.005 130.187 142.152 135.452 144.056 141.16C144.236 141.714 143.366 143.517 142.707 142.916C137.758 138.33 130.006 138.172 126.453 144.196C123.679 148.94 127.847 154.696 131.386 157.558C132.12 158.159 131.101 160.041 130.246 159.629C125.913 157.495 119.99 157.685 117.726 162.792C115.626 167.536 115.866 175.205 122.029 175.948C123.094 176.09 122.029 178.098 121.249 178.13C119.87 178.13 118.251 180.217 117.816 181.451C117.49 182.263 117.322 183.138 117.322 184.02C117.322 184.903 117.49 185.777 117.816 186.59C119.6 190.306 124.233 187.238 126.602 185.862C127.742 185.214 127.427 187.222 126.842 187.681C125.478 188.724 125.658 192.424 126.228 193.927C128.207 199.113 137.549 200.252 141.102 195.935C142.137 194.686 142.287 196.393 143.291 197.658C144.316 199.002 145.478 200.222 146.755 201.295C149.01 203.041 151.741 203.968 154.537 203.936C158.061 203.936 159.201 202.244 161.72 199.714C161.82 199.603 161.949 199.526 162.09 199.493C162.231 199.458 162.38 199.471 162.514 199.524C166.395 201.759 170.907 202.45 175.23 201.469C179.263 200.41 179.998 199.05 180.778 197.864C181.138 197.326 180.778 197.753 183.987 193.389C184.197 193.104 184.616 192.788 184.961 192.978C186.767 193.911 188.668 194.616 190.629 195.081C197.992 196.741 200.346 192.614 198.741 185.103C198.674 184.732 198.735 184.347 198.915 184.02C199.094 183.691 199.377 183.443 199.716 183.317C204.064 182.241 207.873 178.668 207.798 173.718C207.723 168.769 204.289 164.61 199.416 165.338ZM154.582 171.979C150.519 172.675 149.259 166.255 149.259 163.25C149.259 159.962 150.459 154.222 154.252 153.573C158.346 152.846 159.501 159.297 159.576 162.286C159.501 165.575 158.421 171.315 154.537 171.979H154.582ZM166.278 172.77C162.215 173.465 160.97 167.045 160.955 164.041C160.955 160.752 162.155 155.028 165.948 154.364C170.042 153.652 171.211 160.104 171.271 163.092C171.196 166.381 170.117 172.105 166.278 172.77Z" fill="white"/>
<path d="M210.287 78.3692C198.262 77.704 186.294 80.5403 175.693 86.5672C165.094 92.5941 156.271 101.58 150.189 112.54C146.512 118.926 144.01 125.985 142.812 133.349C142.737 133.997 142.647 134.63 142.572 135.262C143.839 131.292 146.449 127.954 149.904 125.886C154.349 112.893 162.599 101.73 173.459 94.0117C184.321 86.2936 197.23 82.4212 210.317 82.9548L210.602 78.2902C210.509 78.3531 210.398 78.3809 210.287 78.3692Z" fill="#FFDE26"/>
<path d="M34.116 121.11C25.5991 119.308 15.5528 115.117 11.6242 106.879C6.84091 97.0911 9.8998 83.4449 14.3382 73.6728C14.968 72.2655 15.2829 71.3168 16.7673 70.8898C19.9912 69.9727 23.8298 69.3086 26.4988 66.8893C24.7459 66.8501 22.9937 66.9876 21.2657 67.3004C20.471 67.4111 20.5759 66.3358 20.8758 65.8615C21.4756 64.9127 22.0454 63.9323 22.6002 62.9362C23.305 61.6553 24.7894 59.6155 24.7744 58.0817C24.7744 57.5599 24.6994 57.8445 24.2046 58.1924C22.8116 59.4166 21.5269 60.7714 20.366 62.2404C19.4963 63.3156 18.8666 62.2404 19.3614 61.26C19.8562 60.2797 21.8355 55.6624 20.8608 55.5992C20.1411 55.5992 18.6716 57.6074 18.2518 58.1133C17.8319 58.6193 17.3821 59.1412 16.9772 59.6946C16.3475 60.5168 15.3878 60.0267 15.8377 59.0147C16.3913 57.826 16.8283 56.581 17.1422 55.2987C17.3071 54.5397 17.4871 54.0495 16.7073 54.5239C15.9851 55.1423 15.3797 55.8988 14.923 56.7535C13.4235 59.0147 12.3139 61.4972 10.9044 63.8691C4.91725 74.0684 1.77346 85.8389 1.83269 97.8343C1.66068 102.247 2.64652 106.624 4.68166 110.484C8.94015 118.169 17.2621 123.292 25.5841 125.759L34.116 121.11Z" fill="#FFDE26"/>
<path d="M61.5711 165.069L57.3877 169.307V213.819C57.3808 214.114 57.3046 214.402 57.1659 214.66C57.0272 214.916 56.8303 215.133 56.5929 215.289C51.971 217.935 47.585 221.015 43.4877 224.492C42.9029 225.046 41.3885 226.073 42.2581 226.737C43.1154 227.114 44.0543 227.234 44.9722 227.085C49.2126 226.578 53.3867 225.575 57.4176 224.097C59.3819 223.433 63.8803 222.689 64.0153 220.08C64.0153 219.891 64.1352 222.642 61.5711 165.069Z" fill="white"/>
<path d="M81.3189 219.527C74.6013 214.973 74.4814 215.558 74.4814 214.783C74.4814 214.783 74.4814 184.74 74.4814 172.928L70.118 168.484C70.028 170.477 67.8388 213.218 67.8088 218.847C67.8088 220.903 68.9334 221.867 70.6578 222.516C75.0661 224.176 82.3835 226.674 87.0618 227.022C87.9735 227.172 88.9054 227.107 89.7908 226.832C89.7961 226.796 89.7961 226.758 89.7908 226.722C87.3564 223.853 84.4947 221.423 81.3189 219.527Z" fill="white"/>
<path d="M37.3398 134.171C35.7492 130.65 34.7352 126.871 34.3409 122.992L13.5884 134.219C39.0792 134.219 36.5301 134.25 37.3398 134.171Z" fill="#FFDE26"/>
<path d="M73.012 82.1799C71.7674 77.4362 69.6382 69.356 67.9438 63.5845C65.2598 68.8975 60.7314 78.4324 59.4419 84.283C63.8103 82.7349 68.4059 82.0226 73.012 82.1799Z" fill="#FFDE26"/>
<path d="M44.1474 94.4347C47.4497 90.7915 51.3912 87.8599 55.7532 85.8011C50.9314 81.1419 45.6478 77.0441 39.9939 73.578C39.6191 73.3725 38.9593 72.9139 38.2996 72.566C41.9133 86.1015 42.603 88.6789 44.1474 94.4347Z" fill="#FFDE26"/>
<path d="M47.911 148.039C44.5147 145.221 41.6034 141.809 39.3041 137.95C36.755 143.342 33.3063 150.869 31.0421 156.388C30.8922 156.783 30.7272 157.542 30.4873 158.111C30.4873 158.08 46.9663 148.592 47.911 148.039Z" fill="#FFDE26"/>
<path d="M107.169 112.334C110.873 109.061 118.55 102.262 118.55 102.135C116.031 102.293 121.189 101.772 104.186 103.59C105.516 106.365 106.518 109.301 107.169 112.334Z" fill="#FFDE26"/>
<path d="M18.3269 93.8339C19.8264 95.3044 17.3073 92.474 34.8959 112.809C35.9055 107.984 37.7893 103.409 40.4439 99.3366C16.7525 93.4702 18.7168 93.9604 18.3269 93.8339Z" fill="#FFDE26"/>
<path d="M95.8188 146.426C93.0478 149.015 89.9432 151.176 86.5972 152.846C87.8567 154.237 96.5086 163.915 96.9884 164.468C96.8835 162.824 95.9238 148.071 95.8188 146.426Z" fill="#FFDE26"/>
<path d="M88.2913 86.4178C88.2913 84.7259 88.7412 74.0683 88.8761 70.4314C88.3513 71.1904 87.6316 72.0126 87.2717 72.5503L80.2393 83.2079C83.0417 83.9131 85.7475 84.9915 88.2913 86.4178Z" fill="#FFDE26"/>
<path d="M100.722 97.6447C107.11 82.781 106.36 84.5678 106.54 83.9985C106.105 84.2041 107.499 83.3977 94.6941 90.9402C96.9425 92.9215 98.966 95.1708 100.722 97.6447Z" fill="#FFDE26"/>
<path d="M53.504 167.789L63.0705 155.708C59.1712 154.756 55.4408 153.154 52.0195 150.964C53.9838 174.73 53.0242 163.424 53.504 167.789Z" fill="#FFDE26"/>
<path d="M105.37 136.306C105.07 135.879 104.666 135.421 104.306 134.946C102.871 137.917 101.071 140.677 98.9526 143.153C101.952 143.975 104.95 144.987 108.054 145.873L113.287 147.454C112.838 146.885 113.587 147.912 105.37 136.306Z" fill="#FFDE26"/>
<path d="M107.934 118.691C108.006 122.831 107.35 126.948 106 130.835C119.195 126.834 91.6502 135.373 123.993 125.316C107.934 118.549 110.468 119.608 107.934 118.691Z" fill="#FFDE26"/>
<path d="M76.2808 169.971C77.1355 166.713 79.6846 156.973 80.1194 155.36C76.4952 156.412 72.7312 156.829 68.9785 156.593C69.7882 158.08 76.2208 169.844 76.2808 169.971Z" fill="#FFDE26"/>
<path d="M104.231 131.626C110.229 115.813 102.461 98.6567 89.791 90.0863C82.4099 85.273 73.6319 83.4229 65.0632 84.8745C56.4946 86.3269 48.7081 90.9829 43.128 97.9925C38.2727 104.219 35.688 112.07 35.8406 120.13C36.6353 141.05 58.5724 159.661 80.6892 153.146C85.9119 151.695 90.7491 149 94.8299 145.269C98.9114 141.538 102.127 136.871 104.231 131.626ZM60.3118 100.649C62.7709 100.143 63.8355 102.989 64.2254 105.393C64.5852 103.037 65.6498 100.364 67.854 99.9058C70.9879 99.2575 71.8726 104.049 71.9476 106.326C71.8726 108.84 70.9879 113.362 67.974 113.742C65.6498 114.026 64.5702 111.338 64.2104 108.998C63.8205 111.417 62.7109 114.2 60.4317 114.485C57.4328 114.849 56.5181 110.342 56.5181 108.033C56.5181 105.725 57.4628 101.234 60.3118 100.649ZM78.8449 127.783C77.4504 134.535 68.9636 137.46 63.2807 137.176C59.897 136.896 56.6346 135.721 53.7942 133.762C50.9537 131.803 48.6263 129.121 47.0266 125.965C45.3772 122.929 43.008 116.477 47.1165 114.343C49.8156 112.904 53.2493 114.943 55.2886 116.746C60.1018 121 60.2368 125.016 64.1954 124.384C67.5691 123.625 80.3744 120.351 78.8449 127.783Z" fill="#FFDE26"/>
<path d="M155.032 230.817C155.032 228.682 154.897 226.564 154.717 224.492L146.41 224.113C146.321 227.923 145.751 231.402 142.857 233.995C141.702 235.039 138.583 237.158 138.973 237.49C139.363 237.822 141.732 237.379 142.437 237.237C147.16 236.304 148.345 234.075 151.149 232.493C152.363 231.798 153.413 231.402 153.998 232.952C154.118 233.252 154.118 233.553 154.208 233.853C154.298 234.154 155.152 236.367 154.942 234.596C155.106 233.344 155.137 232.076 155.032 230.817Z" fill="#FF3E74"/>
<path d="M172.861 232.145C171.272 229.615 171.361 226.358 171.361 223.417L163.024 224.302C162.792 227.231 162.732 230.174 162.845 233.11C162.845 233.632 162.575 235.782 163.594 234.691C163.594 234.691 163.834 233.616 163.879 233.505C164.089 232.92 164.539 232.003 165.154 231.798C167.043 231.165 169.652 234.375 171.152 235.261C172.381 236.012 173.704 236.581 175.08 236.952C176.256 237.278 177.454 237.5 178.664 237.617C176.834 235.561 174.3 234.454 172.861 232.145Z" fill="#FF3E74"/>
<path d="M48.8557 124.162C50.1001 127.125 52.1989 129.598 54.8535 131.23C55.0329 130.34 55.0402 129.42 54.8754 128.526C54.7105 127.633 54.3767 126.782 53.8939 126.028C53.2478 125.327 52.4567 124.795 51.5826 124.47C50.7084 124.148 49.775 124.042 48.8557 124.162Z" fill="#FF3E74"/>
<path d="M284.99 120.683C284.78 115.94 280.807 113.251 276.893 112.034C269.876 109.852 262.049 111.133 255.196 113.473C255.609 110.378 255.788 107.253 255.736 104.128C255.736 98.3086 254.941 91.8413 251.717 86.9395C250.159 84.6736 248.009 82.9358 245.531 81.9356C243.052 80.9363 240.352 80.7189 237.757 81.3103C235.042 82.0534 232.682 83.8276 231.13 86.2912C226.122 93.5491 226.152 103.685 226.946 112.382C224.165 111.759 221.343 111.363 218.504 111.196C213.466 110.88 207.588 111.101 203.375 114.358C199.731 117.189 198.217 121.932 200.571 126.186C203.06 130.693 207.918 133.776 212.117 136.227C215.129 138.022 218.25 139.606 221.458 140.971C217.155 146.458 213.301 153.399 212.462 160.42C211.262 170.666 218.819 178.936 228.461 172.611V213.819C226.192 215.179 223.973 216.613 221.803 218.12C218.954 220.096 214.936 222.452 213.361 225.805C211.292 230.153 217.86 229.283 219.989 228.967C223.219 228.347 226.401 227.481 229.51 226.374C231.745 225.631 234.968 225.046 236.723 223.306C238.477 221.567 238.357 219.132 238.222 216.744C238.072 213.439 236.018 168.722 235.823 164.436C236.865 162.653 237.753 160.774 238.477 158.823C241.001 162.433 243.842 165.785 246.964 168.832C246.664 175.537 244.595 216.76 244.625 220.128C244.625 224.603 249.708 225.346 252.932 226.453C257.025 227.813 261.494 229.394 265.827 229.362C267.687 229.362 270.506 228.603 269.966 225.978C269.501 223.749 266.727 221.899 265.138 220.665C262.567 218.679 259.9 216.837 257.145 215.147C256.576 214.783 255.961 214.293 255.346 213.945C255.046 213.771 254.581 213.945 254.581 212.728C254.581 210.593 254.581 202.655 254.581 174.129C260.069 176.406 264.403 174.556 266.442 170.967C268.841 166.792 268.241 161.306 267.222 156.736C265.884 150.828 263.503 145.238 260.204 140.259C266.77 139.359 273.032 136.791 278.453 132.78C281.991 129.981 285.2 125.538 284.99 120.683ZM236.768 220.065C236.633 222.674 232.149 223.417 230.17 224.081C226.144 225.558 221.976 226.559 217.74 227.07C216.818 227.22 215.873 227.1 215.011 226.722C214.156 226.026 215.655 225.03 216.24 224.476C220.338 221.013 224.718 217.938 229.331 215.289C229.572 215.136 229.773 214.921 229.914 214.663C230.055 214.407 230.133 214.116 230.14 213.819C230.14 200.484 230.14 187.148 230.14 173.813L234.639 171.457C236.918 223.211 236.783 219.891 236.768 220.065ZM259.799 219.527C262.965 221.426 265.817 223.856 268.241 226.722V226.832C267.355 227.106 266.424 227.171 265.512 227.022C260.804 226.674 253.517 224.176 249.123 222.516C247.399 221.867 246.259 220.934 246.274 218.847C246.274 213.613 246.169 221.124 248.284 174.983L252.962 174.493V214.783C252.962 215.558 253.022 215.005 259.799 219.527ZM277.688 131.341C274.065 133.921 270.033 135.797 265.782 136.875C263.419 137.592 261.008 138.12 258.57 138.456C257.925 138.456 257.235 139.848 257.67 140.433C260.761 144.652 263.134 149.402 264.688 154.475C266.082 158.823 267.447 164.357 265.932 168.88C264.418 173.402 259.32 173.513 255.676 171.931C253.121 170.765 250.765 169.163 248.704 167.188C245.136 163.805 241.951 160.001 239.212 155.85C238.777 155.17 237.937 156.277 237.802 156.688C236.295 161.944 233.316 166.596 229.256 170.034C226.032 172.596 221.758 173.75 218.399 171.362C210.332 165.701 214.906 153.969 218.894 147.311C220.227 145.077 221.733 142.961 223.393 140.986C223.618 140.718 224.127 139.563 223.543 139.405C216.825 136.749 209.493 133.08 204.395 127.704C201.396 124.542 199.461 120.082 203.345 116.635C207.229 113.188 212.821 113.236 217.41 113.473C220.854 113.651 224.274 114.18 227.621 115.054C228.266 115.228 228.881 114.01 228.821 113.473C227.996 105.567 227.321 95.921 231.385 88.7105C231.989 87.485 232.823 86.4019 233.836 85.5266C234.849 84.6514 236.02 84.0023 237.278 83.6189C239.569 83.0765 241.957 83.2109 244.18 84.0094C246.402 84.8072 248.372 86.2374 249.873 88.1412C253.172 92.5845 253.982 98.6882 254.147 104.159C254.401 112.951 253.127 115.307 253.592 115.845C253.667 116.034 253.832 116.113 254.102 116.019C260.12 113.609 266.597 112.741 272.995 113.489C285.275 115.386 286.49 124.684 277.688 131.341Z" fill="#0D128A"/>
<path d="M244.82 111.006C242.241 111.607 241.356 115.465 241.356 117.79C241.356 120.114 242.226 124.115 244.97 123.64C247.714 123.166 248.523 119.165 248.598 116.825C248.523 114.754 247.699 110.326 244.82 111.006ZM244.535 121.189C242.121 119.608 242.66 111.702 245.419 113.425C246.694 114.248 246.919 116.414 246.919 117.79C246.919 119.165 246.439 122.423 244.505 121.189H244.535Z" fill="#0D128A"/>
<path d="M244.97 115.26C243.845 115.56 243.305 117.11 243.305 118.201C243.305 119.039 243.695 120.43 244.805 120.209C245.914 119.988 246.484 118.454 246.514 117.252C246.409 116.414 246.004 114.959 244.97 115.26Z" fill="#0D128A"/>
<path d="M236.288 123.292C239.047 122.897 239.842 118.817 239.917 116.493C239.917 114.422 239.017 109.994 236.138 110.674C233.559 111.275 232.674 115.117 232.674 117.458C232.674 119.798 233.544 123.624 236.288 123.292ZM236.753 113.093C238.012 113.9 238.252 116.082 238.252 117.458C238.252 118.833 237.727 122.091 235.823 120.857C233.439 119.244 234.009 111.243 236.753 113.03V113.093Z" fill="#0D128A"/>
<path d="M238.132 116.683C238.027 115.702 237.293 114.501 236.303 114.943C235.787 115.269 235.387 115.764 235.162 116.352C234.937 116.94 234.901 117.589 235.058 118.201C235.613 120.984 238.507 119.909 238.132 116.683Z" fill="#0D128A"/>
<path d="M233.064 108.697C233.309 108.599 233.524 108.435 233.691 108.221C233.856 108.008 233.965 107.752 234.009 107.48C234.154 106.977 234.471 106.549 234.896 106.275C235.321 106.001 235.828 105.901 236.318 105.994C237.203 105.994 238.102 103.906 237.098 103.811C233.304 103.353 231.385 109.061 233.064 108.697Z" fill="#0D128A"/>
<path d="M244.97 103.021C244.085 102.942 243.185 105.124 244.19 105.203C245.117 105.285 245.997 105.669 246.708 106.3C247.42 106.932 247.928 107.78 248.164 108.729C248.299 109.283 248.853 109.125 249.168 108.856C249.386 108.667 249.552 108.422 249.653 108.145C249.752 107.867 249.782 107.568 249.738 107.274C249.452 106.136 248.84 105.118 247.988 104.357C247.135 103.596 246.082 103.13 244.97 103.021Z" fill="#0D128A"/>
<path d="M246.949 126.455C245.648 127.707 244.769 129.372 244.445 131.199C242.755 131.792 240.951 131.934 239.197 131.61C238.94 129.499 238.147 127.499 236.903 125.822C236.288 124.984 234.953 126.898 235.493 127.625C236.496 128.92 237.18 130.457 237.486 132.098C237.792 133.738 237.711 135.433 237.248 137.033C236.783 138.615 238.327 138.362 238.747 137.176C239.072 136.105 239.269 134.994 239.332 133.871C241.013 134.133 242.73 133.926 244.31 133.27C244.301 134.941 244.508 136.607 244.925 138.219C245.195 139.374 246.694 137.666 246.424 136.796C245.75 133.95 245.12 130.471 247.399 128.131C248.089 127.356 248.029 125.316 246.949 126.455Z" fill="#0D128A"/>
<path d="M209.853 85.1528C210.737 85.1528 211.622 83.0181 210.632 82.9707C197.494 82.3635 184.516 86.2004 173.591 93.92C162.666 101.64 154.367 112.84 149.904 125.886C146.45 127.954 143.839 131.292 142.572 135.263C142.572 134.63 142.737 133.998 142.812 133.349C144.01 125.985 146.512 118.926 150.189 112.54C156.266 101.576 165.089 92.587 175.69 86.5601C186.292 80.5324 198.26 77.6987 210.287 78.3693C211.157 78.3693 212.042 76.2346 211.067 76.1871C174.6 74.3055 144.236 103.226 140.593 138.599C137.932 137.256 134.89 137.013 132.067 137.917C129.245 138.822 126.846 140.808 125.343 143.485C122.869 147.849 124.279 152.577 127.038 156.246C124.56 155.831 122.024 156.394 119.915 157.827C114.652 161.717 111.938 173.782 119.105 177.387C117.891 178.448 116.957 179.822 116.394 181.376C115.832 182.931 115.66 184.613 115.897 186.258C115.939 187.352 116.364 188.389 117.089 189.172C117.815 189.955 118.79 190.426 119.825 190.495C121.571 190.396 123.269 189.853 124.773 188.914C124.377 190.367 124.235 191.882 124.353 193.389C124.454 194.458 124.775 195.492 125.293 196.417C125.81 197.344 126.513 198.139 127.352 198.75C125.813 199.513 124.074 199.703 122.419 199.287C119.615 198.56 117.441 196.251 114.922 194.875C113.228 193.943 111.488 193.911 110.813 196.125C110.676 196.51 110.619 196.923 110.645 197.336C110.671 197.747 110.779 198.149 110.963 198.512C110.08 198.368 109.187 198.305 108.294 198.323C107.215 198.323 106.285 200.536 107.949 202.639C107.337 202.5 106.697 202.584 106.135 202.877C105.832 203.051 105.576 203.3 105.387 203.604C105.198 203.908 105.084 204.255 105.054 204.618C105.025 204.98 105.08 205.343 105.217 205.677C105.353 206.011 105.565 206.303 105.835 206.529C106.967 207.401 108.183 208.142 109.464 208.743C113.123 211.072 117.214 212.544 121.46 213.06C125.231 213.34 128.97 212.168 131.986 209.765C135.002 207.359 137.09 203.885 137.864 199.983C139.019 199.592 140.096 198.982 141.042 198.18C141.515 198.991 142.084 199.736 142.737 200.394C143.496 201.305 144.317 202.157 145.196 202.94C144.761 227.908 144.926 227.829 144.221 229.742C142.962 233.142 138.553 234.122 137.279 237.19C135.36 241.791 145.061 238.439 146.485 237.68C148.117 236.643 149.699 235.518 151.224 234.312C152.033 233.853 152.213 233.774 152.588 234.66C152.963 235.545 152.708 236.462 153.458 237.142C153.704 237.384 154.017 237.538 154.352 237.58C154.685 237.623 155.023 237.553 155.317 237.379C156.982 236.462 156.622 233.6 156.667 232.003C156.817 226.406 156.322 222.342 154.747 206.118C157.866 205.865 159.441 204.221 161.78 201.865C162.335 202.165 162.92 202.434 163.504 202.687C161.63 222.199 161.195 226.105 161.15 230.027C160.97 232.163 161.045 234.315 161.375 236.431C161.795 238.107 163.759 238.012 164.704 235.956C164.903 235.314 165.062 234.66 165.184 233.996C166.998 234.581 168.348 236.273 169.967 237.269C171.69 238.304 173.573 239.011 175.53 239.356C176.775 239.577 178.814 240.02 180.028 239.166C180.426 238.88 180.711 238.45 180.829 237.958C180.948 237.466 180.892 236.946 180.673 236.494C180.637 236.355 180.565 236.228 180.463 236.13C178.964 234.169 176.64 233.11 175.035 231.213C172.876 228.667 173.146 224.982 173.101 221.804L172.786 204.078C175.19 203.849 177.497 202.973 179.489 201.533C180.01 206.518 181.051 211.43 182.592 216.175C183.027 217.472 184.257 222.421 186.356 221.33C186.696 221.112 186.987 220.817 187.208 220.468C187.427 220.117 187.572 219.722 187.631 219.306C188.305 220.492 189.13 221.266 190.12 220.555C190.502 220.247 190.815 219.853 191.036 219.402C191.256 218.952 191.379 218.453 191.394 217.946C191.846 218.498 192.348 219.001 192.894 219.448C193.299 219.78 193.883 219.053 194.048 218.768C196.208 214.942 193.314 210.625 192.279 206.877C191.444 203.832 190.941 200.698 190.779 197.532C198.562 198.829 201.845 193.215 200.661 185.151C203.032 184.39 205.137 182.909 206.714 180.893C208.29 178.875 209.268 176.413 209.523 173.813C209.823 168.295 206.674 163.282 201.516 163.108C203.81 159.851 205.669 155.676 205.144 151.755C204.41 146.268 196.387 141.603 192.069 145.129C191.885 142.709 191.081 140.387 189.745 138.409C185.981 133.175 179.249 134.915 174.315 137.144C173.734 134.889 172.882 132.721 171.781 130.693C180.912 118.267 194.096 109.864 208.773 107.116C209.598 106.974 210.272 104.76 209.163 104.982C194.026 107.865 180.433 116.55 171.002 129.364C169.874 127.533 168.448 125.927 166.788 124.621C171.744 117.345 178.108 111.263 185.459 106.776C192.811 102.289 200.982 99.5002 209.433 98.5934C210.212 98.3088 210.812 96.348 209.688 96.4745C200.913 97.4628 192.438 100.414 184.831 105.132C177.223 109.849 170.658 116.223 165.574 123.83C163.833 122.783 161.849 122.269 159.846 122.344C164.885 113.045 172.11 105.27 180.823 99.7675C189.536 94.2647 199.445 91.2193 209.598 90.9244C210.482 90.9244 211.337 88.7106 210.377 88.7264C199.643 89.1186 189.189 92.436 180.03 98.3554C170.873 104.274 163.324 112.593 158.121 122.502C155.995 122.883 153.936 123.609 152.018 124.652C156.544 112.527 164.552 102.199 174.924 95.1147C185.296 88.0315 197.509 84.548 209.853 85.1528ZM122.269 210.941C117.201 210.546 112.643 208 108.309 205.375L107.994 205.154C109.659 205.22 111.312 205.47 112.928 205.897C113.677 206.039 114.682 204.094 113.887 203.762C112.928 203.4 112.013 202.922 111.158 202.339C110.393 201.86 109.687 201.281 109.059 200.615C110.646 200.736 112.208 201.102 113.692 201.706C114.487 202.039 115.492 200.457 114.967 199.777C114.442 199.097 112.553 197.911 112.553 197.01C112.553 196.109 113.392 196.741 113.887 197.01C116.361 198.37 118.476 200.505 121.19 201.374C122.519 201.792 123.924 201.866 125.286 201.591C126.648 201.316 127.928 200.699 129.017 199.793C131.343 200.837 133.916 201.114 136.394 200.584C135.609 203.81 133.751 206.63 131.158 208.531C128.565 210.433 125.41 211.289 122.269 210.941ZM155.032 230.817C155.13 232.046 155.1 233.281 154.942 234.502C155.167 236.32 154.193 234.169 154.208 233.758C154.223 233.347 154.118 233.157 153.998 232.857C153.413 231.276 152.363 231.703 151.149 232.398C148.345 233.98 147.16 236.257 142.437 237.142C141.732 237.285 139.573 237.885 138.973 237.395C138.373 236.905 141.702 234.944 142.857 233.901C145.751 231.307 146.321 227.829 146.411 224.018L154.718 224.397C154.897 226.5 155.032 228.619 155.032 230.817ZM146.455 221.852C146.455 217.108 146.62 212.506 146.695 207.826L153.038 207.099C153.537 212.127 154.038 217.16 154.538 222.199L146.455 221.852ZM164.749 205.66L171.017 205.185C171.107 210.593 171.212 215.985 171.302 221.377L163.174 222.247C163.684 216.586 164.209 211.131 164.749 205.596V205.66ZM172.861 232.209C174.36 234.517 176.835 235.64 178.589 237.617C177.379 237.5 176.181 237.278 175.005 236.952C173.629 236.581 172.306 236.012 171.077 235.261C169.577 234.375 167.013 231.165 165.079 231.798C164.464 232.003 164.014 232.92 163.804 233.505C163.804 233.616 163.594 234.612 163.519 234.691C162.5 235.846 162.8 233.695 162.77 233.11C162.657 230.174 162.717 227.231 162.95 224.302L171.287 223.417C171.361 226.358 171.272 229.615 172.861 232.145V232.209ZM191.319 210.751C191.859 212.332 193.209 214.752 193.119 216.713C192.049 215.634 191.232 214.307 190.734 212.838C190.315 211.621 189.04 213.487 189.235 214.262C189.473 215.528 189.608 216.814 189.64 218.104C189.64 218.499 189.64 218.499 189.445 218.104C188.515 217.313 187.945 214.942 187.481 213.756C187.016 212.57 185.786 214.246 185.876 214.942C186.097 216.325 186.167 217.731 186.086 219.132C184.827 218.262 183.972 214.388 183.672 213.424C182.357 209.077 181.468 204.6 181.018 200.062C181.378 199.619 181.018 200.062 184.392 195.429C185.893 196.186 187.46 196.79 189.07 197.232C189.135 201.814 189.895 206.357 191.319 210.688V210.751ZM156.832 124.921C162.59 123.751 166.743 126.676 169.817 132.021C173.116 137.761 172.291 139.927 173.236 139.563C173.971 139.469 183.957 133.681 188.44 140.686C189.701 142.743 190.364 145.147 190.345 147.596C190.345 148.719 191.454 147.96 191.754 147.47C193.254 144.861 197.227 146.521 199.251 147.612C200.5 148.172 201.564 149.108 202.309 150.303C203.053 151.5 203.445 152.901 203.435 154.332C203.017 157.865 201.516 161.157 199.161 163.709C198.787 164.152 198.442 165.543 199.386 165.401C204.26 164.674 207.693 168.896 207.753 173.845C207.813 178.794 204.02 182.368 199.671 183.443C199.332 183.568 199.049 183.818 198.871 184.147C198.691 184.474 198.629 184.858 198.697 185.23C200.316 192.788 197.902 196.852 190.585 195.208C188.623 194.744 186.72 194.039 184.917 193.104C184.572 192.915 184.152 193.231 183.942 193.516C182.188 195.951 180.178 198.892 179.713 199.366C178.401 200.472 176.86 201.235 175.215 201.596C170.892 202.579 166.379 201.89 162.5 199.651C162.365 199.596 162.216 199.584 162.075 199.619C161.934 199.652 161.805 199.73 161.705 199.841C159.051 202.497 157.626 204.584 152.708 203.936C148.63 203.335 145.886 201.074 143.277 197.722C142.272 196.457 142.122 194.749 141.087 195.998C137.474 200.41 128.162 199.161 126.213 193.99C125.643 192.504 125.463 188.788 126.828 187.744C127.412 187.286 127.727 185.277 126.588 185.926C124.219 187.301 119.585 190.369 117.801 186.653C117.475 185.84 117.307 184.966 117.307 184.083C117.307 183.201 117.475 182.327 117.801 181.514C118.251 180.281 119.855 178.272 121.235 178.193C122.029 178.193 123.079 176.154 122.014 176.011C115.852 175.268 115.612 167.583 117.711 162.855C119.975 157.748 125.898 157.558 130.231 159.693C131.086 160.104 132.106 158.222 131.371 157.621C127.832 154.759 123.664 149.004 126.438 144.26C129.961 138.219 137.684 138.346 142.692 142.979C143.352 143.58 144.191 141.777 144.041 141.224C141.537 133.523 149.364 126.36 156.877 124.874L156.832 124.921Z" fill="#0D128A"/>
<path d="M166.278 172.769C170.117 172.105 171.196 166.444 171.271 163.092C171.271 160.104 170.042 153.605 165.948 154.364C162.155 155.028 160.955 160.689 160.955 164.041C160.97 167.045 162.215 173.465 166.278 172.769ZM166.593 156.672C169.067 157.684 169.592 161.717 169.592 164.041C169.592 166.112 168.782 171.742 165.588 170.461C161.015 168.579 161.93 154.775 166.533 156.672H166.593Z" fill="#0D128A"/>
<path d="M165.843 165.622C167.268 165.354 167.883 163.409 167.943 161.891C167.943 160.8 167.448 158.728 165.993 159.123C164.539 159.519 163.969 161.511 163.969 162.855C163.984 163.93 164.464 165.891 165.843 165.622Z" fill="#0D128A"/>
<path d="M154.252 153.573C150.459 154.222 149.259 159.898 149.259 163.25C149.259 166.255 150.519 172.738 154.582 171.979C158.421 171.315 159.501 165.654 159.576 162.286C159.501 159.297 158.346 152.846 154.252 153.573ZM153.938 169.654C149.319 167.789 150.234 153.984 154.897 155.882C159.561 157.779 158.586 171.552 153.938 169.654Z" fill="#0D128A"/>
<path d="M153.413 162.824C153.413 163.899 153.893 165.86 155.272 165.591C156.652 165.322 157.311 163.393 157.371 161.859C157.371 160.768 156.877 158.697 155.422 159.092C153.968 159.487 153.413 161.511 153.413 162.824Z" fill="#0D128A"/>
<path d="M157.281 175.837C157.131 174.43 155.557 175.837 155.647 176.802C155.842 178.842 157.146 182.051 159.576 181.545C162.005 181.039 163.174 177.513 163.489 175.22C163.714 173.639 161.99 174.635 161.99 175.647C161.81 176.928 161.21 179.854 159.441 179.363C158.091 178.952 157.401 177.055 157.281 175.837Z" fill="#0D128A"/>
<path d="M149.589 148.023C148.945 149.304 150.114 150.031 150.759 148.75C151.237 147.806 151.889 146.972 152.677 146.295C153.465 145.62 154.373 145.115 155.347 144.813C156.142 144.56 156.847 142.331 155.737 142.678C154.427 143.093 153.207 143.781 152.152 144.698C151.096 145.615 150.225 146.745 149.589 148.023Z" fill="#0D128A"/>
<path d="M167.118 144.197C168.34 144.415 169.493 144.943 170.478 145.737C171.463 146.53 172.251 147.565 172.771 148.751C173.251 149.873 174.69 148.134 174.27 147.327C173.693 145.949 172.804 144.742 171.679 143.812C170.555 142.883 169.229 142.26 167.823 141.999C167.043 141.84 166.113 144.007 167.118 144.197Z" fill="#0D128A"/>
<path d="M123.904 122.771C107.005 115.639 109.284 116.556 107.769 116.066C107.769 115.402 107.604 114.754 107.499 114.105L119.195 103.685C122.944 100.349 122.044 99.5738 119.195 99.89L103.211 101.598C102.716 100.696 102.206 99.8426 101.712 98.9887C102.596 96.9173 106.435 87.92 107.455 85.5797C108.714 82.6702 110.019 79.9505 106.21 82.1959L93.2996 89.77C92.19 88.8972 91.0392 88.0844 89.8509 87.3349C89.8509 85.0263 90.3157 74.4319 90.4357 71.4434C90.5856 67.2215 90.4357 65.1184 87.7666 69.2929L78.7699 82.8758C77.5103 82.6228 76.2358 82.4331 74.9463 82.3065C74.9463 82.3065 70.5679 65.8774 70.043 63.6478C69.7731 62.6675 69.6832 61.3234 68.9184 60.6435C68.7686 60.5012 68.4836 60.6435 68.3487 60.6435C67.1191 61.3076 66.5043 63.3474 65.8895 64.5808C63.2055 70.0044 59.202 78.6539 57.8674 84.5994C53.2901 80.2446 48.397 76.2744 43.2327 72.7242C41.8232 71.8229 39.0043 69.5617 37.2349 69.9728C36.9769 70.0718 36.7494 70.2435 36.5775 70.4693C36.4057 70.6951 36.2959 70.9665 36.2603 71.2536C35.9004 72.5977 36.86 74.5584 37.1899 75.8234L42.618 96.1425C41.8382 97.1386 42.0332 96.9015 41.7483 97.2968C40.6537 96.9173 43.3677 97.613 17.3671 91.209C16.0926 90.8927 14.3682 91.8256 15.2229 93.5018C15.9069 94.4948 16.6968 95.4024 17.577 96.2057L34.3709 115.623C34.251 116.667 34.176 117.711 34.146 118.786C25.4642 116.967 15.2079 112.081 12.179 103.211C10.0497 96.8856 10.6795 90.0547 12.179 83.7455C13.0722 80.0865 14.3496 76.5434 15.9876 73.1828C20.1561 72.0284 24.9094 71.1429 27.8783 67.5851C28.8979 66.3518 29.2278 64.7863 27.3385 64.6757C25.8678 64.6319 24.3966 64.7378 22.9451 64.9919C23.5449 63.9641 24.1147 62.9205 24.6395 61.8294C25.1643 60.7383 27.0536 57.6075 26.1389 56.1211C25.4492 54.9194 23.7548 56.1211 22.2103 57.7024C22.8401 55.789 23.11 53.9074 21.9404 53.3856C21.0108 52.9586 19.7662 53.8757 18.6416 55.0775C19.0015 53.6386 19.0315 52.3261 18.0718 51.915C16.0926 51.1876 12.7188 57.2754 11.6542 59.1887C11.2343 59.9635 9.77984 62.7149 9.95978 62.4777C5.2918 70.0726 2.22381 78.6355 0.963071 87.5879C0.0933856 93.3436 -0.53639 99.7003 0.66318 105.44C2.95735 116.414 12.6588 123.466 22.7052 127.135L15.4778 131.199C13.8452 131.939 12.262 132.794 10.7395 133.76C10.0647 134.266 8.40034 136.401 11.999 136.401H36.5152C37.162 136.483 37.8131 136.52 38.4645 136.512C38.3895 136.67 31.1171 152.324 29.1378 157.432C28.6348 158.287 28.4085 159.291 28.4931 160.294C28.5154 160.39 28.5644 160.479 28.6337 160.545C28.7031 160.613 28.7898 160.657 28.8829 160.673C29.6583 160.61 30.3989 160.308 31.0122 159.803C51.8397 147.881 49.0056 149.652 49.4855 149.272L50.1302 149.747C50.1302 151.059 50.4002 152.451 50.5201 153.731C50.7 155.961 51.4498 164.99 51.6447 167.283C51.6447 168.184 51.6447 169.623 52.1545 170.445C52.2146 170.523 52.2947 170.58 52.3851 170.611C52.4755 170.643 52.5725 170.644 52.6643 170.619C53.459 170.366 53.849 169.702 54.3737 169.038L55.6782 167.378V213.85C53.4291 215.21 51.1799 216.649 49.0206 218.151C46.1867 220.128 42.1681 222.484 40.5787 225.836C38.5244 230.185 45.0771 229.315 47.2063 228.999C50.4408 228.381 53.6282 227.514 56.7429 226.406C58.962 225.662 62.2009 225.077 63.9552 223.338C65.7096 221.599 65.5897 219.163 65.4547 216.776C65.3048 213.471 63.0706 164.689 62.7857 158.364C63.3402 157.596 63.9359 156.862 64.57 156.167C65.1698 156.282 65.7696 156.377 66.3694 156.451L68.8435 160.974C68.4236 170.303 66.0995 216.792 66.1295 220.16C66.1295 224.635 71.2276 225.378 74.4514 226.485C78.545 227.844 82.9984 229.426 87.3468 229.394C89.1911 229.394 92.0251 228.635 91.4853 226.01C91.0205 223.781 88.2465 221.931 86.657 220.697C84.1065 218.659 81.4592 216.758 78.7249 215.005C78.0396 214.497 77.3237 214.037 76.5807 213.629C76.4487 213.547 76.3415 213.428 76.2695 213.286C76.1983 213.144 76.1661 212.984 76.1758 212.823C76.0859 211.241 76.1009 217.709 76.1758 172.896C76.3325 172.855 76.4772 172.774 76.5957 172.659C77.3709 171.649 77.8552 170.425 77.9902 169.133C78.6349 166.65 81.139 157.115 81.7388 154.902C82.6685 154.585 83.5681 154.237 84.4678 153.858L94.8441 165.338C97.1532 167.899 99.0275 169.765 98.6077 163.314C98.4428 160.736 97.4981 145.92 97.4381 145.098C99.8672 145.92 93.5095 144.023 113.602 149.952C114.322 150.174 114.997 150.537 115.672 149.952C115.857 149.812 116.013 149.631 116.128 149.424C116.244 149.215 116.318 148.985 116.345 148.746C116.372 148.505 116.351 148.264 116.284 148.033C116.217 147.802 116.106 147.59 115.956 147.406C114.262 144.687 114.022 144.703 106.705 134.361C106.465 133.997 106.015 133.507 105.64 133.017L123.409 127.483C129.242 125.696 128.072 124.526 123.904 122.771ZM118.55 102.135C118.221 102.467 117.051 103.543 107.125 112.334C106.469 109.301 105.462 106.364 104.126 103.59C121.175 101.772 116.091 102.294 118.55 102.135ZM106.555 83.9985C106.345 84.6468 100.677 97.8028 100.737 97.6446C98.9901 95.1731 96.977 92.923 94.7391 90.9402C107.499 83.3976 106.075 84.204 106.555 83.9985ZM87.2718 72.5503C87.6317 71.981 88.3514 71.1904 88.8762 70.4314C88.7413 74.0683 88.3514 84.6626 88.2914 86.4178C85.7439 85.0113 83.0388 83.9487 80.2394 83.2553L87.2718 72.5503ZM67.9438 63.5846C68.7235 66.2411 70.7778 73.7678 73.012 82.18C68.4059 82.0227 63.8102 82.7351 59.4419 84.2831C60.7164 78.4483 65.2748 68.866 67.9438 63.5846ZM38.2995 72.5661C38.9593 72.9139 39.619 73.3725 39.9939 73.5781C45.6484 77.0431 50.9322 81.1412 55.7532 85.8011C51.3911 87.8599 47.4497 90.7915 44.1474 94.4347C43.7426 92.9009 38.2545 72.3921 38.2995 72.5661ZM18.3268 93.8338C18.7166 93.9603 16.8273 93.5018 40.4437 99.3049C37.7891 103.377 35.9053 107.952 34.8958 112.777C17.3671 92.5372 19.8112 95.2728 18.3268 93.8338ZM4.68173 110.484C2.64659 106.625 1.66075 102.247 1.83275 97.8344C1.75736 85.8169 4.90197 74.0215 10.9044 63.806C12.3139 61.4815 13.4085 58.9515 14.923 56.6904C15.3797 55.8355 15.985 55.0792 16.7073 54.4608C17.4871 53.9864 17.3071 54.4608 17.1422 55.2356C16.815 56.5528 16.3577 57.83 15.7777 59.0464C15.3278 60.0584 16.2875 60.6277 16.9173 59.7263C17.3221 59.1887 17.742 58.6669 18.1918 58.1451C18.6416 57.6233 20.0811 55.5677 20.8009 55.6309C21.7755 55.6309 19.7212 60.4537 19.3014 61.2918C18.8816 62.1298 19.4363 63.3474 20.306 62.2722C21.4486 60.8116 22.7133 59.4621 24.0847 58.24C24.5795 57.8921 24.6545 57.6075 24.6545 58.1293C24.6545 59.7105 23.155 61.7029 22.4802 62.9837C21.9254 63.9799 21.3557 64.9603 20.7559 65.909C20.456 66.3834 20.351 67.4903 21.1457 67.348C22.8737 67.0358 24.626 66.8981 26.3788 66.9368C23.7098 69.2771 19.8712 70.0993 16.6474 70.9374C15.1479 71.3643 14.848 72.3131 14.2182 73.7204C9.71987 83.5557 6.72098 97.1703 11.5042 106.927C15.4928 115.102 25.5691 119.276 33.9961 121.158L25.5841 125.759C17.2621 123.292 8.94015 118.169 4.68173 110.484ZM13.5585 134.203L34.326 122.976C34.7242 126.853 35.738 130.633 37.3249 134.156C36.4552 134.25 13.4085 134.219 13.5885 134.219L13.5585 134.203ZM45.0471 149.747L30.4874 158.08C30.6673 157.653 30.8322 155.85 39.3042 137.919C41.5988 141.78 44.5109 145.194 47.911 148.007C46.9664 148.592 46.0217 149.225 45.0771 149.763L45.0471 149.747ZM64.0152 220.065C63.8803 222.674 59.3819 223.417 57.4176 224.081C53.3871 225.561 49.2129 226.564 44.9721 227.07C44.0543 227.218 43.1153 227.098 42.2581 226.722C41.3884 226.026 42.9029 225.03 43.4876 224.476C47.5807 221.006 51.9618 217.932 56.5779 215.289C56.8153 215.133 57.0122 214.916 57.1509 214.66C57.2896 214.402 57.3657 214.115 57.3726 213.819C57.3726 198.987 57.3726 184.15 57.3726 169.307L61.5711 165.069C64.1052 222.057 64.0152 219.907 64.0152 220.065ZM53.519 167.789C53.1442 164.326 53.879 173.402 52.0196 151.012C55.4409 153.202 59.1712 154.804 63.0706 155.755L53.519 167.789ZM81.334 219.527C84.4993 221.426 87.3505 223.857 89.7759 226.722C89.7812 226.758 89.7812 226.796 89.7759 226.832C88.8912 227.109 87.9586 227.174 87.0469 227.022C82.3536 226.674 75.0512 224.176 70.6728 222.516C68.9484 221.867 67.8088 220.934 67.8238 218.847C67.8238 213.977 67.8238 219.559 70.133 168.484L74.4964 172.928V214.783C74.4814 215.558 74.5714 215.005 81.319 219.527H81.334ZM76.2958 169.971C76.0109 169.37 76.7456 170.746 68.9934 156.593C72.746 156.826 76.5095 156.408 80.1344 155.36C79.9545 155.945 77.1805 166.587 76.2808 169.971H76.2958ZM86.612 152.846C89.9581 151.176 93.0627 149.015 95.8337 146.426C96.0586 150.174 96.9883 164.405 96.9883 164.405C94.6641 161.748 99.4924 167.125 86.5971 152.846H86.612ZM113.302 147.422C101.682 143.991 102.236 144.023 98.9676 143.153C101.086 140.677 102.886 137.917 104.321 134.946C104.681 135.421 105.085 135.879 105.385 136.306C105.685 136.733 112.913 147.011 113.287 147.422H113.302ZM104.306 131.61C102.257 136.717 99.1528 141.279 95.2204 144.96C91.2881 148.643 86.6255 151.353 81.5739 152.893C51.7946 162.286 22.1654 126.771 42.6629 98.6408C48.071 91.507 55.7313 86.6621 64.2457 84.9899C72.7599 83.3178 81.5604 84.9306 89.0412 89.5328C102.191 97.9925 110.288 115.481 104.231 131.626L104.306 131.61ZM106.075 130.819C107.393 127.005 108.054 122.971 108.024 118.912C108.024 118.501 106.735 118.011 124.009 125.237C117.051 127.499 106.165 130.788 106 130.835L106.075 130.819Z" fill="#0D128A"/>
<path d="M56.5181 108.033C56.5181 110.342 57.4477 114.848 60.4317 114.485C62.7708 114.2 63.8204 111.322 64.2103 108.998C64.5701 111.291 65.7097 113.979 67.9739 113.742C70.9728 113.362 71.8725 108.84 71.9475 106.326C71.8725 104.049 70.9878 99.2574 67.854 99.9057C65.6498 100.364 64.5851 103.068 64.2253 105.393C63.8354 103.037 62.7258 100.19 60.3117 100.649C57.4627 101.234 56.5181 105.519 56.5181 108.033ZM68.1838 102.119C69.9232 102.768 70.2681 105.646 70.3131 107.243C70.3581 108.84 69.7583 112.54 67.5691 111.291C66.8337 110.816 66.2977 110.064 66.0696 109.188C66.8643 110.089 68.6937 109.188 68.7986 106.389C68.6937 103.321 66.3245 103.701 65.6498 106.199C65.7097 104.729 66.2046 101.392 68.1838 102.119ZM60.6866 102.926C62.4259 103.558 62.7558 106.436 62.8008 108.033C62.8458 109.63 62.201 113.33 60.0718 112.097C57.2228 110.484 57.6577 101.819 60.6416 102.926H60.6866Z" fill="#0D128A"/>
<path d="M60.2666 110.31C61.4662 110.057 62.006 108.476 62.0509 107.148C62.0509 106.247 61.6461 104.697 60.5515 104.982C59.4569 105.266 58.812 106.958 58.827 108.144C58.7521 109.061 59.157 110.548 60.2666 110.31Z" fill="#0D128A"/>
<path d="M64.1952 124.383C60.2516 125.016 60.0717 120.984 55.2884 116.746C53.2492 114.943 49.8154 112.904 47.1164 114.342C43.0079 116.556 45.3769 122.929 47.0263 125.965C48.6261 129.121 50.9535 131.803 53.7941 133.762C56.6345 135.721 59.8968 136.896 63.2804 137.176C68.9634 137.46 77.4504 134.535 78.8449 127.783C80.3743 120.351 67.569 123.624 64.1952 124.383ZM54.8536 131.199C52.1989 129.567 50.1001 127.094 48.8557 124.13C49.7751 124.01 50.7085 124.116 51.5827 124.439C52.4567 124.763 53.2478 125.296 53.8939 125.996C54.3767 126.75 54.7105 127.601 54.8754 128.495C55.0402 129.388 55.0329 130.308 54.8536 131.199Z" fill="#0D128A"/>
<path d="M53.8489 96.1266C54.3287 96.2057 54.8385 95.5099 54.9585 95.0988C55.1276 94.52 55.4674 94.0133 55.9287 93.6519C56.3897 93.2906 56.9481 93.0938 57.5226 93.0906C58.6772 93.0906 59.127 90.861 58.3023 90.8927C57.2065 90.9725 56.1603 91.405 55.305 92.1316C54.4496 92.8582 53.8263 93.8441 53.519 94.9565C53.4141 95.3518 53.3091 96.0317 53.8489 96.1266Z" fill="#0D128A"/>
</svg>
