<svg width="285" height="240" viewBox="0 0 285 240" fill="none" xmlns="http://www.w3.org/2000/svg">
<path d="M184.077 12.728C182.367 11.716 180.418 11.1467 178.739 10.1189C178.307 9.80092 177.928 9.41115 177.614 8.9646C175.693 6.57075 173.515 4.42152 171.122 2.56055C171.715 3.67707 172.404 4.73539 173.176 5.72304C173.641 6.33973 172.606 8.23723 171.916 7.66798C171.226 7.09872 170.687 6.70341 170.042 6.24485C169.318 5.62484 168.494 5.1432 167.613 4.82173C168.417 6.33388 169.366 7.754 170.447 9.05948C170.927 9.66035 169.877 11.5262 169.172 10.9886C167.85 9.97455 166.467 9.05031 165.034 8.22142C166.488 10.2832 168.136 12.185 169.952 13.8981C170.462 14.4041 169.622 15.8114 169.052 15.8747C167.673 16.017 166.263 16.1751 164.884 16.4439C169.892 19.0688 174.96 17.4401 177.044 18.3888C182.627 21.0721 187.568 25.044 191.499 30.011C196.387 36.2253 197.917 44.2422 193.718 51.2788C192.609 53.1302 191.318 54.8529 189.865 56.4178C191.09 59.5237 191.936 62.7806 192.384 66.1109C197.361 62.0199 200.857 56.2554 202.295 49.7766C204.799 37.1424 198.921 21.4564 184.077 12.728Z" fill="#FF3E74"/>
<path d="M190.944 68.372C190.12 60.5773 187.02 53.2453 182.072 47.39C177.124 41.5345 170.573 37.4452 163.324 35.6876C156.257 33.9527 148.853 34.5936 142.148 37.5206C135.444 40.4477 129.776 45.5138 125.941 52.009C122.104 58.5041 120.292 66.1024 120.758 73.7386C121.223 81.3746 123.943 88.6657 128.537 94.5891C133.083 100.514 139.221 104.854 146.144 107.041C153.068 109.227 160.456 109.159 167.343 106.844C174.843 104.223 181.27 98.9818 185.561 91.9863C189.853 84.9909 191.751 76.6601 190.944 68.372ZM150.549 60.3551C149.304 73.9222 135.045 75.2188 131.206 65.4941C130.966 64.8933 131.536 64.1026 131.971 63.8022C137.869 59.6402 144.329 56.4417 151.134 54.3147C157.418 52.2903 163.926 51.142 170.492 50.8992C170.822 50.8992 170.927 51.1522 170.912 51.4843C170.897 51.8164 170.912 52.2275 171.002 52.4805H180.298C181.273 52.4805 180.403 54.6784 179.518 54.6784H171.031C170.027 65.2095 160.235 70.8388 150.549 60.3551Z" fill="#FF3E74"/>
<path d="M163.534 110.006C172.324 107.835 180.088 102.426 185.431 94.7511C190.772 87.0773 193.339 77.6439 192.669 68.1506C197.836 63.8207 201.623 57.928 203.525 51.2629C207.063 37.6484 201.305 20.3179 185.531 10.862C183.732 9.78679 180.298 8.66411 179.338 7.5098C178.578 6.60326 177.798 5.71776 176.999 4.8533C175.5 3.27205 173.595 0.852743 171.466 0.109559C169.832 -0.428065 168.782 1.10574 169.067 2.68699C168.656 2.3913 168.17 2.23301 167.673 2.23301C167.175 2.23301 166.689 2.3913 166.278 2.68699C165.899 3.0978 165.65 3.62419 165.569 4.1917C165.488 4.75921 165.579 5.33921 165.828 5.84948C164.419 5.2328 163.144 5.18536 162.619 6.67173C162.005 8.45855 163.864 10.4193 164.854 11.621C165.543 12.4591 166.353 13.2023 167.028 14.0878C166.488 14.0878 165.933 14.2459 165.393 14.3566C164.224 14.5622 162.604 14.7677 162.2 16.175C161.795 17.5823 163.699 18.5311 164.809 18.9896C166.978 19.8495 169.283 20.2679 171.601 20.223C173.297 19.9849 175.023 20.1912 176.624 20.8239C178.97 22.1151 181.22 23.5898 183.357 25.2356C194.633 33.9166 199.221 44.6849 189.355 55.1053C187.311 50.393 184.384 46.1653 180.751 42.6762C177.118 39.1872 172.852 36.5088 168.212 34.8021C161.002 32.2737 153.231 32.1304 145.941 34.3915C138.651 36.6525 132.192 41.2096 127.427 47.4521C122.699 53.702 119.871 61.3112 119.311 69.2844C118.753 77.2575 120.488 85.2225 124.293 92.1381C128.259 99.0505 134.17 104.487 141.204 107.69C148.238 110.892 156.043 111.702 163.534 110.006ZM125.853 52.18C129.251 46.5097 134.038 41.913 139.709 38.8757C145.38 35.8386 151.724 34.4738 158.07 34.9258C164.416 35.3778 170.529 37.6297 175.761 41.4435C180.994 45.2573 185.152 50.4911 187.795 56.5917C189.893 61.266 191.024 66.3573 191.114 71.5277C191.202 76.6979 190.248 81.8292 188.314 86.5816C186.38 91.3333 183.51 95.5971 179.895 99.0908C176.28 102.584 172 105.227 167.343 106.844C160.462 109.165 153.077 109.244 146.154 107.069C139.231 104.893 133.091 100.566 128.537 94.6523C124.023 88.7123 121.346 81.456 120.866 73.861C120.386 66.2662 122.127 58.699 125.853 52.18ZM193.763 51.2787C197.962 44.2263 196.432 36.2252 191.544 30.0109C187.594 25.0363 182.634 21.0639 177.029 18.3888C175.005 17.4717 169.802 19.0213 164.869 16.4438C166.248 16.175 167.658 16.0169 169.037 15.8746C169.607 15.8746 170.447 14.404 169.937 13.898C168.13 12.18 166.488 10.2787 165.034 8.22136C166.449 9.05642 167.817 9.9805 169.127 10.9885C169.832 11.5262 170.881 9.66029 170.402 9.05942C169.316 7.75805 168.365 6.3373 167.568 4.82167C168.448 5.14741 169.27 5.62874 169.997 6.24479C170.642 6.70335 171.256 7.16192 171.871 7.66792C172.486 8.17392 173.595 6.33967 173.131 5.72298C172.358 4.73534 171.67 3.67701 171.076 2.56049C173.473 4.41735 175.653 6.56705 177.569 8.96454C177.882 9.41109 178.262 9.80087 178.694 10.1189C180.373 11.1309 182.322 11.7001 184.032 12.7279C198.801 21.409 204.754 37.0949 202.295 49.7765C200.857 56.2554 197.36 62.0198 192.384 66.1108C191.935 62.7805 191.09 59.5236 189.865 56.4177C191.333 54.8552 192.64 53.1324 193.763 51.2787Z" fill="#0D128A"/>
<path d="M144.656 70.649C146.366 69.5771 147.798 68.0766 148.826 66.281C149.855 64.4853 150.446 62.4498 150.549 60.3551C157.551 67.9451 164.569 67.1544 168.348 61.9363C169.868 59.823 170.798 57.3036 171.032 54.6626H179.594C180.478 54.6626 181.348 52.4647 180.373 52.4647H171.032C171.032 52.1484 171.032 51.8164 170.942 51.5001C170.852 51.1839 170.942 50.8834 170.522 50.8834C160.402 51.2919 150.456 53.7956 141.252 58.252C138.05 59.8445 134.972 61.7003 132.046 63.8022C131.611 64.1026 131.041 64.8933 131.281 65.4941C131.784 66.8061 132.543 67.992 133.508 68.9756C134.473 69.9591 135.623 70.7183 136.883 71.204C138.143 71.6898 139.487 71.8914 140.826 71.7959C142.165 71.7002 143.469 71.3095 144.656 70.649ZM169.052 57.0345C168.935 57.5734 168.781 58.102 168.587 58.6157L160.805 54.0617L163.279 53.6506L169.052 57.0345ZM167.553 60.6872C166.985 61.5042 166.272 62.1969 165.454 62.727L153.458 55.722C154.762 55.3742 156.067 55.0421 157.387 54.7575L167.553 60.6872ZM148.69 62.6795C148.571 63.2159 148.421 63.744 148.24 64.2608L141.342 60.2602L143.112 59.438L148.69 62.6795ZM147.19 66.348C146.632 67.1731 145.923 67.872 145.106 68.4036L136.109 63.1381C137.039 62.5688 137.984 62.0418 138.943 61.5568L147.19 66.348Z" fill="#0D128A"/>
<path d="M131.596 56.908C132.106 57.0187 132.555 56.2597 132.705 55.8802C133.455 53.9669 134.94 51.7847 137.084 51.5317C137.923 51.4369 138.583 49.2547 137.459 49.397C134.46 49.7291 132.315 53.0972 131.266 55.722C131.116 56.149 131.101 56.7815 131.596 56.908Z" fill="#0D128A"/>
<path d="M164.449 43.7204C162.289 42.1391 159.246 40.9216 156.682 42.2182C155.902 42.6135 155.512 44.8114 156.682 44.1948C158.616 43.2144 161.495 44.4952 163.264 45.776C164.059 46.3453 165.213 44.3054 164.449 43.7204Z" fill="#0D128A"/>
<path d="M160.82 68.3404C158.046 71.329 153.203 74.6654 149.154 72.1038C148.36 71.6136 147.22 73.685 148.03 74.1752C152.528 76.974 158.121 73.3846 161.27 70.0007C161.93 69.2892 161.855 67.2177 160.82 68.3404Z" fill="#0D128A"/>
<path d="M137.009 84.8328C135.673 85.1127 134.471 85.8757 133.612 86.9897C132.752 88.1044 132.288 89.4999 132.3 90.9364C132.284 91.6401 132.407 92.339 132.662 92.9889C132.917 93.6396 133.299 94.2262 133.782 94.7117C134.265 95.1971 134.839 95.5703 135.466 95.8083C136.095 96.0455 136.763 96.1419 137.428 96.0913C138.752 95.8399 139.953 95.1141 140.827 94.0365C141.702 92.9589 142.196 91.5958 142.227 90.1775C142.269 89.4509 142.161 88.7227 141.911 88.0436C141.661 87.3644 141.275 86.7501 140.78 86.2425C140.285 85.7357 139.691 85.3467 139.04 85.1032C138.39 84.8605 137.696 84.768 137.009 84.8328ZM134.01 89.9719C134.031 89.5149 134.145 89.0682 134.346 88.6618C134.547 88.2562 134.829 87.9013 135.173 87.6222C135.517 87.3423 135.913 87.1446 136.337 87.0426C136.76 86.9406 137.199 86.9367 137.623 87.0308C138.468 87.23 139.223 87.7249 139.767 88.4333C140.311 89.1425 140.613 90.0241 140.622 90.9364C140.382 95.6486 133.845 94.1938 133.935 89.9719H134.01Z" fill="#0D128A"/>
<path d="M129.467 77.9385C128.553 78.1495 127.737 78.6865 127.155 79.4581C126.573 80.2306 126.261 81.1904 126.273 82.1763C126.255 82.6246 126.327 83.0713 126.485 83.4879C126.642 83.9038 126.882 84.2801 127.189 84.5908C127.495 84.9024 127.861 85.1411 128.261 85.2913C128.661 85.4423 129.088 85.5016 129.512 85.4653C130.41 85.2834 131.225 84.7861 131.821 84.054C132.418 83.3219 132.761 82.3977 132.795 81.4331C132.846 80.9595 132.795 80.4804 132.645 80.0313C132.495 79.5822 132.251 79.1743 131.931 78.8383C131.611 78.5023 131.223 78.247 130.797 78.0911C130.37 77.9354 129.915 77.8832 129.467 77.9385ZM127.967 81.2275C127.967 79.504 131.116 79.6463 131.236 82.1763C131.071 84.3268 127.847 83.125 127.907 81.2275H127.967Z" fill="#0D128A"/>
<path d="M209.852 84.5164C197.485 83.8871 185.243 87.3627 174.848 94.4538C164.45 101.545 156.425 111.895 151.898 124.048C153.816 123.004 155.875 122.278 158.001 121.897C163.185 112.029 170.697 103.739 179.809 97.8305C188.923 91.9214 199.328 88.5937 210.017 88.1691L210.257 84.4374C210.13 84.4967 209.992 84.5243 209.852 84.5164Z" fill="#FF3E74"/>
<path d="M166.668 124.048C168.328 125.354 169.754 126.96 170.881 128.791C180.28 116.01 193.82 107.334 208.908 104.424L209.313 98.0994H209.193C200.77 99.0204 192.628 101.808 185.3 106.281C177.972 110.752 171.622 116.807 166.668 124.048Z" fill="white"/>
<path d="M209.807 90.2406C209.706 90.3007 209.593 90.3386 209.478 90.3513C199.325 90.6462 189.416 93.6917 180.703 99.1944C171.99 104.697 164.765 112.472 159.726 121.771C161.727 121.704 163.71 122.218 165.454 123.257C170.528 115.67 177.076 109.308 184.66 104.594C192.246 99.8807 200.695 96.9229 209.448 95.9173L209.807 90.2406Z" fill="#6CECC4"/>
<path d="M234.548 170.821L230.05 173.177V213.183C230.042 213.48 229.964 213.771 229.824 214.027C229.683 214.285 229.482 214.5 229.24 214.653C224.628 217.302 220.248 220.377 216.15 223.84C215.565 224.394 214.066 225.421 214.92 226.085C215.783 226.463 216.727 226.584 217.649 226.433C221.885 225.926 226.054 224.923 230.08 223.445C232.059 222.781 236.543 222.037 236.678 219.428C236.782 219.255 236.887 221.958 234.548 170.821Z" fill="white"/>
<path d="M259.8 218.891C253.097 214.337 252.962 214.922 252.962 214.147C252.962 214.147 252.962 185.147 252.962 173.857L248.284 174.347C246.319 217.341 246.304 213.135 246.274 218.211C246.274 220.266 247.399 221.231 249.123 221.879C253.277 223.461 262.948 226.86 267.357 226.402L268.241 226.196V226.085C265.817 223.22 262.965 220.79 259.8 218.891Z" fill="white"/>
<path d="M272.994 112.852C266.601 112.063 260.12 112.886 254.086 115.256C253.816 115.351 253.651 115.256 253.576 115.082C253.097 114.528 254.386 112.267 254.131 103.396C253.966 97.9254 253.157 91.8218 249.858 87.3785C248.357 85.4746 246.387 84.0444 244.164 83.2467C241.942 82.4481 239.554 82.3137 237.262 82.8561C236.004 83.2396 234.833 83.8894 233.821 84.7647C232.807 85.6399 231.974 86.7223 231.369 87.9477C227.381 95.1582 227.981 104.772 228.805 112.71C228.805 113.232 228.251 114.449 227.606 114.291C224.259 113.418 220.839 112.889 217.395 112.71C212.806 112.457 207.048 112.584 203.33 115.873C199.611 119.162 201.35 123.779 204.379 126.941C209.477 132.349 216.81 135.986 223.527 138.642C224.112 138.88 223.602 140.034 223.377 140.224C221.717 142.199 220.212 144.314 218.879 146.549C214.89 153.253 210.317 164.939 218.384 170.599C221.578 172.845 225.402 171.928 228.431 169.872C232.929 166.71 236.048 161.365 237.787 155.926C237.922 155.514 238.762 154.344 239.197 155.087C241.549 158.639 244.221 161.942 247.174 164.954C249.607 167.57 252.486 169.678 255.661 171.169C259.304 172.75 264.388 172.75 265.917 168.117C267.446 163.484 266.067 158.06 264.672 153.712C263.119 148.639 260.745 143.889 257.655 139.67C257.22 139.085 257.925 137.757 258.555 137.694C260.993 137.357 263.404 136.829 265.767 136.112C270.018 135.034 274.05 133.159 277.673 130.578C286.385 124.079 285.335 114.75 272.994 112.852ZM236.288 122.656C233.544 123.051 232.689 118.924 232.674 116.821C232.659 114.718 233.559 110.639 236.138 110.038C239.017 109.358 239.856 113.785 239.916 115.857C239.841 118.118 239.047 122.198 236.288 122.656ZM244.97 123.067C242.226 123.463 241.356 119.32 241.356 117.217C241.356 115.114 242.241 111.034 244.82 110.433C247.699 109.753 248.538 114.181 248.598 116.252C248.523 118.529 247.714 122.656 244.97 123.004V123.067Z" fill="#6CECC4"/>
<path d="M189.655 203.489C189.256 201.193 189.035 198.866 188.995 196.532C187.385 196.091 185.818 195.487 184.317 194.729C181.318 198.983 181.318 198.841 180.943 199.362C181.396 203.899 182.285 208.377 183.597 212.724C183.897 213.736 184.751 217.563 186.011 218.432C186.092 217.031 186.022 215.626 185.801 214.242C185.711 213.546 186.986 211.918 187.406 213.056C187.825 214.195 188.44 216.614 189.37 217.404C189.52 217.8 189.58 217.8 189.565 217.404C189.527 216.114 189.392 214.83 189.16 213.562C189.04 212.787 190.314 210.921 190.659 212.139C191.157 213.608 191.974 214.935 193.043 216.013C193.238 213.183 191.034 211.427 189.655 203.489Z" fill="white"/>
<path d="M146.695 207.126C146.695 211.87 146.531 216.472 146.456 221.152L154.523 221.516C154.058 216.487 153.578 211.443 153.023 206.415L146.695 207.126Z" fill="white"/>
<path d="M164.749 204.96C164.209 210.494 163.684 216.029 163.25 221.547L171.377 220.678C171.287 215.286 171.182 209.893 171.092 204.486L164.749 204.96Z" fill="white"/>
<path d="M128.942 199.094C127.853 200 126.573 200.616 125.211 200.892C123.849 201.167 122.444 201.092 121.114 200.675C118.4 199.805 116.271 197.655 113.812 196.311C113.317 196.042 112.403 195.457 112.478 196.311C112.552 197.165 114.382 198.319 114.967 199.078C115.551 199.837 114.487 201.339 113.692 201.007C112.208 200.403 110.646 200.036 109.059 199.916C110.447 201.306 112.09 202.383 113.887 203.078C114.682 203.41 113.677 205.355 112.927 205.213C111.312 204.788 109.659 204.538 107.994 204.47C108.414 204.786 110.468 205.972 110.993 206.225C114.466 208.395 118.334 209.769 122.344 210.257C125.482 210.585 128.626 209.713 131.205 207.8C133.784 205.888 135.625 203.061 136.394 199.837C133.896 200.397 131.296 200.137 128.942 199.094Z" fill="white"/>
<path d="M199.416 164.702C198.471 164.844 198.816 163.452 199.191 163.01C201.545 160.457 203.046 157.165 203.465 153.633C203.475 152.202 203.082 150.801 202.339 149.604C201.593 148.408 200.53 147.472 199.281 146.912C197.272 145.821 193.283 144.161 191.784 146.77C191.484 147.26 190.374 148.019 190.374 146.897C190.394 144.447 189.731 142.044 188.47 139.987C183.972 132.966 174 138.769 173.266 138.864C172.531 138.959 173.071 137.662 170.597 132.713C165.963 123.478 159.216 121.771 151.014 126.546C146.005 129.55 142.152 134.816 144.056 140.524C144.236 141.078 143.366 142.88 142.707 142.279C137.758 137.694 130.006 137.536 126.453 143.56C123.679 148.304 127.847 154.06 131.386 156.922C132.12 157.523 131.101 159.404 130.246 158.993C125.913 156.859 119.99 157.048 117.726 162.156C115.626 166.899 115.866 174.568 122.029 175.312C123.094 175.454 122.029 177.462 121.249 177.494C119.87 177.494 118.251 179.581 117.816 180.814C117.49 181.627 117.322 182.502 117.322 183.384C117.322 184.266 117.49 185.141 117.816 185.953C119.6 189.669 124.233 186.602 126.602 185.226C127.742 184.578 127.427 186.586 126.842 187.045C125.478 188.088 125.658 191.788 126.228 193.29C128.207 198.477 137.549 199.615 141.102 195.299C142.137 194.049 142.287 195.757 143.291 197.022C144.316 198.366 145.478 199.585 146.755 200.659C149.01 202.405 151.741 203.331 154.537 203.3C158.061 203.3 159.201 201.608 161.72 199.078C161.82 198.967 161.949 198.89 162.09 198.856C162.231 198.822 162.38 198.834 162.514 198.888C166.395 201.122 170.907 201.813 175.23 200.833C179.263 199.774 179.998 198.414 180.778 197.228C181.138 196.69 180.778 197.117 183.987 192.753C184.197 192.468 184.616 192.152 184.961 192.342C186.767 193.275 188.668 193.98 190.629 194.445C197.992 196.105 200.346 191.978 198.741 184.467C198.674 184.095 198.735 183.711 198.915 183.384C199.094 183.055 199.377 182.807 199.716 182.68C204.064 181.605 207.873 178.031 207.798 173.082C207.723 168.133 204.289 163.974 199.416 164.702ZM154.582 171.343C150.519 172.038 149.259 165.619 149.259 162.614C149.259 159.325 150.459 153.585 154.252 152.937C158.346 152.21 159.501 158.661 159.576 161.65C159.501 164.939 158.421 170.679 154.537 171.343H154.582ZM166.278 172.133C162.215 172.829 160.97 166.409 160.955 163.405C160.955 160.116 162.155 154.392 165.948 153.728C170.042 153.016 171.211 159.468 171.271 162.456C171.196 165.745 170.117 171.469 166.278 172.133Z" fill="white"/>
<path d="M210.287 77.733C198.262 77.0678 186.294 79.904 175.693 85.931C165.094 91.9579 156.271 100.943 150.189 111.904C146.512 118.29 144.01 125.349 142.812 132.713C142.737 133.361 142.647 133.994 142.572 134.626C143.839 130.656 146.449 127.318 149.904 125.249C154.349 112.257 162.599 101.094 173.459 93.3755C184.321 85.6574 197.23 81.7849 210.317 82.3186L210.602 77.6539C210.509 77.7169 210.398 77.7447 210.287 77.733Z" fill="#FFDE26"/>
<path d="M34.116 120.474C25.5991 118.671 15.5528 114.481 11.6242 106.243C6.84091 96.4548 9.8998 82.8087 14.3382 73.0366C14.968 71.6293 15.2829 70.6805 16.7673 70.2536C19.9912 69.3365 23.8298 68.6723 26.4988 66.253C24.7459 66.2138 22.9937 66.3514 21.2657 66.6642C20.471 66.7748 20.5759 65.6996 20.8758 65.2252C21.4756 64.2765 22.0454 63.2961 22.6002 62.2999C23.305 61.0191 24.7894 58.9793 24.7744 57.4455C24.7744 56.9237 24.6994 57.2083 24.2046 57.5562C22.8116 58.7804 21.5269 60.1352 20.366 61.6042C19.4963 62.6794 18.8666 61.6042 19.3614 60.6238C19.8562 59.6434 21.8355 55.0262 20.8608 54.9629C20.1411 54.9629 18.6716 56.9711 18.2518 57.4771C17.8319 57.9831 17.3821 58.5049 16.9772 59.0584C16.3475 59.8806 15.3878 59.3904 15.8377 58.3784C16.3913 57.1898 16.8283 55.9447 17.1422 54.6625C17.3071 53.9035 17.4871 53.4133 16.7073 53.8877C15.9851 54.5061 15.3797 55.2626 14.923 56.1172C13.4235 58.3784 12.3139 60.861 10.9044 63.2329C4.91725 73.4322 1.77346 85.2027 1.83269 97.198C1.66068 101.61 2.64652 105.988 4.68166 109.848C8.94015 117.533 17.2621 122.656 25.5841 125.123L34.116 120.474Z" fill="#FFDE26"/>
<path d="M61.5714 164.433L57.3879 168.67V213.182C57.381 213.478 57.3048 213.766 57.1661 214.024C57.0274 214.28 56.8306 214.496 56.5932 214.653C51.9713 217.298 47.5852 220.379 43.4879 223.856C42.9031 224.409 41.3887 225.437 42.2584 226.101C43.1156 226.478 44.0546 226.598 44.9724 226.449C49.2129 225.942 53.3869 224.939 57.4179 223.461C59.3822 222.796 63.8806 222.053 64.0155 219.444C64.0155 219.254 64.1355 222.006 61.5714 164.433Z" fill="white"/>
<path d="M81.3191 218.891C74.6015 214.337 74.4816 214.922 74.4816 214.147C74.4816 214.147 74.4816 184.103 74.4816 172.291L70.1182 167.848C70.0283 169.841 67.8391 212.582 67.8091 218.211C67.8091 220.266 68.9337 221.231 70.6581 221.879C75.0664 223.54 82.3837 226.038 87.062 226.386C87.9737 226.536 88.9056 226.471 89.7911 226.196C89.7963 226.16 89.7963 226.122 89.7911 226.085C87.3567 223.217 84.495 220.787 81.3191 218.891Z" fill="white"/>
<path d="M37.3398 133.535C35.7492 130.014 34.7352 126.235 34.3409 122.356L13.5884 133.583C39.0792 133.583 36.5301 133.614 37.3398 133.535Z" fill="#FFDE26"/>
<path d="M73.012 81.5437C71.7674 76.8 69.6382 68.7198 67.9438 62.9482C65.2598 68.2612 60.7314 77.7961 59.4419 83.6468C63.8103 82.0987 68.4059 81.3864 73.012 81.5437Z" fill="#FFDE26"/>
<path d="M44.1472 93.7985C47.4495 90.1553 51.3909 87.2236 55.753 85.1648C50.9312 80.5057 45.6476 76.4079 39.9937 72.9418C39.6188 72.7363 38.9591 72.2777 38.2993 71.9298C41.913 85.4653 42.6028 88.0427 44.1472 93.7985Z" fill="#FFDE26"/>
<path d="M47.911 147.403C44.5147 144.585 41.6034 141.172 39.3041 137.314C36.755 142.706 33.3063 150.233 31.0421 155.752C30.8922 156.147 30.7272 156.906 30.4873 157.475C30.4873 157.443 46.9663 147.956 47.911 147.403Z" fill="#FFDE26"/>
<path d="M107.169 111.698C110.873 108.425 118.55 101.626 118.55 101.499C116.031 101.657 121.189 101.135 104.186 102.954C105.516 105.729 106.518 108.665 107.169 111.698Z" fill="#FFDE26"/>
<path d="M18.3267 93.1976C19.8261 94.6682 17.307 91.8378 34.8957 112.173C35.9052 107.347 37.789 102.773 40.4437 98.7004C16.7522 92.8339 18.7165 93.3241 18.3267 93.1976Z" fill="#FFDE26"/>
<path d="M95.8188 145.79C93.0478 148.378 89.9432 150.54 86.5972 152.21C87.8567 153.601 96.5086 163.278 96.9884 163.832C96.8835 162.187 95.9238 147.434 95.8188 145.79Z" fill="#FFDE26"/>
<path d="M88.2913 85.7816C88.2913 84.0896 88.7412 73.432 88.8761 69.7952C88.3513 70.5542 87.6316 71.3764 87.2717 71.914L80.2393 82.5716C83.0417 83.2769 85.7475 84.3553 88.2913 85.7816Z" fill="#FFDE26"/>
<path d="M100.722 97.0085C107.11 82.1447 106.36 83.9316 106.54 83.3623C106.105 83.5679 107.5 82.7614 94.6943 90.304C96.9428 92.2853 98.9663 94.5346 100.722 97.0085Z" fill="#FFDE26"/>
<path d="M53.504 167.152L63.0705 155.072C59.1712 154.12 55.4408 152.518 52.0195 150.328C53.9838 174.094 53.0242 162.788 53.504 167.152Z" fill="#FFDE26"/>
<path d="M105.37 135.67C105.07 135.243 104.666 134.784 104.306 134.31C102.871 137.281 101.071 140.04 98.9526 142.517C101.952 143.339 104.95 144.351 108.054 145.236L113.287 146.818C112.838 146.248 113.587 147.276 105.37 135.67Z" fill="#FFDE26"/>
<path d="M107.934 118.055C108.006 122.195 107.35 126.312 106 130.199C119.195 126.198 91.6502 134.737 123.993 124.68C107.934 117.913 110.468 118.972 107.934 118.055Z" fill="#FFDE26"/>
<path d="M76.2808 169.334C77.1355 166.077 79.6846 156.337 80.1194 154.724C76.4952 155.775 72.7312 156.193 68.9785 155.957C69.7882 157.443 76.2208 169.208 76.2808 169.334Z" fill="#FFDE26"/>
<path d="M104.23 130.989C110.228 115.177 102.461 98.0204 89.7907 89.4501C82.4096 84.6368 73.6317 82.7867 65.063 84.2383C56.4944 85.6907 48.7078 90.3466 43.1277 97.3563C38.2725 103.582 35.6877 111.434 35.8404 119.494C36.6351 140.414 58.5722 159.025 80.689 152.51C85.9116 151.059 90.7489 148.364 94.8296 144.632C98.9112 140.902 102.127 136.234 104.23 130.989ZM60.3115 100.013C62.7706 99.5068 63.8353 102.353 64.2251 104.757C64.585 102.4 65.6496 99.7282 67.8538 99.2696C70.9877 98.6213 71.8723 103.412 71.9473 105.689C71.8723 108.204 70.9877 112.726 67.9738 113.106C65.6496 113.39 64.57 110.702 64.2101 108.362C63.8203 110.781 62.7107 113.564 60.4315 113.849C57.4326 114.212 56.5179 109.706 56.5179 107.397C56.5179 105.089 57.4626 100.598 60.3115 100.013ZM78.8447 127.147C77.4502 133.899 68.9634 136.824 63.2805 136.54C59.8968 136.26 56.6344 135.085 53.794 133.126C50.9534 131.167 48.6261 128.485 47.0263 125.329C45.3769 122.293 43.0078 115.841 47.1163 113.706C49.8153 112.267 53.2491 114.307 55.2883 116.11C60.1016 120.363 60.2366 124.38 64.1951 123.747C67.5689 122.988 80.3741 119.715 78.8447 127.147Z" fill="#FFDE26"/>
<path d="M155.032 230.181C155.032 228.046 154.897 225.927 154.717 223.856L146.41 223.476C146.32 227.287 145.75 230.766 142.857 233.359C141.702 234.403 138.583 236.522 138.973 236.854C139.363 237.186 141.732 236.743 142.437 236.601C147.16 235.668 148.345 233.438 151.149 231.857C152.363 231.161 153.413 230.766 153.998 232.316C154.117 232.616 154.117 232.916 154.207 233.217C154.297 233.517 155.152 235.731 154.942 233.96C155.106 232.708 155.137 231.44 155.032 230.181Z" fill="#FF3E74"/>
<path d="M172.861 231.509C171.272 228.979 171.361 225.722 171.361 222.781L163.024 223.666C162.792 226.595 162.732 229.537 162.845 232.474C162.845 232.996 162.575 235.146 163.594 234.055C163.594 234.055 163.834 232.98 163.879 232.869C164.089 232.284 164.539 231.367 165.154 231.161C167.043 230.529 169.652 233.739 171.152 234.624C172.381 235.375 173.704 235.945 175.08 236.316C176.256 236.642 177.454 236.863 178.664 236.98C176.834 234.925 174.3 233.818 172.861 231.509Z" fill="#FF3E74"/>
<path d="M48.856 123.526C50.1004 126.489 52.1991 128.962 54.8538 130.594C55.0331 129.704 55.0405 128.784 54.8757 127.89C54.7107 126.997 54.377 126.146 53.8941 125.392C53.248 124.691 52.4569 124.158 51.5829 123.834C50.7087 123.512 49.7753 123.406 48.856 123.526Z" fill="#FF3E74"/>
<path d="M284.99 120.047C284.78 115.303 280.807 112.615 276.893 111.398C269.876 109.216 262.048 110.496 255.196 112.837C255.608 109.741 255.788 106.617 255.736 103.491C255.736 97.6724 254.941 91.2051 251.717 86.3033C250.159 84.0373 248.009 82.2995 245.53 81.2994C243.052 80.3001 240.351 80.0826 237.757 80.674C235.042 81.4172 232.682 83.1914 231.13 85.6549C226.121 92.9129 226.151 103.049 226.946 111.746C224.165 111.122 221.343 110.726 218.504 110.56C213.466 110.243 207.588 110.465 203.375 113.722C199.731 116.552 198.217 121.296 200.571 125.55C203.06 130.056 207.918 133.14 212.116 135.591C215.129 137.385 218.249 138.97 221.458 140.334C217.155 145.821 213.301 152.763 212.461 159.784C211.262 170.03 218.819 178.3 228.461 171.975V213.182C226.192 214.542 223.973 215.977 221.803 217.483C218.954 219.46 214.935 221.816 213.361 225.168C211.292 229.517 217.859 228.647 219.989 228.331C223.218 227.711 226.4 226.844 229.51 225.738C231.744 224.994 234.968 224.409 236.723 222.67C238.477 220.931 238.357 218.495 238.222 216.108C238.072 212.803 236.018 168.085 235.823 163.8C236.865 162.016 237.753 160.138 238.477 158.187C241.001 161.797 243.842 165.149 246.964 168.196C246.664 174.9 244.595 216.124 244.625 219.492C244.625 223.967 249.708 224.71 252.932 225.817C257.025 227.177 261.494 228.758 265.827 228.726C267.686 228.726 270.505 227.967 269.966 225.342C269.501 223.113 266.727 221.263 265.137 220.029C262.567 218.043 259.9 216.201 257.145 214.511C256.575 214.147 255.961 213.657 255.346 213.309C255.046 213.135 254.581 213.309 254.581 212.091C254.581 209.957 254.581 202.019 254.581 173.493C260.069 175.77 264.403 173.92 266.442 170.331C268.841 166.156 268.241 160.669 267.222 156.099C265.884 150.192 263.503 144.602 260.204 139.623C266.77 138.723 273.032 136.155 278.452 132.144C281.991 129.345 285.2 124.901 284.99 120.047ZM236.768 219.428C236.633 222.037 232.149 222.781 230.17 223.445C226.144 224.922 221.975 225.923 217.739 226.433C216.817 226.584 215.873 226.463 215.01 226.085C214.156 225.39 215.655 224.394 216.24 223.84C220.338 220.377 224.718 217.302 229.33 214.653C229.572 214.5 229.773 214.285 229.914 214.027C230.054 213.771 230.132 213.48 230.14 213.182C230.14 199.848 230.14 186.512 230.14 173.177L234.638 170.821C236.918 222.575 236.783 219.254 236.768 219.428ZM259.799 218.891C262.965 220.79 265.817 223.22 268.241 226.085V226.196C267.355 226.47 266.424 226.535 265.512 226.386C260.804 226.038 253.517 223.54 249.123 221.879C247.399 221.231 246.259 220.298 246.274 218.211C246.274 212.977 246.169 220.488 248.283 174.347L252.962 173.857V214.147C252.962 214.922 253.022 214.368 259.799 218.891ZM277.688 130.705C274.065 133.285 270.033 135.161 265.782 136.239C263.419 136.955 261.008 137.483 258.57 137.82C257.925 137.82 257.235 139.212 257.67 139.797C260.76 144.016 263.134 148.766 264.687 153.838C266.082 158.187 267.446 163.721 265.932 168.243C264.418 172.766 259.319 172.877 255.676 171.295C253.121 170.128 250.765 168.526 248.703 166.552C245.136 163.169 241.951 159.365 239.212 155.214C238.777 154.534 237.937 155.641 237.802 156.052C236.295 161.308 233.316 165.96 229.255 169.398C226.031 171.959 221.758 173.114 218.399 170.726C210.332 165.065 214.905 153.332 218.894 146.675C220.227 144.441 221.733 142.325 223.392 140.35C223.617 140.081 224.127 138.927 223.542 138.769C216.825 136.113 209.492 132.444 204.394 127.068C201.395 123.905 199.461 119.446 203.345 115.999C207.228 112.552 212.821 112.599 217.41 112.837C220.854 113.015 224.274 113.544 227.621 114.418C228.266 114.592 228.88 113.374 228.82 112.837C227.996 104.93 227.321 95.2847 231.385 88.0743C231.989 86.8488 232.822 85.7656 233.836 84.8904C234.848 84.0152 236.019 83.3661 237.277 82.9826C239.569 82.4403 241.957 82.5747 244.179 83.3732C246.402 84.171 248.372 85.6012 249.873 87.505C253.172 91.9483 253.981 98.0519 254.146 103.523C254.401 112.315 253.127 114.671 253.591 115.208C253.666 115.398 253.831 115.477 254.101 115.382C260.12 112.973 266.596 112.105 272.994 112.852C285.275 114.75 286.49 124.048 277.688 130.705Z" fill="#0D128A"/>
<path d="M244.82 110.37C242.241 110.971 241.356 114.829 241.356 117.153C241.356 119.478 242.226 123.478 244.97 123.004C247.714 122.53 248.523 118.529 248.598 116.189C248.523 114.117 247.699 109.69 244.82 110.37ZM244.535 120.553C242.121 118.972 242.66 111.066 245.419 112.789C246.694 113.611 246.919 115.778 246.919 117.153C246.919 118.529 246.439 121.786 244.505 120.553H244.535Z" fill="#0D128A"/>
<path d="M244.97 114.623C243.845 114.924 243.305 116.474 243.305 117.565C243.305 118.403 243.695 119.794 244.805 119.573C245.914 119.351 246.484 117.818 246.514 116.616C246.409 115.778 246.004 114.323 244.97 114.623Z" fill="#0D128A"/>
<path d="M236.288 122.656C239.047 122.261 239.842 118.181 239.917 115.857C239.917 113.785 239.017 109.358 236.138 110.038C233.559 110.639 232.674 114.481 232.674 116.821C232.674 119.162 233.544 122.988 236.288 122.656ZM236.753 112.457C238.012 113.264 238.252 115.446 238.252 116.821C238.252 118.197 237.727 121.454 235.823 120.221C233.439 118.608 234.009 110.607 236.753 112.394V112.457Z" fill="#0D128A"/>
<path d="M238.132 116.047C238.027 115.066 237.293 113.864 236.303 114.307C235.787 114.633 235.387 115.128 235.162 115.715C234.937 116.304 234.901 116.953 235.058 117.565C235.613 120.348 238.507 119.272 238.132 116.047Z" fill="#0D128A"/>
<path d="M233.064 108.061C233.308 107.963 233.524 107.799 233.691 107.585C233.856 107.372 233.965 107.116 234.009 106.844C234.154 106.341 234.47 105.912 234.896 105.639C235.321 105.364 235.827 105.265 236.318 105.357C237.202 105.357 238.102 103.27 237.097 103.175C233.304 102.717 231.385 108.425 233.064 108.061Z" fill="#0D128A"/>
<path d="M244.97 102.385C244.085 102.306 243.185 104.488 244.19 104.567C245.117 104.649 245.997 105.032 246.708 105.664C247.42 106.296 247.928 107.144 248.164 108.093C248.299 108.646 248.853 108.488 249.168 108.219C249.386 108.031 249.552 107.785 249.653 107.509C249.752 107.231 249.782 106.932 249.738 106.638C249.452 105.5 248.84 104.481 247.988 103.721C247.135 102.96 246.082 102.494 244.97 102.385Z" fill="#0D128A"/>
<path d="M246.949 125.819C245.647 127.071 244.769 128.736 244.445 130.562C242.755 131.155 240.951 131.298 239.197 130.974C238.94 128.863 238.147 126.862 236.902 125.186C236.288 124.348 234.953 126.261 235.493 126.989C236.496 128.284 237.18 129.821 237.486 131.462C237.792 133.102 237.711 134.797 237.247 136.397C236.783 137.979 238.327 137.725 238.747 136.54C239.072 135.469 239.269 134.357 239.332 133.235C241.012 133.497 242.729 133.29 244.31 132.634C244.301 134.305 244.508 135.97 244.925 137.583C245.194 138.738 246.694 137.03 246.424 136.16C245.749 133.314 245.119 129.835 247.399 127.495C248.088 126.72 248.028 124.68 246.949 125.819Z" fill="#0D128A"/>
<path d="M209.853 84.5166C210.737 84.5166 211.622 82.3819 210.632 82.3345C197.494 81.7273 184.516 85.5642 173.591 93.2838C162.666 101.004 154.367 112.204 149.904 125.249C146.45 127.318 143.839 130.656 142.572 134.626C142.572 133.994 142.737 133.361 142.812 132.713C144.01 125.349 146.512 118.29 150.189 111.904C156.266 100.939 165.089 91.9508 175.69 85.9239C186.292 79.8962 198.26 77.0624 210.287 77.733C211.157 77.733 212.042 75.5983 211.067 75.5509C174.6 73.6692 144.236 102.59 140.593 137.963C137.932 136.62 134.89 136.377 132.067 137.281C129.245 138.186 126.846 140.172 125.343 142.849C122.869 147.213 124.279 151.941 127.038 155.609C124.56 155.195 122.024 155.758 119.915 157.191C114.652 161.081 111.938 173.145 119.105 176.751C117.891 177.812 116.957 179.186 116.394 180.74C115.832 182.295 115.66 183.977 115.897 185.621C115.939 186.716 116.364 187.753 117.089 188.536C117.815 189.318 118.79 189.79 119.825 189.859C121.571 189.76 123.269 189.217 124.773 188.278C124.377 189.731 124.235 191.246 124.353 192.753C124.454 193.822 124.775 194.856 125.293 195.781C125.81 196.708 126.513 197.503 127.352 198.113C125.813 198.877 124.074 199.067 122.419 198.651C119.615 197.924 117.441 195.615 114.922 194.239C113.228 193.306 111.488 193.275 110.813 195.488C110.676 195.874 110.619 196.287 110.645 196.7C110.671 197.111 110.779 197.512 110.963 197.876C110.08 197.732 109.187 197.669 108.294 197.686C107.215 197.686 106.285 199.9 107.949 202.003C107.337 201.864 106.697 201.948 106.135 202.24C105.832 202.414 105.576 202.664 105.387 202.968C105.198 203.271 105.084 203.619 105.054 203.981C105.025 204.343 105.08 204.707 105.217 205.041C105.353 205.374 105.565 205.667 105.835 205.893C106.967 206.764 108.183 207.506 109.464 208.107C113.123 210.436 117.214 211.908 121.46 212.424C125.231 212.703 128.97 211.532 131.986 209.128C135.002 206.723 137.09 203.249 137.864 199.347C139.019 198.956 140.096 198.346 141.042 197.544C141.515 198.355 142.084 199.1 142.737 199.758C143.496 200.669 144.317 201.521 145.196 202.304C144.761 227.271 144.926 227.192 144.221 229.106C142.962 232.505 138.553 233.486 137.279 236.553C135.36 241.155 145.061 237.803 146.485 237.044C148.117 236.006 149.699 234.882 151.224 233.676C152.033 233.217 152.213 233.138 152.588 234.023C152.963 234.909 152.708 235.826 153.458 236.506C153.704 236.748 154.017 236.901 154.352 236.944C154.685 236.987 155.023 236.917 155.317 236.743C156.982 235.826 156.622 232.964 156.667 231.367C156.817 225.769 156.322 221.706 154.747 205.482C157.866 205.229 159.441 203.584 161.78 201.228C162.335 201.529 162.92 201.798 163.504 202.051C161.63 221.563 161.195 225.469 161.15 229.39C160.97 231.527 161.045 233.679 161.375 235.794C161.795 237.471 163.759 237.376 164.704 235.32C164.903 234.678 165.062 234.023 165.184 233.359C166.998 233.944 168.348 235.636 169.967 236.632C171.69 237.668 173.573 238.375 175.53 238.72C176.775 238.941 178.814 239.384 180.028 238.53C180.426 238.244 180.711 237.814 180.829 237.322C180.948 236.83 180.892 236.31 180.673 235.858C180.637 235.719 180.565 235.592 180.463 235.494C178.964 233.533 176.64 232.474 175.035 230.576C172.876 228.031 173.146 224.346 173.101 221.168L172.786 203.442C175.19 203.213 177.497 202.337 179.489 200.896C180.01 205.882 181.051 210.793 182.592 215.539C183.027 216.835 184.257 221.785 186.356 220.694C186.696 220.475 186.987 220.181 187.208 219.832C187.427 219.481 187.572 219.085 187.631 218.67C188.305 219.855 189.13 220.63 190.12 219.919C190.502 219.61 190.815 219.217 191.036 218.766C191.256 218.315 191.379 217.817 191.394 217.31C191.846 217.862 192.348 218.364 192.894 218.812C193.299 219.144 193.883 218.417 194.048 218.132C196.208 214.305 193.314 209.988 192.279 206.241C191.444 203.195 190.941 200.061 190.779 196.896C198.562 198.192 201.845 192.579 200.661 184.515C203.032 183.754 205.137 182.272 206.714 180.256C208.29 178.239 209.268 175.777 209.523 173.177C209.823 167.659 206.674 162.646 201.516 162.472C203.81 159.215 205.669 155.04 205.144 151.119C204.41 145.632 196.387 140.967 192.069 144.493C191.885 142.072 191.081 139.751 189.745 137.773C185.981 132.539 179.249 134.278 174.315 136.508C173.734 134.253 172.882 132.085 171.781 130.056C180.912 117.631 194.096 109.227 208.773 106.48C209.598 106.338 210.272 104.124 209.163 104.345C194.026 107.229 180.433 115.914 171.002 128.728C169.874 126.897 168.448 125.291 166.788 123.984C171.744 116.709 178.108 110.627 185.459 106.14C192.811 101.653 200.982 98.864 209.433 97.9572C210.212 97.6725 210.812 95.7118 209.688 95.8383C200.913 96.8266 192.438 99.778 184.831 104.496C177.223 109.212 170.658 115.587 165.574 123.194C163.833 122.147 161.849 121.633 159.846 121.707C164.885 112.409 172.11 104.634 180.823 99.1312C189.536 93.6285 199.445 90.583 209.598 90.2881C210.482 90.2881 211.337 88.0744 210.377 88.0902C199.643 88.4823 189.189 91.7998 180.03 97.7192C170.873 103.638 163.324 111.957 158.121 121.866C155.995 122.247 153.936 122.972 152.018 124.016C156.544 111.89 164.552 101.562 174.924 94.4784C185.296 87.3952 197.509 83.9118 209.853 84.5166ZM122.269 210.305C117.201 209.909 112.643 207.364 108.309 204.739L107.994 204.517C109.659 204.584 111.312 204.834 112.928 205.261C113.677 205.403 114.682 203.458 113.887 203.126C112.928 202.764 112.013 202.286 111.158 201.703C110.393 201.224 109.687 200.645 109.059 199.979C110.646 200.099 112.208 200.466 113.692 201.07C114.487 201.402 115.492 199.821 114.967 199.141C114.442 198.461 112.553 197.275 112.553 196.374C112.553 195.473 113.392 196.105 113.887 196.374C116.361 197.734 118.476 199.868 121.19 200.738C122.519 201.156 123.924 201.23 125.286 200.955C126.648 200.68 127.928 200.063 129.017 199.157C131.343 200.201 133.916 200.477 136.394 199.948C135.609 203.173 133.751 205.994 131.158 207.895C128.565 209.797 125.41 210.653 122.269 210.305ZM155.032 230.181C155.13 231.41 155.1 232.645 154.942 233.865C155.167 235.684 154.193 233.533 154.208 233.122C154.223 232.711 154.118 232.521 153.998 232.221C153.413 230.64 152.363 231.066 151.149 231.762C148.345 233.343 147.16 235.62 142.437 236.506C141.732 236.648 139.573 237.249 138.973 236.759C138.373 236.269 141.702 234.308 142.857 233.264C145.751 230.671 146.321 227.192 146.411 223.382L154.718 223.761C154.897 225.864 155.032 227.983 155.032 230.181ZM146.455 221.215C146.455 216.472 146.62 211.87 146.695 207.19L153.038 206.462C153.537 211.491 154.038 216.524 154.538 221.563L146.455 221.215ZM164.749 205.023L171.017 204.549C171.107 209.957 171.212 215.349 171.302 220.741L163.174 221.611C163.684 215.95 164.209 210.494 164.749 204.96V205.023ZM172.861 231.572C174.36 233.881 176.835 235.004 178.589 236.98C177.379 236.863 176.181 236.642 175.005 236.316C173.629 235.945 172.306 235.375 171.077 234.624C169.577 233.739 167.013 230.529 165.079 231.161C164.464 231.367 164.014 232.284 163.804 232.869C163.804 232.98 163.594 233.976 163.519 234.055C162.5 235.209 162.8 233.059 162.77 232.474C162.657 229.537 162.717 226.595 162.95 223.666L171.287 222.781C171.361 225.722 171.272 228.979 172.861 231.509V231.572ZM191.319 210.115C191.859 211.696 193.209 214.116 193.119 216.076C192.049 214.998 191.232 213.671 190.734 212.202C190.315 210.985 189.04 212.851 189.235 213.625C189.473 214.892 189.608 216.177 189.64 217.468C189.64 217.863 189.64 217.863 189.445 217.468C188.515 216.677 187.945 214.305 187.481 213.119C187.016 211.933 185.786 213.61 185.876 214.305C186.097 215.689 186.167 217.095 186.086 218.496C184.827 217.626 183.972 213.752 183.672 212.787C182.357 208.44 181.468 203.964 181.018 199.426C181.378 198.983 181.018 199.426 184.392 194.793C185.893 195.55 187.46 196.154 189.07 196.595C189.135 201.178 189.895 205.721 191.319 210.052V210.115ZM156.832 124.285C162.59 123.115 166.743 126.04 169.817 131.385C173.116 137.125 172.291 139.291 173.236 138.927C173.971 138.832 183.957 133.045 188.44 140.05C189.701 142.107 190.364 144.511 190.345 146.96C190.345 148.083 191.454 147.324 191.754 146.833C193.254 144.224 197.227 145.885 199.251 146.976C200.5 147.536 201.564 148.472 202.309 149.667C203.053 150.864 203.445 152.265 203.435 153.696C203.017 157.229 201.516 160.521 199.161 163.073C198.787 163.516 198.442 164.907 199.386 164.765C204.26 164.037 207.693 168.259 207.753 173.209C207.813 178.158 204.02 181.732 199.671 182.807C199.332 182.932 199.049 183.182 198.871 183.511C198.691 183.838 198.629 184.222 198.697 184.594C200.316 192.152 197.902 196.216 190.585 194.571C188.623 194.108 186.72 193.403 184.917 192.468C184.572 192.279 184.152 192.595 183.942 192.879C182.188 195.315 180.178 198.256 179.713 198.73C178.401 199.835 176.86 200.599 175.215 200.96C170.892 201.943 166.379 201.254 162.5 199.015C162.365 198.959 162.216 198.948 162.075 198.983C161.934 199.016 161.805 199.094 161.705 199.204C159.051 201.861 157.626 203.948 152.708 203.3C148.63 202.699 145.886 200.438 143.277 197.086C142.272 195.821 142.122 194.113 141.087 195.362C137.474 199.774 128.162 198.524 126.213 193.354C125.643 191.867 125.463 188.151 126.828 187.108C127.412 186.649 127.727 184.641 126.588 185.289C124.219 186.665 119.585 189.733 117.801 186.017C117.475 185.204 117.307 184.33 117.307 183.447C117.307 182.565 117.475 181.69 117.801 180.878C118.251 179.644 119.855 177.636 121.235 177.557C122.029 177.557 123.079 175.517 122.014 175.375C115.852 174.632 115.612 166.947 117.711 162.219C119.975 157.112 125.898 156.922 130.231 159.057C131.086 159.468 132.106 157.586 131.371 156.985C127.832 154.123 123.664 148.367 126.438 143.624C129.961 137.583 137.684 137.71 142.692 142.343C143.352 142.944 144.191 141.141 144.041 140.588C141.537 132.887 149.364 125.724 156.877 124.237L156.832 124.285Z" fill="#0D128A"/>
<path d="M166.278 172.133C170.117 171.469 171.196 165.808 171.271 162.456C171.271 159.467 170.042 152.969 165.948 153.728C162.155 154.392 160.955 160.053 160.955 163.405C160.97 166.409 162.215 172.829 166.278 172.133ZM166.593 156.036C169.067 157.048 169.592 161.08 169.592 163.405C169.592 165.476 168.782 171.105 165.588 169.825C161.015 167.943 161.93 154.139 166.533 156.036H166.593Z" fill="#0D128A"/>
<path d="M165.844 164.986C167.268 164.717 167.883 162.772 167.943 161.254C167.943 160.163 167.448 158.092 165.994 158.487C164.539 158.883 163.969 160.875 163.969 162.219C163.984 163.294 164.464 165.255 165.844 164.986Z" fill="#0D128A"/>
<path d="M154.252 152.937C150.459 153.585 149.259 159.262 149.259 162.614C149.259 165.619 150.519 172.102 154.582 171.343C158.421 170.679 159.501 165.018 159.576 161.65C159.501 158.661 158.346 152.21 154.252 152.937ZM153.938 169.018C149.319 167.152 150.234 153.348 154.897 155.246C159.561 157.143 158.586 170.916 153.938 169.018Z" fill="#0D128A"/>
<path d="M153.413 162.187C153.413 163.263 153.893 165.223 155.272 164.955C156.652 164.686 157.312 162.757 157.372 161.223C157.372 160.132 156.877 158.06 155.422 158.456C153.968 158.851 153.413 160.875 153.413 162.187Z" fill="#0D128A"/>
<path d="M157.282 175.201C157.132 173.794 155.557 175.201 155.647 176.165C155.842 178.205 157.147 181.415 159.576 180.909C162.005 180.403 163.175 176.877 163.489 174.584C163.714 173.003 161.99 173.999 161.99 175.011C161.81 176.292 161.21 179.217 159.441 178.727C158.091 178.316 157.402 176.418 157.282 175.201Z" fill="#0D128A"/>
<path d="M149.589 147.387C148.945 148.668 150.114 149.395 150.759 148.114C151.237 147.17 151.889 146.335 152.677 145.659C153.465 144.983 154.373 144.479 155.347 144.177C156.142 143.924 156.847 141.694 155.737 142.042C154.427 142.457 153.207 143.144 152.152 144.062C151.096 144.979 150.225 146.109 149.589 147.387Z" fill="#0D128A"/>
<path d="M167.118 143.56C168.34 143.779 169.493 144.307 170.478 145.1C171.463 145.894 172.251 146.928 172.771 148.114C173.251 149.237 174.69 147.498 174.27 146.691C173.693 145.312 172.804 144.106 171.679 143.176C170.555 142.246 169.229 141.623 167.823 141.362C167.043 141.204 166.113 143.371 167.118 143.56Z" fill="#0D128A"/>
<path d="M123.904 122.134C107.005 115.003 109.284 115.92 107.769 115.43C107.769 114.766 107.604 114.117 107.499 113.469L119.195 103.049C122.944 99.7123 122.044 98.9375 119.195 99.2538L103.211 100.962C102.716 100.06 102.206 99.2063 101.712 98.3525C102.596 96.281 106.435 87.2837 107.455 84.9435C108.714 82.034 110.019 79.3143 106.21 81.5596L93.2996 89.1338C92.19 88.261 91.0392 87.4482 89.8509 86.6987C89.8509 84.3901 90.3157 73.7957 90.4357 70.8072C90.5856 66.5852 90.4357 64.4822 87.7666 68.6567L78.7699 82.2396C77.5103 81.9866 76.2358 81.7968 74.9463 81.6703C74.9463 81.6703 70.5679 65.2412 70.043 63.0116C69.7731 62.0312 69.6832 60.6872 68.9184 60.0072C68.7686 59.8649 68.4836 60.0072 68.3487 60.0072C67.1191 60.6714 66.5043 62.7112 65.8895 63.9445C63.2055 69.3682 59.202 78.0176 57.8674 83.9631C53.2901 79.6084 48.397 75.6382 43.2327 72.088C41.8232 71.1867 39.0043 68.9255 37.2349 69.3366C36.9769 69.4356 36.7494 69.6073 36.5775 69.8331C36.4057 70.0589 36.2959 70.3302 36.2603 70.6174C35.9004 71.9615 36.86 73.9222 37.1899 75.1872L42.618 95.5062C41.8382 96.5024 42.0332 96.2652 41.7483 96.6605C40.6537 96.281 43.3677 96.9768 17.3671 90.5727C16.0926 90.2565 14.3682 91.1894 15.2229 92.8655C15.9069 93.8586 16.6968 94.7662 17.577 95.5695L34.3709 114.987C34.251 116.031 34.176 117.074 34.146 118.15C25.4642 116.331 15.2079 111.445 12.179 102.574C10.0497 96.2494 10.6795 89.4184 12.179 83.1093C13.0722 79.4502 14.3496 75.9072 15.9876 72.5465C20.1561 71.3922 24.9094 70.5067 27.8783 66.9489C28.8979 65.7155 29.2278 64.1501 27.3385 64.0394C25.8678 63.9956 24.3966 64.1016 22.9451 64.3557C23.5449 63.3279 24.1147 62.2842 24.6395 61.1932C25.1643 60.1021 27.0536 56.9712 26.1389 55.4849C25.4492 54.2831 23.7548 55.4849 22.2103 57.0661C22.8401 55.1528 23.11 53.2711 21.9404 52.7493C21.0108 52.3224 19.7662 53.2395 18.6416 54.4413C19.0015 53.0023 19.0315 51.6899 18.0718 51.2788C16.0926 50.5514 12.7188 56.6392 11.6542 58.5525C11.2343 59.3273 9.77984 62.0787 9.95978 61.8415C5.2918 69.4364 2.22381 77.9993 0.963071 86.9517C0.0933856 92.7074 -0.53639 99.064 0.66318 104.804C2.95735 115.778 12.6588 122.83 22.7052 126.499L15.4778 130.562C13.8452 131.302 12.262 132.158 10.7395 133.124C10.0647 133.63 8.40034 135.765 11.999 135.765H36.5152C37.162 135.847 37.8131 135.883 38.4645 135.875C38.3895 136.034 31.1171 151.688 29.1378 156.795C28.6348 157.651 28.4085 158.655 28.4931 159.657C28.5154 159.754 28.5644 159.842 28.6337 159.909C28.7031 159.977 28.7898 160.021 28.8829 160.037C29.6583 159.974 30.3989 159.672 31.0122 159.167C51.8397 147.245 49.0056 149.016 49.4855 148.636L50.1302 149.11C50.1302 150.423 50.4002 151.814 50.5201 153.095C50.7 155.325 51.4498 164.354 51.6447 166.646C51.6447 167.548 51.6447 168.987 52.1545 169.809C52.2146 169.886 52.2947 169.943 52.3851 169.975C52.4755 170.007 52.5725 170.008 52.6643 169.983C53.459 169.73 53.849 169.066 54.3737 168.402L55.6782 166.741V213.214C53.4291 214.574 51.1799 216.013 49.0206 217.515C46.1867 219.492 42.1681 221.848 40.5787 225.2C38.5244 229.548 45.0771 228.679 47.2063 228.363C50.4408 227.744 53.6282 226.878 56.7429 225.769C58.962 225.026 62.2009 224.441 63.9552 222.702C65.7096 220.962 65.5897 218.527 65.4547 216.139C65.3048 212.835 63.0706 164.053 62.7857 157.728C63.3402 156.96 63.9359 156.226 64.57 155.53C65.1698 155.646 65.7696 155.741 66.3694 155.815L68.8435 160.337C68.4236 169.667 66.0995 216.155 66.1295 219.523C66.1295 223.998 71.2276 224.741 74.4514 225.848C78.545 227.208 82.9984 228.789 87.3468 228.758C89.1911 228.758 92.0251 227.999 91.4853 225.374C91.0205 223.144 88.2465 221.294 86.657 220.061C84.1065 218.023 81.4592 216.122 78.7249 214.368C78.0396 213.861 77.3237 213.401 76.5807 212.993C76.4487 212.911 76.3415 212.792 76.2695 212.65C76.1983 212.507 76.1661 212.348 76.1758 212.186C76.0859 210.605 76.1009 217.072 76.1758 172.26C76.3325 172.219 76.4772 172.138 76.5957 172.023C77.3709 171.012 77.8552 169.788 77.9902 168.497C78.6349 166.014 81.139 156.479 81.7388 154.265C82.6685 153.949 83.5681 153.601 84.4678 153.222L94.8441 164.702C97.1532 167.263 99.0275 169.129 98.6077 162.678C98.4428 160.1 97.4981 145.284 97.4381 144.462C99.8672 145.284 93.5095 143.386 113.602 149.316C114.322 149.537 114.997 149.901 115.672 149.316C115.857 149.175 116.013 148.995 116.128 148.788C116.244 148.579 116.318 148.348 116.345 148.11C116.372 147.869 116.351 147.627 116.284 147.396C116.217 147.166 116.106 146.954 115.956 146.77C114.262 144.05 114.022 144.066 106.705 133.725C106.465 133.361 106.015 132.871 105.64 132.381L123.409 126.847C129.242 125.06 128.072 123.89 123.904 122.134ZM118.55 101.499C118.221 101.831 117.051 102.906 107.125 111.698C106.469 108.665 105.462 105.728 104.126 102.954C121.175 101.135 116.091 101.657 118.55 101.499ZM106.555 83.3623C106.345 84.0106 100.677 97.1665 100.737 97.0084C98.9901 94.5369 96.977 92.2868 94.7391 90.3039C107.499 82.7614 106.075 83.5678 106.555 83.3623ZM87.2718 71.914C87.6317 71.3448 88.3514 70.5542 88.8762 69.7952C88.7413 73.432 88.3514 84.0264 88.2914 85.7816C85.7439 84.375 83.0388 83.3124 80.2394 82.6191L87.2718 71.914ZM67.9438 62.9484C68.7235 65.6049 70.7778 73.1316 73.012 81.5438C68.4059 81.3865 63.8102 82.0988 59.4419 83.6469C60.7164 77.8121 65.2748 68.2297 67.9438 62.9484ZM38.2995 71.9298C38.9593 72.2777 39.619 72.7363 39.9939 72.9418C45.6484 76.4068 50.9322 80.5049 55.7532 85.1649C51.3911 87.2237 47.4497 90.1553 44.1474 93.7985C43.7426 92.2647 38.2545 71.7559 38.2995 71.9298ZM18.3268 93.1976C18.7166 93.3241 16.8273 92.8655 40.4437 98.6687C37.7891 102.741 35.9053 107.316 34.8958 112.141C17.3671 91.901 19.8112 94.6365 18.3268 93.1976ZM4.68173 109.848C2.64659 105.988 1.66075 101.611 1.83275 97.1982C1.75736 85.1807 4.90197 73.3852 10.9044 63.1697C12.3139 60.8453 13.4085 58.3153 14.923 56.0541C15.3797 55.1993 15.985 54.443 16.7073 53.8246C17.4871 53.3502 17.3071 53.8246 17.1422 54.5994C16.815 55.9166 16.3577 57.1937 15.7777 58.4102C15.3278 59.4222 16.2875 59.9914 16.9173 59.0901C17.3221 58.5525 17.742 58.0307 18.1918 57.5089C18.6416 56.9871 20.0811 54.9314 20.8009 54.9947C21.7755 54.9947 19.7212 59.8175 19.3014 60.6556C18.8816 61.4936 19.4363 62.7112 20.306 61.6359C21.4486 60.1753 22.7133 58.8259 24.0847 57.6037C24.5795 57.2559 24.6545 56.9712 24.6545 57.4931C24.6545 59.0743 23.155 61.0667 22.4802 62.3475C21.9254 63.3437 21.3557 64.324 20.7559 65.2728C20.456 65.7472 20.351 66.854 21.1457 66.7117C22.8737 66.3996 24.626 66.2619 26.3788 66.3006C23.7098 68.6408 19.8712 69.4631 16.6474 70.3012C15.1479 70.7281 14.848 71.6768 14.2182 73.0842C9.71987 82.9195 6.72098 96.534 11.5042 106.29C15.4928 114.465 25.5691 118.64 33.9961 120.522L25.5841 125.123C17.2621 122.656 8.94015 117.533 4.68173 109.848ZM13.5585 133.567L34.326 122.34C34.7242 126.217 35.738 129.996 37.3249 133.519C36.4552 133.614 13.4085 133.583 13.5885 133.583L13.5585 133.567ZM45.0471 149.11L30.4874 157.444C30.6673 157.017 30.8322 155.214 39.3042 137.283C41.5988 141.144 44.5109 144.558 47.911 147.371C46.9664 147.956 46.0217 148.589 45.0771 149.126L45.0471 149.11ZM64.0152 219.428C63.8803 222.038 59.3819 222.781 57.4176 223.445C53.3871 224.925 49.2129 225.927 44.9721 226.433C44.0543 226.582 43.1153 226.462 42.2581 226.086C41.3884 225.39 42.9029 224.394 43.4876 223.84C47.5807 220.369 51.9618 217.295 56.5779 214.653C56.8153 214.497 57.0122 214.28 57.1509 214.024C57.2896 213.766 57.3657 213.478 57.3726 213.183C57.3726 198.35 57.3726 183.514 57.3726 168.67L61.5711 164.433C64.1052 221.421 64.0152 219.27 64.0152 219.428ZM53.519 167.152C53.1442 163.69 53.879 172.766 52.0196 150.375C55.4409 152.565 59.1712 154.167 63.0706 155.119L53.519 167.152ZM81.334 218.891C84.4993 220.79 87.3505 223.22 89.7759 226.086C89.7812 226.122 89.7812 226.16 89.7759 226.196C88.8912 226.473 87.9586 226.538 87.0469 226.386C82.3536 226.038 75.0512 223.54 70.6728 221.879C68.9484 221.231 67.8088 220.298 67.8238 218.211C67.8238 213.341 67.8238 218.923 70.133 167.848L74.4964 172.292V214.147C74.4814 214.922 74.5714 214.369 81.319 218.891H81.334ZM76.2958 169.335C76.0109 168.734 76.7456 170.109 68.9934 155.957C72.746 156.19 76.5095 155.772 80.1344 154.724C79.9545 155.309 77.1805 165.951 76.2808 169.335H76.2958ZM86.612 152.21C89.9581 150.54 93.0627 148.378 95.8337 145.79C96.0586 149.537 96.9883 163.769 96.9883 163.769C94.6641 161.112 99.4924 166.488 86.5971 152.21H86.612ZM113.302 146.786C101.682 143.355 102.236 143.386 98.9676 142.517C101.086 140.04 102.886 137.281 104.321 134.31C104.681 134.784 105.085 135.243 105.385 135.67C105.685 136.097 112.913 146.375 113.287 146.786H113.302ZM104.306 130.974C102.257 136.081 99.1528 140.643 95.2204 144.324C91.2881 148.007 86.6255 150.717 81.5739 152.257C51.7946 161.65 22.1654 126.135 42.6629 98.0046C48.071 90.8708 55.7313 86.0259 64.2457 84.3537C72.7599 82.6815 81.5604 84.2944 89.0412 88.8966C102.191 97.3563 110.288 114.845 104.231 130.989L104.306 130.974ZM106.075 130.183C107.393 126.369 108.054 122.335 108.024 118.276C108.024 117.865 106.735 117.375 124.009 124.601C117.051 126.862 106.165 130.151 106 130.199L106.075 130.183Z" fill="#0D128A"/>
<path d="M56.5181 107.397C56.5181 109.706 57.4477 114.212 60.4317 113.849C62.7708 113.564 63.8204 110.686 64.2103 108.362C64.5701 110.654 65.7097 113.343 67.9739 113.105C70.9728 112.726 71.8725 108.204 71.9475 105.689C71.8725 103.412 70.9878 98.6212 67.854 99.2695C65.6498 99.728 64.5851 102.432 64.2253 104.756C63.8354 102.4 62.7258 99.5541 60.3117 100.013C57.4627 100.598 56.5181 104.883 56.5181 107.397ZM68.1838 101.483C69.9232 102.132 70.2681 105.009 70.3131 106.606C70.3581 108.204 69.7583 111.904 67.5691 110.654C66.8337 110.18 66.2977 109.428 66.0696 108.551C66.8643 109.453 68.6937 108.551 68.7986 105.753C68.6937 102.685 66.3245 103.064 65.6498 105.563C65.7097 104.092 66.2046 100.756 68.1838 101.483ZM60.6866 102.29C62.4259 102.922 62.7558 105.8 62.8008 107.397C62.8458 108.994 62.201 112.694 60.0718 111.461C57.2228 109.848 57.6577 101.183 60.6416 102.29H60.6866Z" fill="#0D128A"/>
<path d="M60.2666 109.674C61.4662 109.421 62.006 107.84 62.0509 106.512C62.0509 105.61 61.6461 104.061 60.5515 104.345C59.4569 104.63 58.812 106.322 58.827 107.508C58.7521 108.425 59.157 109.911 60.2666 109.674Z" fill="#0D128A"/>
<path d="M64.1952 123.747C60.2516 124.38 60.0717 120.347 55.2884 116.11C53.2492 114.307 49.8154 112.267 47.1164 113.706C43.0079 115.92 45.3769 122.292 47.0263 125.328C48.6261 128.485 50.9535 131.166 53.7941 133.126C56.6345 135.085 59.8968 136.26 63.2804 136.539C68.9634 136.824 77.4504 133.899 78.8449 127.147C80.3743 119.715 67.569 122.988 64.1952 123.747ZM54.8536 130.562C52.1989 128.93 50.1001 126.457 48.8557 123.494C49.7751 123.374 50.7085 123.48 51.5827 123.802C52.4567 124.127 53.2478 124.66 53.8939 125.36C54.3767 126.114 54.7105 126.965 54.8754 127.858C55.0402 128.752 55.0329 129.672 54.8536 130.562Z" fill="#0D128A"/>
<path d="M53.8487 95.4904C54.3285 95.5694 54.8383 94.8737 54.9583 94.4626C55.1274 93.8838 55.4672 93.377 55.9284 93.0157C56.3895 92.6544 56.9479 92.4575 57.5223 92.4544C58.6769 92.4544 59.1268 90.2248 58.302 90.2564C57.2062 90.3363 56.1601 90.7688 55.3048 91.4953C54.4493 92.2219 53.826 93.2078 53.5188 94.3202C53.4138 94.7156 53.3089 95.3955 53.8487 95.4904Z" fill="#0D128A"/>
</svg>
