<svg width="109" height="113" viewBox="0 0 109 113" fill="none" xmlns="http://www.w3.org/2000/svg">
<path d="M86.0151 96.532C86.0907 95.224 86.0407 93.9119 85.8662 92.6156C85.9855 92.9759 86.1195 93.3698 86.2678 93.7589C86.437 94.203 86.6327 94.6621 86.8585 95.0741C87.0374 95.4006 87.2582 95.7409 87.5326 96.0248C87.5508 96.0646 87.5699 96.1038 87.5899 96.1411C87.6163 96.1904 87.6679 96.2819 87.7473 96.3747C87.7874 96.4215 87.8598 96.4988 87.9671 96.5703C88.073 96.6409 88.2692 96.743 88.5349 96.743C89.1709 96.743 89.426 96.2281 89.4707 96.1261C89.5362 95.9767 89.5541 95.8408 89.5605 95.7866C89.5757 95.6581 89.574 95.5217 89.5699 95.4132C89.5334 94.1635 89.4089 92.9192 89.1963 91.6884C89.7337 92.83 90.4577 93.8701 91.3391 94.7591L92.895 96.3285L93.0469 94.1237C93.1535 92.5746 92.6422 91.2817 92.0416 89.763C91.9871 89.6252 91.9319 89.4857 91.8764 89.3438C91.1917 87.5959 90.32 85.2406 89.6457 81.3604C89.2557 79.1155 89.0401 76.8393 89.0005 74.5567L88.9876 73.8076L88.2649 73.6096C86.7194 73.1862 85.2149 72.6063 83.7729 71.8787L83.0024 71.4899L82.5051 72.1952C80.2566 75.3844 79.7386 76.0421 79.4376 76.4244C79.3323 76.5581 79.2535 76.6582 79.1365 76.8211L78.916 77.1279L78.9536 77.5038C79.4127 82.1035 80.3142 86.6443 81.6445 91.0525C81.6776 91.1641 81.7243 91.3383 81.7828 91.5564C81.9456 92.1635 82.1998 93.1109 82.5039 93.9979C82.7162 94.6173 82.9698 95.2628 83.2658 95.8242C83.5474 96.3584 83.9291 96.9386 84.4486 97.2972L85.9125 98.308L86.0151 96.532ZM88.6966 90.4341C88.6966 90.434 88.6974 90.4359 88.6988 90.44C88.6972 90.4363 88.6965 90.4342 88.6966 90.4341ZM85.4688 91.4337C85.4688 91.4337 85.4692 91.4345 85.47 91.4362C85.4692 91.4346 85.4688 91.4338 85.4688 91.4337Z" fill="white" stroke="black" stroke-width="2"/>
<path d="M46.5891 79.1749L45.7008 79.2747V80.1686C45.7008 83.2277 45.6323 86.2154 45.5634 89.2168C45.5256 90.8618 45.4878 92.511 45.4611 94.1782L45.4455 95.1495L46.4159 95.1932L54.483 95.5569L55.6294 95.6086L55.5238 94.4659C55.0588 89.4365 54.5783 84.385 54.0225 79.3474L53.9126 78.3513L52.9168 78.4633L46.5891 79.1749Z" fill="white" stroke="black" stroke-width="2"/>
<path d="M64.6798 77.0045L63.8407 77.0673L63.7591 77.9046C63.2192 83.44 62.6936 88.9821 62.258 94.5104L62.1633 95.7115L63.3613 95.5833L71.4884 94.7136L72.3971 94.6164L72.3818 93.7026C72.3368 91.004 72.2887 88.3454 72.2407 85.6856C72.1917 82.9763 72.1427 80.2658 72.0969 77.5107L72.0793 76.4511L71.0225 76.5301L64.6798 77.0045Z" fill="white" stroke="black" stroke-width="2"/>
<path d="M39.3949 109.003C39.3768 109 39.3795 108.999 39.3969 109.004C39.3962 109.004 39.3956 109.003 39.3949 109.003ZM40.711 110.94C41.4782 110.849 42.2756 110.697 42.6382 110.624C45.1552 110.126 46.7599 109.272 48.0942 108.332C48.561 108.003 49.0054 107.655 49.4248 107.327C49.5816 107.204 49.7349 107.084 49.8845 106.969C50.4497 106.533 51.0058 106.131 51.6456 105.77L51.6456 105.77L51.6515 105.767C51.9429 105.6 52.1875 105.473 52.3992 105.389C52.6152 105.303 52.7394 105.285 52.7988 105.286C52.8249 105.287 52.8263 105.288 52.8305 105.293C52.8314 105.294 52.8325 105.295 52.834 105.296C52.8624 105.32 52.9579 105.42 53.0678 105.711L53.0711 105.72L53.0747 105.729C53.0937 105.776 53.1098 105.839 53.1345 105.98C53.1372 105.996 53.1401 106.013 53.1432 106.032C53.1643 106.156 53.1975 106.353 53.2553 106.546C53.316 106.749 53.5762 107.442 53.8123 107.881C53.8694 107.987 53.9575 108.141 54.0709 108.274C54.1202 108.332 54.2398 108.465 54.4285 108.563C54.6525 108.679 55.0935 108.788 55.5121 108.492C55.8233 108.272 55.9103 107.959 55.9341 107.867C55.9681 107.735 55.9771 107.612 55.9799 107.523C55.9847 107.373 55.9745 107.199 55.955 107.01C56.1123 105.742 56.1415 104.458 56.038 103.182C56.0363 101.021 55.8994 98.8839 55.7194 96.8115L55.6436 95.9391L54.7687 95.8991L46.4618 95.5196L45.4405 95.4729L45.4164 96.495C45.3277 100.251 44.7624 103.356 42.195 105.657L42.195 105.657L42.1918 105.659C41.8429 105.975 41.3173 106.383 40.7412 106.83C40.4082 107.089 40.0583 107.361 39.716 107.635C39.2777 107.987 38.8457 108.348 38.5435 108.658C38.4022 108.802 38.2278 108.996 38.1092 109.213C38.0517 109.318 37.9593 109.513 37.9467 109.763C37.9316 110.065 38.0388 110.409 38.3304 110.657C38.5821 110.872 38.8737 110.94 39.0264 110.969C39.2095 111.003 39.4009 111.015 39.5751 111.016C39.9263 111.02 40.3301 110.986 40.711 110.94Z" fill="#FF3E74" stroke="black" stroke-width="2"/>
<path d="M73.7149 104.023L73.7131 104.02C72.3626 101.87 72.3646 99.0853 72.3667 96.167C72.3668 96.0526 72.3668 95.938 72.3668 95.8232V94.7114L71.2612 94.8288L62.9242 95.7143L62.0987 95.802L62.033 96.6296C61.7981 99.59 61.737 102.565 61.8498 105.533C61.8492 105.587 61.8459 105.648 61.8414 105.732C61.8365 105.823 61.8302 105.939 61.8243 106.101C61.8147 106.366 61.8095 106.719 61.8506 107.039C61.8709 107.197 61.9085 107.399 61.9907 107.597C62.0665 107.78 62.2409 108.105 62.6218 108.287C63.0465 108.489 63.4552 108.391 63.7179 108.261C63.9637 108.139 64.1672 107.955 64.3303 107.78L64.5163 107.581L64.5757 107.315L64.5757 107.315L64.5757 107.315L64.5758 107.315L64.5763 107.312L64.5782 107.304L64.5858 107.27L64.6132 107.148C64.6362 107.047 64.6671 106.911 64.6993 106.772C64.7318 106.632 64.7647 106.493 64.7917 106.384C64.8054 106.329 64.8164 106.286 64.8244 106.256C64.826 106.251 64.8273 106.246 64.8284 106.242C64.9166 105.998 65.0488 105.703 65.2058 105.464C65.3536 105.239 65.4538 105.169 65.4743 105.155C65.4787 105.152 65.4794 105.151 65.4762 105.152L65.4766 105.152C65.627 105.102 65.8763 105.098 66.2928 105.275C66.7076 105.45 67.1773 105.758 67.6915 106.156C68.1035 106.476 68.5054 106.822 68.9076 107.169C69.0057 107.254 69.1039 107.338 69.2022 107.423C69.6735 107.826 70.1804 108.25 70.6416 108.524C71.949 109.322 73.356 109.927 74.8217 110.323C76.0524 110.664 77.3066 110.896 78.5729 111.018L81.1121 111.264L79.4162 109.358C78.5786 108.417 77.5987 107.655 76.7127 106.966C76.5519 106.841 76.3942 106.718 76.241 106.597C75.2092 105.783 74.3362 105.019 73.7149 104.023ZM64.832 106.23C64.832 106.23 64.8316 106.231 64.8309 106.233C64.8317 106.231 64.832 106.23 64.832 106.23Z" fill="#FF3E74" stroke="black" stroke-width="2"/>
<path d="M28.3527 76.2216L27.785 75.9699L27.3077 76.3672C26.344 77.1693 25.2154 77.7118 24.0188 77.9535C22.8234 78.1949 21.5905 78.1301 20.4227 77.7639C19.2142 77.3761 18.1046 76.6932 16.9418 75.89C16.6804 75.7095 16.4136 75.5206 16.1417 75.3283C15.2424 74.6919 14.2885 74.017 13.2975 73.4753L13.2952 73.4741C13.2703 73.4605 13.2358 73.4414 13.1955 73.4189C13.097 73.3641 12.9635 73.2898 12.8475 73.2301C12.6779 73.1429 12.4397 73.0293 12.1887 72.964C11.993 72.9131 11.4686 72.8031 10.998 73.1493C10.4802 73.5303 10.4595 74.1252 10.4872 74.4403C10.5325 74.9557 10.8158 75.3808 11.0393 75.6615C11.2822 75.9666 11.5848 76.2584 11.8645 76.5123C12.0109 76.6453 12.1945 76.8058 12.3627 76.9529C12.4828 77.058 12.5951 77.1561 12.6802 77.2324C12.8973 77.4268 13.0462 77.5719 13.1375 77.678C13.1275 77.737 13.0943 77.8306 13.0263 77.9304C12.9872 77.9877 12.9484 78.03 12.9163 78.0593C11.3833 77.454 9.77455 77.0847 8.14011 76.9609L5.45275 76.7574L7.35695 78.6646C8.73317 80.043 10.3472 81.1362 12.1134 81.8836C12.1065 81.8994 12.0991 81.9155 12.0912 81.932C12.035 82.0487 11.9682 82.147 11.9087 82.2165C10.3126 81.8164 8.6823 81.5799 7.04082 81.5129L3.83773 81.382L6.39834 83.3108C6.66634 83.5127 7.34449 83.9211 7.95706 84.2776C8.55005 84.6228 9.18888 84.9812 9.51266 85.1425C13.0965 87.3727 17.0881 88.7876 21.2289 89.2921L21.2374 89.2931L21.246 89.294C24.6371 89.6478 28.0301 88.7049 30.8063 86.6455C33.5813 84.5886 35.5514 81.5556 36.3725 78.1108L36.7438 76.553L35.1811 76.9032C32.8935 77.4158 30.5121 77.1789 28.3527 76.2216Z" fill="white" stroke="black" stroke-width="2"/>
<path d="M105.14 44.1194C103.597 42.482 101.46 41.5146 98.9791 41.6785C101.453 38.9749 103.024 35.5055 103.464 31.7925L103.47 31.7376L103.471 31.6822C103.482 30.0643 103.038 28.4775 102.194 27.1181L102.193 27.1169C101.353 25.7693 100.152 24.7033 98.7314 24.058C97.6923 23.4964 96.0905 22.7573 94.5023 22.508C93.0966 22.2874 91.4361 22.4281 90.3371 23.7218C90.1638 21.5166 89.4772 19.38 88.3285 17.5061L88.3233 17.4976L88.3179 17.4893C85.7437 13.4716 81.5911 13.2002 78.2796 13.8159C76.614 14.1255 75.0891 14.6669 73.95 15.1269C73.4354 15.3348 72.9931 15.5288 72.6559 15.6767C72.6438 15.682 72.6319 15.6872 72.6202 15.6924C72.62 15.6918 72.6198 15.6912 72.6197 15.6905C72.5992 15.6179 72.5765 15.5377 72.5507 15.4472C72.2711 14.4694 71.7668 12.8483 70.4969 10.3079L70.4962 10.3066C68.1107 5.55199 65.0887 2.5523 61.4358 1.45982C57.7823 0.367186 53.7515 1.25817 49.5164 3.72395L49.5163 3.72388L49.5051 3.73062C44.3742 6.80858 40.0292 12.4419 42.081 18.7842C42.0768 18.8095 42.0694 18.8445 42.057 18.8888C42.0305 18.9832 41.9903 19.0878 41.9416 19.1879C39.3558 16.988 36.1227 15.8389 33.0158 15.9842C29.6997 16.1393 26.556 17.7733 24.5971 21.0943L24.5952 21.0976C22.9802 23.8592 23.4359 26.8583 24.6548 29.4186C25.8439 31.916 27.8153 34.1379 29.6369 35.6387C29.6247 35.7057 29.5955 35.7986 29.5402 35.8998C29.5141 35.9475 29.4861 35.9897 29.4586 36.0252C27.1857 34.9593 24.505 34.4683 22.037 34.9169C19.4444 35.3881 17.0988 36.9019 15.8174 39.7926L15.8171 39.7932C14.6961 42.3263 14.1877 45.6462 14.808 48.4892C15.1205 49.9216 15.7306 51.2798 16.7439 52.342C17.6528 53.2947 18.8469 53.9671 20.3313 54.2552C20.2742 54.3487 20.2086 54.4339 20.1448 54.4984C20.1272 54.5162 20.1119 54.5302 20.0993 54.541C19.5684 54.5753 19.0828 54.7803 18.6774 55.0275C18.2264 55.3024 17.8119 55.6674 17.4535 56.051C16.7542 56.7993 16.1614 57.7348 15.8858 58.5032C15.5168 59.43 15.3274 60.4242 15.3274 61.4261C15.3274 62.4348 15.5194 63.4357 15.8935 64.368L15.9058 64.3987L15.9201 64.4284C16.474 65.5821 17.3067 66.2994 18.3307 66.602C19.3078 66.8908 20.3388 66.7662 21.2677 66.5035C22.4178 66.1783 23.5914 65.5833 24.5827 65.0246C24.3893 65.33 24.2483 65.6621 24.1443 65.9858C23.9427 66.6136 23.8461 67.3151 23.8165 67.994C23.758 69.3316 23.9526 70.7754 24.2985 71.6872L24.2992 71.6891C25.4714 74.7608 28.7292 76.4733 31.9515 76.8921C35.0556 77.2954 38.5301 76.5552 40.6356 74.2578C40.642 74.2699 40.6485 74.2822 40.6552 74.2948C40.6966 74.3729 40.743 74.4606 40.7964 74.5598C40.9737 74.8889 41.2031 75.2928 41.5078 75.6781C42.5748 77.0773 43.7858 78.3474 45.1177 79.4667L45.133 79.4796L45.1489 79.4919C47.5771 81.3716 50.5243 82.3748 53.5492 82.3419C55.5021 82.3409 56.8716 81.8609 58.0904 80.9948C58.9553 80.3802 59.7572 79.5511 60.6164 78.6628C60.8411 78.4305 61.0697 78.1942 61.3043 77.9565C65.3359 80.1877 69.9907 80.8632 74.4569 79.8503L74.4734 79.8466L74.4898 79.8423C76.5887 79.291 77.9216 78.6382 78.85 77.9045C79.7007 77.2322 80.1601 76.5253 80.5175 75.9754C80.5516 75.9228 80.5849 75.8717 80.6174 75.8222C80.6755 75.7353 80.7137 75.675 80.7522 75.6143C80.9429 75.3137 81.1399 75.003 83.7808 71.4111C85.5766 72.3126 87.4619 72.9995 89.4045 73.4599L89.4045 73.46L89.4152 73.4624C93.2448 74.326 96.1955 73.7719 97.8568 71.5331C99.4343 69.4072 99.5392 66.1234 98.7291 62.3189C98.7054 62.1737 98.7316 62.0277 98.7975 61.9078L98.8001 61.9029C98.859 61.7944 98.9427 61.7186 99.0344 61.675C103.672 60.4991 107.887 56.6209 107.804 51.1091C107.763 48.4172 106.809 45.8908 105.14 44.1194ZM90.3834 24.9949C90.3832 24.9952 90.3824 24.991 90.3816 24.9817C90.3832 24.99 90.3836 24.9947 90.3834 24.9949ZM42.0861 18.7388C42.0862 18.7387 42.0862 18.7407 42.086 18.745C42.0859 18.741 42.0861 18.7389 42.0861 18.7388ZM26.1375 64.1198C26.1375 64.1198 26.1365 64.1202 26.1345 64.121C26.1364 64.1201 26.1374 64.1197 26.1375 64.1198ZM41.0228 73.8287C41.0227 73.8291 41.0188 73.8324 41.0109 73.8375C41.0189 73.8308 41.0228 73.8283 41.0228 73.8287ZM40.3486 73.7695C40.3367 73.7585 40.3308 73.7511 40.3308 73.7502C40.3308 73.7492 40.3367 73.7547 40.3486 73.7695ZM53.3747 48.3992L53.3753 48.4064C52.6799 48.5143 52.1375 48.3323 51.6664 47.9558C51.1524 47.5451 50.6965 46.876 50.32 46.0096C49.5659 44.2741 49.2651 42.0616 49.2651 40.6564C49.2651 39.107 49.5514 36.982 50.2671 35.2002C50.9958 33.3859 52.0478 32.2005 53.4268 31.9649L53.4333 31.9637C54.1586 31.8349 54.7093 32.0154 55.181 32.3936C55.6878 32.8 56.1362 33.4663 56.5072 34.3349C57.2456 36.0635 57.5427 38.2709 57.5811 39.693C57.543 41.2625 57.2642 43.3801 56.5609 45.1542C55.8434 46.9642 54.7999 48.1555 53.3747 48.3992ZM65.1152 49.1898C64.3986 49.3125 63.8445 49.1308 63.365 48.747C62.8522 48.3365 62.3975 47.6677 62.0217 46.801C61.2696 45.0662 60.9683 42.8538 60.9609 41.4443C60.9612 39.8953 61.2475 37.7758 61.9627 35.9971C62.691 34.1859 63.7436 32.9971 65.1261 32.7549C65.8509 32.6291 66.4036 32.8114 66.8779 33.1926C67.387 33.6017 67.837 34.2704 68.2088 35.1397C68.9494 36.8712 69.246 39.0793 69.2769 40.497C69.2391 42.0666 68.9604 44.1823 68.2617 45.9544C67.5485 47.7631 66.5151 48.9468 65.1152 49.1898Z" fill="white" stroke="black" stroke-width="2"/>
<path d="M64.7563 42.5369L64.7563 42.5369L64.7534 42.5375C64.5403 42.579 64.3872 42.5353 64.2577 42.4471C64.1136 42.349 63.9724 42.1761 63.8478 41.9258C63.597 41.422 63.482 40.7444 63.4747 40.2575C63.4752 39.646 63.6069 38.8857 63.8969 38.2458C64.1897 37.5996 64.6048 37.1546 65.1301 37.0118C65.366 36.9477 65.5259 36.9871 65.6536 37.0664C65.7987 37.1564 65.9437 37.3255 66.0728 37.581C66.3315 38.0931 66.4468 38.7949 66.4483 39.2868C66.4192 39.9937 66.2608 40.7845 65.9593 41.4151C65.6534 42.0548 65.246 42.4445 64.7563 42.5369Z" fill="white" stroke="white"/>
<path d="M54.1823 42.5058C53.9691 42.5474 53.8161 42.5037 53.6869 42.4156C53.5433 42.3177 53.4027 42.1451 53.2791 41.8953C53.0296 41.3911 52.9186 40.7129 52.9186 40.2294C52.9186 39.6323 53.0467 38.8692 53.3345 38.2231C53.6251 37.5707 54.0373 37.122 54.559 36.9802C54.7949 36.916 54.9547 36.9555 55.0825 37.0347C55.2276 37.1247 55.3726 37.2938 55.5016 37.5493C55.7603 38.0615 55.8756 38.7634 55.8771 39.2552C55.8481 39.9653 55.68 40.7559 55.3729 41.386C55.0601 42.0279 54.651 42.4145 54.1823 42.5058Z" fill="white" stroke="white"/>
<path d="M61.9999 52.5559L61.9996 52.5583C61.8475 53.6656 61.4891 55.062 60.8866 56.2296C60.2769 57.4113 59.4737 58.2547 58.4794 58.4618C57.5512 58.6552 56.7955 58.1691 56.1969 57.2593C55.5969 56.3474 55.2421 55.1178 55.1506 54.1607C55.1409 54.056 55.1768 53.8905 55.2855 53.696C55.3915 53.5065 55.539 53.3401 55.6772 53.238C55.7153 53.2098 55.7464 53.1907 55.771 53.1777C55.7777 53.2064 55.7844 53.2444 55.7898 53.2942C55.8557 53.9599 56.0743 54.801 56.463 55.5411C56.8475 56.273 57.4422 56.986 58.3007 57.2475L58.3006 57.2477L58.3129 57.2511C58.9084 57.416 59.4348 57.2911 59.8611 56.979C60.2645 56.6837 60.5553 56.2397 60.7688 55.7896C61.1964 54.8876 61.3992 53.7733 61.4906 53.1228L61.4955 53.0882V53.0533C61.4955 52.939 61.5471 52.7898 61.6615 52.6372C61.7701 52.4922 61.9053 52.3851 62.015 52.3324C62.0169 52.3829 62.0142 52.4552 61.9999 52.5559ZM55.7412 53.099C55.7415 53.0985 55.744 53.1011 55.7478 53.1084C55.7428 53.1032 55.7409 53.0996 55.7412 53.099ZM62.1147 52.2993C62.1145 52.2997 62.111 52.3003 62.1049 52.2997C62.1119 52.2986 62.1149 52.2989 62.1147 52.2993Z" fill="#0D128A" stroke="black"/>
<path d="M54.3528 22.2191L54.2049 21.7415C53.1635 22.0642 52.1963 22.6025 51.3572 23.3209L51.3564 23.3216C50.5186 24.0418 49.8259 24.9291 49.3185 25.9304L49.3179 25.9316C49.1898 26.1861 49.0642 26.2827 49.0016 26.313C48.9788 26.324 48.9652 26.3268 48.9584 26.3271C48.95 26.3192 48.9221 26.287 48.911 26.2C48.8971 26.0907 48.915 25.9052 49.0415 25.6539L49.0415 25.6539L49.0426 25.6518C49.6496 24.4318 50.4806 23.3542 51.4854 22.4811C52.4693 21.6264 53.6005 20.9822 54.8143 20.5866C54.8097 20.6478 54.7978 20.7214 54.7769 20.8048C54.7223 21.0227 54.6176 21.261 54.4899 21.4513C54.3511 21.6581 54.2382 21.7309 54.2012 21.7427L54.3528 22.2191ZM54.3528 22.2191C55.1476 21.9661 55.8523 19.7366 54.7427 20.0844C53.4322 20.4987 52.2131 21.1866 51.1575 22.1037C50.1019 23.0208 49.2307 24.1514 48.5949 25.429C47.9502 26.7098 49.1197 27.4372 49.7645 26.1564C50.2428 25.2124 50.8951 24.3775 51.6823 23.7007C52.471 23.0255 53.3782 22.5211 54.3528 22.2191ZM48.9528 26.3262C48.9529 26.3259 48.9545 26.3259 48.9571 26.3271C48.954 26.3271 48.9527 26.3265 48.9528 26.3262Z" fill="#0D128A" stroke="black"/>
<path d="M72.2363 25.9599L72.2363 25.9599L66.1236 21.6024L66.2164 21.1111C66.2158 21.111 66.2152 21.1109 66.2147 21.1108C66.2101 21.1099 66.2064 21.109 66.2037 21.1082C66.2006 21.101 66.1959 21.0877 66.1919 21.066C66.1726 20.9613 66.1902 20.7749 66.2751 20.5484C66.3575 20.3283 66.4813 20.1302 66.6042 20.0055C66.6852 19.9232 66.7328 19.9029 66.7476 19.8981C68.065 20.1443 69.3088 20.7292 70.3663 21.6036C71.4269 22.4804 72.268 23.6203 72.8148 24.9264L72.8229 24.9457L72.8325 24.9642C72.8502 24.9983 72.8736 25.1043 72.8104 25.3005C72.7507 25.4858 72.6342 25.6807 72.4974 25.8279C72.4301 25.9003 72.3659 25.9525 72.3121 25.9854C72.2924 25.9974 72.2756 26.0059 72.262 26.0117C72.2547 25.9993 72.2459 25.9824 72.2363 25.9599ZM66.1965 21.1056C66.1965 21.1056 66.1968 21.1058 66.1974 21.1061L66.1965 21.1056Z" fill="#0D128A" stroke="black"/>
</svg>
