<svg width="110" height="120" viewBox="0 0 110 120" fill="none" xmlns="http://www.w3.org/2000/svg">
<path d="M96.2498 104.135H13.7498C12.5343 104.135 11.3685 103.613 10.5089 102.683C9.64939 101.753 9.1665 100.492 9.1665 99.1764V61.9208C9.16643 61.2122 9.30671 60.5119 9.57789 59.8669C9.84907 59.222 10.2449 58.6474 10.7386 58.1819L27.4998 42.3682V19.8353C27.4998 18.5201 27.9827 17.2588 28.8423 16.3289C29.7018 15.3989 30.8676 14.8765 32.0832 14.8765H96.2498C97.4654 14.8765 98.6312 15.3989 99.4907 16.3289C100.35 17.2588 100.833 18.5201 100.833 19.8353V99.1764C100.833 100.492 100.35 101.753 99.4907 102.683C98.6312 103.613 97.4654 104.135 96.2498 104.135ZM41.2498 94.2176H54.9998V64.1771L36.6665 46.8807L18.3332 64.1771V94.2176H32.0832V74.3823H41.2498V94.2176ZM64.1665 94.2176H91.6665V24.7941H36.6665V35.3415C37.739 35.3415 38.8161 35.7481 39.6777 36.5663L62.5944 58.1819C63.0881 58.6474 63.4839 59.222 63.7551 59.8669C64.0263 60.5119 64.1666 61.2122 64.1665 61.9208V94.2176ZM73.3332 54.547H82.4998V64.4647H73.3332V54.547ZM73.3332 74.3823H82.4998V84.3H73.3332V74.3823ZM73.3332 34.7118H82.4998V44.6294H73.3332V34.7118ZM54.9998 34.7118H64.1665V44.6294H54.9998V34.7118Z" fill="white"/>
</svg>
