<svg width="42" height="37" viewBox="0 0 42 37" fill="none" xmlns="http://www.w3.org/2000/svg">
<path d="M21.1012 24.9295L12.8983 32.1559C11.9051 33.0003 10.5788 33.4721 9.19852 33.4721C7.81828 33.4721 6.4919 33.0003 5.49876 32.1559C5.01167 31.7284 4.62517 31.2205 4.36145 30.6612C4.09774 30.1019 3.96198 29.5022 3.96198 28.8965C3.96198 28.2909 4.09774 27.6912 4.36145 27.1319C4.62517 26.5726 5.01167 26.0646 5.49876 25.6372L13.7017 18.4109C14.0998 18.0602 14.3234 17.5845 14.3234 17.0885C14.3234 16.5925 14.0998 16.1169 13.7017 15.7662C13.3036 15.4155 12.7636 15.2184 12.2006 15.2184C11.6376 15.2184 11.0977 15.4155 10.6996 15.7662L2.49666 23.0112C0.844151 24.5957 -0.0495752 26.6815 0.00212417 28.8328C0.0538236 30.9841 1.04695 33.0346 2.77411 34.5561C4.50126 36.0777 6.8289 36.9526 9.27092 36.9981C11.7129 37.0437 14.0805 36.2563 15.8792 34.8006L24.1033 27.5742C24.5014 27.2235 24.725 26.7478 24.725 26.2518C24.725 25.7559 24.5014 25.2802 24.1033 24.9295C23.7052 24.5788 23.1652 24.3818 22.6022 24.3818C22.0392 24.3818 21.4993 24.5788 21.1012 24.9295ZM39.2406 2.43091C37.4621 0.873904 35.0566 0 32.5493 0C30.042 0 27.6365 0.873904 25.858 2.43091L17.634 9.65728C17.4369 9.83093 17.2805 10.0371 17.1738 10.264C17.0671 10.4909 17.0122 10.734 17.0122 10.9796C17.0122 11.2252 17.0671 11.4684 17.1738 11.6953C17.2805 11.9222 17.4369 12.1283 17.634 12.302C17.8311 12.4756 18.0651 12.6134 18.3227 12.7074C18.5802 12.8013 18.8563 12.8497 19.135 12.8497C19.4138 12.8497 19.6898 12.8013 19.9474 12.7074C20.2049 12.6134 20.4389 12.4756 20.6361 12.302L28.839 5.07561C29.8321 4.23122 31.1585 3.75933 32.5387 3.75933C33.919 3.75933 35.2453 4.23122 36.2385 5.07561C36.7256 5.50302 37.1121 6.01096 37.3758 6.57028C37.6395 7.12959 37.7753 7.72928 37.7753 8.33493C37.7753 8.94058 37.6395 9.54026 37.3758 10.0996C37.1121 10.6589 36.7256 11.1668 36.2385 11.5942L28.0356 18.8206C27.8374 18.9937 27.6802 19.1997 27.5728 19.4267C27.4655 19.6537 27.4102 19.8971 27.4102 20.143C27.4102 20.3888 27.4655 20.6323 27.5728 20.8592C27.6802 21.0862 27.8374 21.2922 28.0356 21.4653C28.2321 21.6399 28.466 21.7784 28.7236 21.873C28.9812 21.9675 29.2575 22.0162 29.5366 22.0162C29.8157 22.0162 30.0921 21.9675 30.3497 21.873C30.6073 21.7784 30.8411 21.6399 31.0377 21.4653L39.2406 14.2203C41.008 12.6536 42 10.5345 42 8.32561C42 6.11678 41.008 3.99765 39.2406 2.43091ZM14.1668 24.5198C14.3643 24.6924 14.5986 24.8289 14.8562 24.9216C15.1138 25.0143 15.3896 25.0613 15.6678 25.0599C15.9461 25.0613 16.2219 25.0143 16.4795 24.9216C16.737 24.8289 16.9713 24.6924 17.1689 24.5198L27.5705 15.3564C27.9686 15.0057 28.1922 14.53 28.1922 14.0341C28.1922 13.5381 27.9686 13.0624 27.5705 12.7117C27.1724 12.361 26.6324 12.164 26.0694 12.164C25.5064 12.164 24.9665 12.361 24.5684 12.7117L14.1668 21.875C13.9686 22.0482 13.8113 22.2542 13.704 22.4811C13.5967 22.7081 13.5414 22.9515 13.5414 23.1974C13.5414 23.4433 13.5967 23.6867 13.704 23.9137C13.8113 24.1406 13.9686 24.3466 14.1668 24.5198Z" fill="white"/>
</svg>
