<svg width="53" height="53" viewBox="0 0 53 53" fill="none" xmlns="http://www.w3.org/2000/svg">
<path d="M39.9558 17.8163C39.9558 17.4331 39.8097 17.0503 39.5172 16.7578C38.9329 16.1732 37.9851 16.1732 37.4008 16.7578L26.485 27.6736L15.5691 16.7578C14.9845 16.1732 14.0367 16.1732 13.4524 16.7578C12.8681 17.3424 12.8681 18.2899 13.4524 18.8745L25.4265 30.8486C25.7072 31.1294 26.0877 31.2871 26.485 31.2871C26.8822 31.2871 27.2627 31.1297 27.5432 30.8486L39.5172 18.8745C39.8094 18.5824 39.9558 18.1992 39.9558 17.8163Z" fill="#7AC3FF"/>
<path d="M39.9557 27.2939C39.9557 26.9107 39.8096 26.5278 39.5171 26.2353C38.9328 25.6507 37.985 25.6507 37.4007 26.2353L26.4848 37.1509L15.569 26.2353C14.9844 25.6507 14.0366 25.6507 13.4523 26.2353C12.868 26.8203 12.8683 27.7677 13.4523 28.3521L25.4263 40.3258C26.011 40.9104 26.9587 40.9104 27.5431 40.3258L39.5171 28.3521C39.8093 28.0599 39.9557 27.677 39.9557 27.2939Z" fill="#7AC3FF"/>
<circle cx="26.5" cy="26.5" r="24.5" stroke="#7AC3FF" stroke-width="4"/>
</svg>
