<svg width="107" height="100" viewBox="0 0 107 100" fill="none" xmlns="http://www.w3.org/2000/svg">
<path d="M22.8837 47.8609C21.0721 47.4949 19.1832 47.3015 17.2408 47.3015V33.4242C17.2408 30.6387 16.0588 28.0924 14.1085 26.1379C13.8978 25.9262 13.6764 25.7213 13.4496 25.5256C11.107 23.502 7.87084 22.252 4.29283 22.252C3.02818 22.252 2.00098 23.1383 2.00098 24.2295V67.521C2.00098 69.4386 2.70811 71.3079 4.02324 72.855L17.969 89.2622V98.2727H53.3765V68.4786L41.7812 66.3423C41.1755 61.3605 38.5797 56.8921 34.6922 53.5378C31.4988 50.7822 27.4328 48.7794 22.8837 47.8609Z" fill="#FFD3AE"/>
<path d="M92.6473 26.1378C90.6971 28.0922 89.515 30.6383 89.515 33.4241V47.3014C87.5727 47.3014 85.6837 47.4947 83.8722 47.8608C84.5873 46.1272 84.9474 44.3178 84.9474 42.5014V42.3748C84.9155 38.9424 83.6108 35.5192 81.0308 32.6784V11.8003C81.0308 9.0331 83.6293 6.78857 86.8363 6.78857C90.0433 6.78857 92.6446 9.0331 92.6446 11.8003V26.1356L92.6473 26.1378Z" fill="#FFD3AE"/>
<path d="M81.0311 6.73803V32.6784C80.5723 32.172 80.0706 31.6839 79.5317 31.2188C76.6769 28.7556 73.1204 27.2661 69.4199 26.7505V6.73803C69.4199 3.97085 72.016 1.72632 75.2255 1.72632C78.4325 1.72632 81.0311 3.97085 81.0311 6.73803Z" fill="#FFD3AE"/>
<path d="M74.7551 11.8005V6.73803C74.7551 4.80073 76.0284 3.12085 77.8917 2.28686C77.0927 1.92925 76.1857 1.72632 75.223 1.72632C72.016 1.72632 69.4199 3.97085 69.4199 6.73803V11.8003V32.6784C69.8787 32.172 70.3803 31.6839 70.9193 31.2188C72.0918 30.2071 73.3843 29.3624 74.7551 28.6792V11.8005Z" fill="#E5B48F"/>
<path d="M86.366 16.8626V11.8003C86.366 9.86298 87.6392 8.1831 89.5026 7.34912C88.7035 6.9915 87.7965 6.78857 86.8338 6.78857C83.6268 6.78857 81.0308 9.0331 81.0308 11.8003V16.8626V37.7407C81.4896 37.2342 84.9952 48.1584 86.366 47.4752V16.8626Z" fill="#E5B48F"/>
<path d="M37.3392 6.73803V26.7505C33.6387 27.2661 30.0822 28.7556 27.2274 31.2188C26.6885 31.6839 26.1869 32.172 25.728 32.6784V6.73803C25.728 3.97085 28.3241 1.72632 31.5311 1.72632C34.7404 1.72632 37.3392 3.97085 37.3392 6.73803Z" fill="#FFD3AE"/>
<path d="M31.0632 11.8005V6.73803C31.0632 4.80073 32.3365 3.12085 34.1999 2.28686C33.4008 1.92925 32.4938 1.72632 31.5311 1.72632C28.3241 1.72632 25.728 3.97085 25.728 6.73803V11.8003V32.6784C26.1869 32.172 26.6885 31.6839 27.2274 31.2188C28.3999 30.2071 29.6924 29.3624 31.0632 28.6792V11.8005Z" fill="#E5B48F"/>
<path d="M25.7277 11.8003V32.6784C23.1477 35.5192 21.843 38.9424 21.8111 42.3748V42.5014C21.8111 44.3178 22.166 46.1272 22.881 47.8608C21.0695 47.4947 19.1831 47.3014 17.2434 47.3014V33.4241C17.2434 30.6385 16.0614 28.0922 14.1084 26.1378L14.1111 26.1354V11.8003C14.1111 9.0331 16.7124 6.78857 19.9194 6.78857C23.1264 6.78838 25.7277 9.0331 25.7277 11.8003Z" fill="#FFD3AE"/>
<path d="M19.5906 17.3255V12.2632C19.5906 10.3259 20.8638 8.64599 22.7272 7.81201C21.9282 7.45439 21.0212 7.25146 20.0585 7.25146C16.8514 7.25146 14.2554 9.49599 14.2554 12.2632V17.3255L17.2435 35.5145C17.7023 35.0081 15.7548 50.7524 15.7548 47.3014C15.7548 45.8703 18.2198 48.5442 19.5906 47.8608V17.3255Z" fill="#E5B48F"/>
<path d="M37.3396 7.72803V26.7505C33.6391 27.2661 30.0826 28.7555 27.2278 31.2188C26.6888 31.6838 26.1872 32.1719 25.7284 32.6784C23.1484 35.5192 21.8437 38.9424 21.8118 42.3748C20.5684 42.1723 19.2931 42.0502 17.9911 42.018C17.5029 39.9692 17.2441 37.8465 17.2441 35.6733C17.2441 28.0256 20.4351 21.0225 25.7284 15.5987C28.9164 12.3347 32.8652 9.64345 37.3396 7.72803Z" fill="#E5B48F"/>
<path d="M89.5126 35.6735C89.5126 37.8467 89.2539 39.9692 88.7657 42.0182C87.4664 42.0504 86.1911 42.1725 84.9477 42.375C84.9158 38.9426 83.6111 35.5194 81.0311 32.6786C80.5723 32.1721 80.0706 31.684 79.5317 31.219C76.6769 28.7557 73.1204 27.2663 69.4199 26.7507V7.72803C73.8968 9.64345 77.8456 12.3368 81.0313 15.6036C86.3244 21.0272 89.5126 28.0282 89.5126 35.6735Z" fill="#E5B48F"/>
<path d="M89.5128 40.9684C89.5128 43.1416 89.254 45.264 88.7658 47.3131C75.4816 47.6537 64.8361 57.0511 64.8361 68.5939V70.5484C61.2368 71.5867 57.3843 72.1484 53.3796 72.1484C49.3749 72.1484 45.5223 71.5867 41.9203 70.546V68.5939C41.9203 57.0509 31.2721 47.6513 17.9906 47.3131C17.5024 45.2642 17.2437 43.1416 17.2437 40.9684C17.2437 23.7485 33.4227 9.78833 53.3796 9.78833C73.3365 9.78833 89.5128 23.7485 89.5128 40.9684Z" fill="#2BA5F7"/>
<path d="M62.5843 71.124C59.6442 71.7892 56.5599 72.146 53.3796 72.146C49.3749 72.146 45.5223 71.5843 41.9203 70.546V68.5939C41.9203 57.0509 31.2748 47.6537 17.9933 47.3131C17.5024 45.2642 17.2437 43.1439 17.2437 40.9684C17.2437 23.7485 33.4227 9.78833 53.3796 9.78833C56.5599 9.78833 59.6442 10.1452 62.5843 10.8104C47.0857 14.3235 35.6532 26.4924 35.6532 40.9684C35.653 55.4418 47.0855 67.6109 62.5843 71.124Z" fill="#0F8DD3"/>
<path d="M83.8723 47.8609C85.6838 47.4949 87.5727 47.3015 89.5151 47.3015V33.4242C89.5151 30.6387 90.6971 28.0924 92.6474 26.1379C92.8581 25.9262 93.0795 25.7213 93.3063 25.5256C95.6489 23.502 98.8851 22.252 102.463 22.252C103.728 22.252 104.755 23.1383 104.755 24.2295V67.521C104.755 69.4386 104.048 71.3079 102.733 72.855L88.7869 89.2622V98.2727H53.3794V72.1458L64.0516 71.2411L64.9747 66.3421C65.5804 61.3603 68.1763 56.8919 72.0637 53.5376C75.2572 50.7822 79.3234 48.7794 83.8723 47.8609Z" fill="#FFD3AE"/>
<path d="M10.2924 72.855C8.97976 71.3079 8.27013 69.4386 8.27013 67.521V24.2295C8.27013 23.7437 8.47408 23.299 8.81203 22.9553C7.405 22.5029 5.88434 22.252 4.29532 22.252C3.66311 22.252 3.08681 22.473 2.67325 22.832C2.25698 23.1889 2.00098 23.6838 2.00098 24.2295V67.521C2.00098 69.4386 2.7106 71.3079 4.02324 72.855L17.969 89.2622V98.2727H24.2384V89.2622L10.2924 72.855Z" fill="#E5B48F"/>
<path d="M90.4672 48.8968C93.6255 48.8968 96.1861 46.6875 96.1861 43.9623V33.4242C96.1861 30.6387 97.3681 28.0924 99.3184 26.1379C99.5291 25.9262 99.7505 25.7213 99.9773 25.5256C101.202 24.468 102.672 23.6244 104.305 23.0574C103.888 22.5699 103.219 22.252 102.463 22.252C98.8854 22.252 95.6489 23.502 93.3064 25.5256C93.0796 25.7213 92.8582 25.9262 92.6475 26.1379C90.6972 28.0924 89.5151 30.6385 89.5151 33.4242V48.8968H90.4672Z" fill="#E5B48F"/>
<path d="M61.6982 71.124V98.273H53.3794V72.1486L61.6982 71.124Z" fill="#E5B48F"/>
<path d="M35.1479 68.691C34.1368 68.691 33.2683 68.0316 33.1603 67.1447C32.4491 61.3018 27.5256 56.4799 20.9092 55.1467C19.8329 54.9299 19.1642 54.0012 19.4157 53.0727C19.667 52.144 20.7433 51.5676 21.8194 51.784C30.0943 53.4514 36.2514 59.4793 37.1405 66.784C37.256 67.7324 36.4585 68.582 35.3596 68.6816C35.2883 68.6881 35.2179 68.691 35.1479 68.691Z" fill="white"/>
<path d="M98.0855 69.2475C96.9802 69.2475 96.0845 68.4745 96.0845 67.521V55.8169C96.0845 54.8634 96.9802 54.0903 98.0855 54.0903C99.1908 54.0903 100.086 54.8634 100.086 55.8169V67.521C100.086 68.4745 99.191 69.2475 98.0855 69.2475Z" fill="white"/>
<path d="M102.463 20.5252C99.5989 20.5252 96.9218 21.2248 94.646 22.4343V11.8008C94.646 8.08514 91.1429 5.06249 86.8367 5.06249C85.4331 5.06249 84.1159 5.38554 82.9767 5.94764C82.5215 2.60351 79.2198 0 75.2256 0C70.9207 0 67.4185 3.02265 67.4185 6.73827V10.3728C63.0716 8.88221 58.3344 8.0619 53.3793 8.0619C48.4241 8.0619 43.6874 8.88221 39.34 10.3726V6.73827C39.34 3.02265 35.8369 0 31.5307 0C27.5371 0 24.2368 2.60371 23.7821 5.94823C22.6419 5.38573 21.3241 5.06269 19.9193 5.06269C15.6131 5.06269 12.11 8.08534 12.11 11.801V22.4337C9.83449 21.2244 7.1576 20.525 4.29465 20.525C1.92652 20.525 0 22.1873 0 24.2306V67.5217C0 69.8229 0.833443 72.0198 2.41046 73.8755L15.9676 89.8272V98.2733C15.9676 99.2268 16.8635 99.9998 17.9686 99.9998C19.0737 99.9998 19.9696 99.2268 19.9696 98.2733V89.2617C19.9696 88.8946 19.8338 88.5367 19.5823 88.2409L5.63785 71.8333C4.56764 70.5741 4.00197 69.0831 4.00197 67.5216V24.2306C4.00197 24.0916 4.13326 23.9781 4.29465 23.9781C10.3311 23.9781 15.2419 28.2154 15.2419 33.424V47.3021C15.2419 48.2556 16.1378 49.0286 17.2429 49.0286C29.7466 49.0286 39.919 57.8059 39.919 68.5952V74.2315C39.919 75.185 40.8149 75.9581 41.92 75.9581C43.0251 75.9581 43.921 75.185 43.921 74.2315V72.8526C46.3557 73.3897 48.8497 73.7163 51.3776 73.8292V98.2731C51.3776 99.2266 52.2735 99.9996 53.3786 99.9996C54.4837 99.9996 55.3796 99.2266 55.3796 98.2731V73.8292C57.9068 73.7167 60.4006 73.3901 62.8351 72.854V74.2315C62.8351 75.185 63.7308 75.9581 64.836 75.9581C65.9413 75.9581 66.837 75.185 66.837 74.2315V68.5952C66.837 57.8063 77.0097 49.0286 89.5136 49.0286C90.6189 49.0286 91.5146 48.2556 91.5146 47.3021V33.424C91.5146 28.2154 96.4254 23.9781 102.462 23.9781C102.623 23.9781 102.755 24.0914 102.755 24.2306V67.5217C102.755 69.0833 102.189 70.5741 101.118 71.8335L87.174 88.241C86.9225 88.5371 86.7867 88.8948 86.7867 89.2619V98.2734C86.7867 99.227 87.6824 100 88.7877 100C89.893 100 90.7887 99.227 90.7887 98.2734V89.8274L104.346 73.8758C105.923 72.0204 106.757 69.8231 106.757 67.5219V24.2306C106.757 22.1873 104.831 20.5252 102.463 20.5252ZM69.7939 53.1095C65.2998 51.2599 60.38 50.1839 55.3807 49.9565V42.6964H73.0005C72.8835 45.7089 72.4572 48.6431 71.7324 51.4491C71.0538 51.9735 70.4073 52.5284 69.7939 53.1095ZM35.0263 51.4503C34.3004 48.6405 33.8737 45.7058 33.7562 42.6962H51.3787V49.9563C46.3781 50.1835 41.4573 51.2597 36.963 53.1091C36.3498 52.5288 35.7043 51.9745 35.0263 51.4503ZM77.0052 39.2429C76.8392 34.7824 76.0314 30.4093 74.6386 26.433C76.5683 25.316 78.3862 24.0435 80.0646 22.6261C84.3332 27.241 87.0302 32.9822 87.4515 39.2427H77.0049L77.0052 39.2429ZM55.3807 11.674C60.0113 12.4092 64.4094 15.6689 67.6809 20.8699C68.4695 22.1205 69.1864 23.4802 69.822 24.9251C65.406 27.0189 60.4735 28.2642 55.3809 28.5236L55.3807 11.674ZM51.3787 28.5234C46.2857 28.2636 41.353 27.0187 36.9374 24.9251C37.5726 23.4806 38.2899 22.1203 39.0797 20.8681C42.3501 15.6685 46.7482 12.409 51.3792 11.6738V28.5234H51.3787ZM51.3787 31.9837V39.2433H33.7551C33.907 35.4296 34.5598 31.6937 35.6728 28.2574C40.5032 30.4417 45.859 31.7318 51.3787 31.9837ZM55.3807 31.9837C60.9002 31.7322 66.2555 30.4417 71.0862 28.257C72.198 31.6913 72.8502 35.4275 73.0018 39.2429H55.3807V31.9837ZM73.2703 23.0523C72.6444 21.7007 71.9518 20.4168 71.1973 19.2209C69.9327 17.2107 68.5037 15.4463 66.9504 13.9461C70.8639 15.4152 74.3989 17.4984 77.3897 20.0556C76.1036 21.1521 74.7253 22.1531 73.2703 23.0523ZM35.563 19.2193C34.8077 20.417 34.1148 21.7011 33.4889 23.0529C32.0332 22.1533 30.6545 21.1523 29.3683 20.0552C32.358 17.4992 35.8915 15.4168 39.8033 13.9476C38.2521 15.4468 36.8258 17.2117 35.563 19.2193ZM26.6928 22.6257C28.3715 24.0433 30.1898 25.3162 32.1201 26.4335C30.726 30.4121 29.9177 34.7853 29.7515 39.2431H19.3048C19.726 32.9824 22.4235 27.2408 26.6928 22.6257ZM19.305 42.6962H29.7509C29.8235 44.6788 30.0196 46.6335 30.3403 48.5474C27.1374 46.9833 23.5252 45.9743 19.6792 45.6722C19.4969 44.6876 19.372 43.6935 19.305 42.6962ZM77.0054 42.6962H87.4513C87.384 43.6933 87.2591 44.6874 87.0769 45.6722C83.2318 45.9741 79.62 46.9829 76.4173 48.5468C76.7376 46.6345 76.9332 44.68 77.0054 42.6962ZM86.8367 8.51561C88.9359 8.51561 90.644 9.98924 90.644 11.8008V25.539C89.8407 26.4333 89.1691 27.4197 88.6577 28.4785C87.2421 25.5119 85.3382 22.7621 83.0323 20.3031V11.8008C83.0321 9.98943 84.7388 8.51561 86.8367 8.51561ZM71.4207 6.73827C71.4207 4.92675 73.1275 3.45312 75.2256 3.45312C77.3236 3.45312 79.0302 4.92675 79.0302 6.73827V11.8008V16.6394C76.732 14.8336 74.1775 13.2674 71.4207 11.9844V6.73827ZM27.7288 6.73827C27.7288 4.92675 29.4344 3.45312 31.5307 3.45312C33.6302 3.45312 35.338 4.92675 35.338 6.73827V11.984C32.5814 13.2668 30.027 14.8326 27.7288 16.6383V11.8008V6.73827ZM19.9195 8.51561C22.019 8.51561 23.7269 9.98924 23.7269 11.8008V20.3009C21.4201 22.7601 19.5157 25.5107 18.0992 28.4779C17.5876 27.4191 16.916 26.4324 16.112 25.538V11.8008C16.1122 9.98943 17.8203 8.51561 19.9195 8.51561ZM39.4901 55.9048C43.2274 54.4698 47.2704 53.621 51.3785 53.4128V70.3667C48.8422 70.2403 46.345 69.8782 43.9214 69.2755V68.5954C43.9214 63.9087 42.2889 59.5454 39.4901 55.9048ZM62.8355 68.5952V69.2768C60.4121 69.8788 57.9157 70.2403 55.3807 70.3667V53.4132C59.4879 53.6218 63.53 54.4706 67.2669 55.9056C64.468 59.5456 62.8355 63.9087 62.8355 68.5952Z" fill="#333333"/>
<path d="M82.7352 44.903C82.678 44.903 82.62 44.9008 82.5621 44.8965C81.4609 44.8151 80.6448 43.9789 80.7392 43.0287C80.8074 42.3452 80.8418 41.652 80.8418 40.9684C80.8418 28.9624 70.4328 18.8452 56.6296 17.435C55.5322 17.3229 54.7479 16.4645 54.8778 15.5173C55.0078 14.5702 56.0026 13.8952 57.1004 14.0057C72.9168 15.6214 84.844 27.2128 84.844 40.9682C84.844 41.75 84.8048 42.5424 84.7272 43.3235C84.6373 44.2235 83.7629 44.903 82.7352 44.903Z" fill="white"/>
<path d="M50.6973 17.3747C51.8024 17.3747 52.6983 16.6017 52.6983 15.6482C52.6983 14.6946 51.8024 13.9216 50.6973 13.9216C49.5922 13.9216 48.6963 14.6946 48.6963 15.6482C48.6963 16.6017 49.5922 17.3747 50.6973 17.3747Z" fill="white"/>
</svg>
