<svg width="61" height="61" viewBox="0 0 61 61" fill="none" xmlns="http://www.w3.org/2000/svg">
<path d="M56.6667 4.99939H20.7917V1.87939C20.7917 0.136057 19.5584 -0.512276 18.0501 0.437724L1.15006 11.0861C-0.358277 12.0361 -0.386611 13.6311 1.08672 14.6311L18.1117 26.1827C19.5851 27.1861 20.7901 26.5744 20.7901 24.8311V21.6661H56.6667C57.5508 21.6661 58.3986 21.3149 59.0237 20.6897C59.6489 20.0646 60.0001 19.2168 60.0001 18.3327V8.33272C60.0001 7.44867 59.6489 6.60082 59.0237 5.9757C58.3986 5.35058 57.5508 4.99939 56.6667 4.99939ZM0.0400558 43.6394C0.0400558 42.4277 0.873389 41.7444 2.03506 41.7444H6.88339C9.51006 41.7444 11.6317 43.5127 11.6317 46.1894C11.6317 47.9577 10.9001 49.1427 9.28339 49.9011V49.9511C11.4301 50.2561 13.1217 52.0477 13.1217 54.2444C13.1217 57.8061 10.7484 59.7244 7.26172 59.7244H2.06172C0.900056 59.7244 0.0417225 58.9927 0.0417225 57.8061V43.6394H0.0400558ZM3.82839 48.8644H5.79839C7.03506 48.8644 7.84339 48.1327 7.84339 46.8711C7.84339 45.6827 6.90839 45.0777 5.79839 45.0777H3.82839V48.8644ZM3.82839 56.3911H6.80839C8.17172 56.3911 9.18172 55.6077 9.18172 54.1944C9.18172 53.0077 8.27339 52.1994 6.50506 52.1994H3.82839V56.3911ZM19.1901 43.5361C19.6201 42.3761 20.6067 41.4411 21.8917 41.4411C23.2334 41.4411 24.1667 42.3244 24.5934 43.5361L29.5451 57.2744C29.6984 57.6777 29.7467 58.0311 29.7467 58.2094C29.7467 59.1944 28.9401 59.8761 28.0051 59.8761C26.9434 59.8761 26.4134 59.3211 26.1601 58.5627L25.4051 56.1894H18.3834L17.6251 58.5377C17.3751 59.3211 16.8434 59.8761 15.8084 59.8761C14.7967 59.8761 13.9384 59.1194 13.9384 58.1077C13.9384 57.7044 14.0651 57.4011 14.1151 57.2744L19.1901 43.5361ZM19.4701 52.7044H24.2684L21.9184 45.3794H21.8701L19.4701 52.7044ZM38.4334 41.4411C40.2767 41.4411 43.8634 42.0461 43.8634 44.2677C43.8634 45.1777 43.2317 45.9611 42.2967 45.9611C41.2617 45.9611 40.5534 45.0777 38.4334 45.0777C35.3017 45.0777 33.6851 47.7294 33.6851 50.8094C33.6851 53.8144 35.3267 56.3911 38.4334 56.3911C40.5534 56.3911 41.4134 55.3294 42.4484 55.3294C43.5851 55.3294 44.1151 56.4661 44.1151 57.0461C44.1151 59.4711 40.3017 60.0261 38.4334 60.0261C33.3067 60.0261 29.7467 55.9611 29.7467 50.7327C29.7467 45.4811 33.2817 41.4411 38.4334 41.4411ZM45.8851 43.4611C45.8851 42.4261 46.6434 41.5927 47.7801 41.5927C48.8651 41.5927 49.6751 42.2994 49.6751 43.4611V48.9161L55.8867 42.2994C56.1651 41.9961 56.6451 41.5927 57.3517 41.5927C58.3117 41.5927 59.2201 42.3244 59.2201 43.4111C59.2201 44.0661 58.8167 44.5977 57.9834 45.4311L53.2117 50.1277L59.0451 56.2127C59.6501 56.8194 60.1067 57.3744 60.1067 58.1327C60.1067 59.3194 59.1701 59.8744 58.1351 59.8744C57.4017 59.8744 56.9234 59.4444 56.2167 58.6877L49.6767 51.6161V58.0561C49.6767 59.0411 48.9184 59.8744 47.7817 59.8744C46.6967 59.8744 45.8867 59.1677 45.8867 58.0561L45.8851 43.4611Z" fill="white"/>
</svg>
