<svg width="54" height="54" viewBox="0 0 54 54" fill="none" xmlns="http://www.w3.org/2000/svg">
<path d="M50.9696 16.8727C48.4581 10.9111 43.8212 6.09537 37.9588 3.3603C32.0964 0.625225 25.4269 0.165978 19.245 2.07171C13.0631 3.97743 7.80977 8.11218 4.5049 13.6733C1.20003 19.2344 0.0793608 25.8251 1.36045 32.1659C2.64154 38.5068 6.23299 44.1455 11.4376 47.9874C16.6422 51.8293 23.0887 53.6002 29.5256 52.9565C35.9625 52.3127 41.9306 49.3002 46.2713 44.5038C50.612 39.7073 53.0157 33.4691 53.0157 27.0001C53.0203 23.5212 52.3244 20.077 50.9696 16.8727ZM27.0001 49.5001C14.5782 49.5001 4.50007 39.4219 4.50007 27.0001C4.50007 14.5782 14.5782 4.50007 27.0001 4.50007C39.4219 4.50007 49.5001 14.5782 49.5001 27.0001C49.5001 39.4219 39.4219 49.5001 27.0001 49.5001ZM30.2883 13.4848L43.8036 27.0001L30.2883 40.5153L27.8028 38.0298L37.0782 28.7579H12.6821V25.2423H37.0782L27.8063 15.9704L30.2883 13.4848Z" fill="#4FC8B7"/>
</svg>
