<svg width="209" height="279" viewBox="0 0 209 279" fill="none" xmlns="http://www.w3.org/2000/svg">
<path d="M158 112.45C171.447 109.522 187.308 102.716 193.511 89.336C201.063 73.439 196.233 51.2756 189.226 35.4043C188.231 33.1186 187.734 31.5777 185.391 30.8843C180.301 29.3948 174.24 28.3162 170.026 24.3869C172.794 24.3232 175.56 24.5466 178.288 25.0546C179.543 25.2344 179.377 23.488 178.904 22.7175C177.957 21.1766 177.057 19.5844 176.181 17.9664C175.069 15.8862 172.725 12.5732 172.749 10.0821C172.749 9.23462 172.867 9.6969 173.648 10.2619C175.848 12.2502 177.876 14.4506 179.709 16.8364C181.082 18.5828 182.076 16.8364 181.295 15.2442C180.514 13.6519 177.389 6.15281 178.928 6.05008C180.064 6.05008 182.384 9.31167 183.047 10.1335C183.71 10.9553 184.42 11.8028 185.059 12.7017C186.053 14.0371 187.569 13.241 186.858 11.5973C185.984 9.66684 185.294 7.64467 184.799 5.56213C184.538 4.32941 184.254 3.53327 185.485 4.30372C186.626 5.30814 187.581 6.53675 188.302 7.92485C190.67 11.5973 192.422 15.6294 194.647 19.4816C204.1 36.0469 209.063 55.1639 208.97 74.646C209.241 81.8125 207.685 88.9225 204.472 95.1914C197.748 107.673 184.609 115.994 171.47 120L158 112.45Z" fill="#FFDE26"/>
<path d="M54 108.45C40.5533 105.522 24.6919 98.7162 18.4894 85.336C10.9374 69.439 15.7669 47.2756 22.7743 31.4043C23.7686 29.1186 24.2658 27.5777 26.6095 26.8843C31.6993 25.3948 37.7598 24.3162 41.9737 20.3869C39.2063 20.3232 36.4397 20.5466 33.7116 21.0546C32.4569 21.2344 32.6226 19.488 33.0961 18.7175C34.043 17.1766 34.9426 15.5844 35.8185 13.9664C36.9312 11.8862 39.2749 8.57325 39.2512 6.08212C39.2512 5.23462 39.1329 5.6969 38.3516 6.2619C36.1523 8.25018 34.124 10.4506 32.2912 12.8364C30.9181 14.5828 29.9238 12.8364 30.705 11.2442C31.4862 9.65189 34.6112 2.15281 33.0724 2.05008C31.9361 2.05008 29.616 5.31167 28.9532 6.13348C28.2903 6.9553 27.5801 7.80279 26.9409 8.70166C25.9466 10.0371 24.4315 9.24097 25.1417 7.59734C26.0157 5.66684 26.7058 3.64467 27.2013 1.56213C27.4617 0.329409 27.7458 -0.466729 26.5148 0.303723C25.3744 1.30814 24.4187 2.53675 23.6976 3.92485C21.3302 7.59734 19.5783 11.6294 17.353 15.4816C7.9003 32.0469 2.93682 51.1639 3.03033 70.646C2.75877 77.8125 4.31523 84.9225 7.52835 91.1914C14.2517 103.673 27.3907 111.994 40.5296 116L54 108.45Z" fill="#FFDE26"/>
<path d="M96.6501 177.715L90.0832 184.367V254.238C90.0724 254.703 89.9528 255.154 89.7351 255.559C89.5174 255.961 89.2083 256.301 88.8357 256.547C81.5806 260.699 74.6957 265.534 68.2641 270.993C67.3461 271.861 64.9688 273.475 66.334 274.517C67.6796 275.108 69.1535 275.297 70.5943 275.063C77.2506 274.267 83.8027 272.693 90.1303 270.372C93.2137 269.33 100.275 268.163 100.487 264.068C100.487 263.77 100.675 268.089 96.6501 177.715Z" fill="white"/>
<path d="M127.649 263.198C117.104 256.05 116.916 256.968 116.916 255.752C116.916 255.752 116.916 208.591 116.916 190.05L110.066 183.075C109.925 186.203 106.489 253.294 106.442 262.131C106.442 265.358 108.207 266.872 110.914 267.889C117.834 270.496 129.32 274.417 136.663 274.963C138.094 275.199 139.557 275.097 140.947 274.665C140.955 274.608 140.955 274.549 140.947 274.492C137.126 269.989 132.634 266.174 127.649 263.198Z" fill="white"/>
<path d="M58.6132 129.214C56.1164 123.686 54.5248 117.754 53.9058 111.665L21.3301 129.288C61.3436 129.288 57.3422 129.338 58.6132 129.214Z" fill="#FFDE26"/>
<path d="M114.609 47.6018C112.655 40.1554 109.313 27.4718 106.653 18.4121C102.44 26.752 95.3316 41.7192 93.3074 50.903C100.165 48.473 107.378 47.3548 114.609 47.6018Z" fill="#FFDE26"/>
<path d="M69.2989 66.8382C74.4826 61.1194 80.6696 56.5176 87.5168 53.2858C79.9479 45.9723 71.6541 39.5398 62.7791 34.099C62.1907 33.7764 61.155 33.0565 60.1194 32.5105C65.7919 53.7574 66.8746 57.8033 69.2989 66.8382Z" fill="#FFDE26"/>
<path d="M75.2071 150.982C69.8759 146.559 65.3058 141.203 61.6966 135.147C57.6953 143.611 52.2817 155.425 48.7275 164.088C48.4922 164.709 48.2333 165.9 47.8567 166.794C47.8567 166.744 73.7242 151.851 75.2071 150.982Z" fill="#FFDE26"/>
<path d="M168.227 94.9358C174.04 89.7979 186.091 79.1247 186.091 78.9262C182.137 79.1744 190.234 78.3553 163.543 81.2097C165.632 85.5658 167.204 90.1751 168.227 94.9358Z" fill="#FFDE26"/>
<path d="M28.7678 65.8947C31.1215 68.2031 27.1673 63.7601 54.7766 95.6802C56.3613 88.106 59.3183 80.9252 63.4854 74.5325C26.2964 65.3238 29.3798 66.0933 28.7678 65.8947Z" fill="#FFDE26"/>
<path d="M150.409 148.451C146.059 152.514 141.186 155.907 135.934 158.528C137.911 160.713 151.492 175.903 152.245 176.772C152.08 174.19 150.574 151.032 150.409 148.451Z" fill="#FFDE26"/>
<path d="M138.593 54.2537C138.593 51.5978 139.299 34.8683 139.511 29.1595C138.687 30.3509 137.557 31.6416 136.993 32.4855L125.954 49.215C130.353 50.322 134.6 52.0148 138.593 54.2537Z" fill="#FFDE26"/>
<path d="M158.106 71.8772C168.133 48.5453 166.956 51.3501 167.239 50.4565C166.556 50.7792 168.745 49.5133 148.644 61.353C152.173 64.4631 155.35 67.9939 158.106 71.8772Z" fill="#FFDE26"/>
<path d="M83.9865 181.984L99.0033 163.021C92.8825 161.527 87.0268 159.012 81.6563 155.574C84.7397 192.881 83.2333 175.134 83.9865 181.984Z" fill="#FFDE26"/>
<path d="M165.402 132.564C164.932 131.894 164.296 131.174 163.731 130.43C161.48 135.094 158.654 139.425 155.328 143.312C160.036 144.603 164.743 146.191 169.616 147.581L177.83 150.063C177.124 149.17 178.301 150.783 165.402 132.564Z" fill="#FFDE26"/>
<path d="M169.427 104.914C169.539 111.412 168.51 117.876 166.391 123.977C187.104 117.697 143.866 131.1 194.636 115.314C169.427 104.691 173.405 106.354 169.427 104.914Z" fill="#FFDE26"/>
<path d="M119.74 185.409C121.081 180.296 125.083 165.006 125.765 162.474C120.076 164.125 114.168 164.78 108.277 164.41C109.548 166.743 119.646 185.21 119.74 185.409Z" fill="#FFDE26"/>
<path d="M163.613 125.218C173.028 100.397 160.836 73.4655 140.947 60.0125C129.36 52.4569 115.581 49.5528 102.131 51.8314C88.6806 54.1112 76.4579 61.4198 67.6987 72.4231C60.0773 82.1964 56.0199 94.5214 56.2595 107.173C57.507 140.011 91.9421 169.226 126.659 158.999C134.858 156.721 142.451 152.491 148.856 146.634C155.263 140.778 160.311 133.451 163.613 125.218ZM94.6725 76.593C98.5326 75.7987 100.204 80.2666 100.816 84.0394C101.381 80.341 103.052 76.1462 106.512 75.4264C111.431 74.4088 112.82 81.9296 112.937 85.5038C112.82 89.4504 111.431 96.5493 106.7 97.145C103.052 97.5918 101.357 93.3722 100.792 89.6986C100.18 93.4963 98.4384 97.8648 94.8608 98.3116C90.1533 98.8825 88.7175 91.8084 88.7175 88.1845C88.7175 84.5606 90.2004 77.5114 94.6725 76.593ZM123.764 119.186C121.575 129.785 108.254 134.377 99.3329 133.93C94.0214 133.491 88.9004 131.646 84.4417 128.571C79.9828 125.496 76.3296 121.286 73.8184 116.332C71.2293 111.566 67.5104 101.439 73.9596 98.0882C78.1963 95.8295 83.5864 99.0314 86.7875 101.861C94.343 108.538 94.5548 114.843 100.769 113.85C106.065 112.658 126.165 107.52 123.764 119.186Z" fill="#FFDE26"/>
<path d="M76.6904 113.502C78.6437 118.153 81.9383 122.035 86.1053 124.597C86.3868 123.199 86.3984 121.755 86.1397 120.353C85.8808 118.95 85.3568 117.615 84.5989 116.431C83.5847 115.331 82.3429 114.495 80.9709 113.986C79.5987 113.48 78.1335 113.313 76.6904 113.502Z" fill="#FF3E74"/>
<path d="M194.494 111.318C167.968 100.124 171.546 101.563 169.168 100.794C169.168 99.7514 168.909 98.7337 168.745 97.716L187.104 81.3588C192.988 76.1216 191.576 74.9053 187.104 75.4018L162.013 78.0824C161.236 76.6676 160.436 75.3273 159.659 73.9869C161.048 70.7354 167.073 56.6121 168.674 52.9386C170.651 48.3715 172.699 44.1022 166.72 47.6268L146.455 59.5162C144.713 58.146 142.906 56.8702 141.041 55.6937C141.041 52.0698 141.771 35.4396 141.959 30.7484C142.194 24.1211 141.959 20.8199 137.769 27.3727L123.647 48.6941C121.67 48.297 119.669 47.9991 117.645 47.8006C117.645 47.8006 110.772 22.0113 109.948 18.5115C109.525 16.9726 109.383 14.8628 108.183 13.7955C107.948 13.5721 107.5 13.7955 107.289 13.7955C105.358 14.838 104.393 18.0399 103.428 19.976C99.2152 28.4897 92.9308 42.0669 90.8359 51.3996C83.6507 44.5639 75.97 38.3318 67.8635 32.7589C65.651 31.3441 61.226 27.7947 58.4485 28.44C58.0435 28.5954 57.6864 28.865 57.4167 29.2194C57.1469 29.5739 56.9746 29.9998 56.9186 30.4505C56.3537 32.5603 57.8601 35.6382 58.3779 37.6239L66.8985 69.5191C65.6745 71.0829 65.9805 70.7105 65.5333 71.3311C63.8151 70.7354 68.0753 71.8275 27.2616 61.7749C25.2609 61.2785 22.5541 62.7429 23.8957 65.374C24.9695 66.9328 26.2094 68.3575 27.5911 69.6184L53.9529 100.099C53.7646 101.737 53.6469 103.375 53.5998 105.063C39.9717 102.209 23.8722 94.5389 19.1176 80.6142C15.7753 70.6857 16.7639 59.963 19.1176 50.0593C20.5198 44.3157 22.5249 38.754 25.0961 33.4787C31.6395 31.6668 39.1008 30.2768 43.7612 24.692C45.3618 22.756 45.8796 20.2987 42.9139 20.1249C40.6054 20.0562 38.2959 20.2225 36.0175 20.6213C36.9589 19.008 37.8534 17.3698 38.6772 15.6571C39.501 13.9444 42.4667 9.02984 41.0309 6.69664C39.9482 4.81023 37.2885 6.69664 34.8641 9.17876C35.8527 6.1754 36.2764 3.22168 34.4404 2.40258C32.9811 1.7324 31.0275 3.17203 29.2622 5.05844C29.8271 2.79971 29.8742 0.739553 28.3678 0.094202C25.2609 -1.04757 19.965 8.50859 18.2938 11.512C17.6348 12.7282 15.3517 17.0471 15.6341 16.6748C8.30667 28.5966 3.49078 42.0381 1.51176 56.0908C0.14659 65.1258 -0.841985 75.1039 1.04101 84.114C4.64222 101.34 19.8708 112.41 35.6409 118.169L24.2959 124.548C21.7331 125.709 19.248 127.052 16.858 128.569C15.7989 129.363 13.1862 132.714 18.8352 132.714H57.3188C58.3342 132.843 59.3561 132.9 60.3786 132.888C60.2609 133.136 48.8453 157.709 45.7384 165.726C44.9487 167.069 44.5935 168.645 44.7263 170.219C44.7613 170.37 44.8383 170.509 44.9471 170.613C45.056 170.72 45.1921 170.79 45.3382 170.814C46.5554 170.715 47.7179 170.241 48.6805 169.449C81.374 150.734 76.9254 153.514 77.6786 152.918L78.6907 153.663C78.6907 155.723 79.1143 157.907 79.3026 159.918C79.5851 163.418 80.762 177.591 81.0679 181.19C81.0679 182.605 81.0679 184.863 81.8682 186.154C81.9626 186.276 82.0883 186.365 82.2302 186.415C82.3721 186.464 82.5243 186.467 82.6685 186.427C83.916 186.03 84.5281 184.987 85.3517 183.945L87.3995 181.339V254.288C83.8689 256.423 80.3383 258.682 76.9489 261.04C72.5004 264.142 66.1923 267.841 63.6974 273.103C60.4728 279.929 70.7586 278.563 74.1009 278.067C79.1781 277.096 84.1815 275.736 89.0706 273.996C92.5542 272.83 97.6382 271.911 100.392 269.181C103.146 266.451 102.958 262.628 102.746 258.88C102.51 253.692 99.0034 177.119 98.5562 167.191C99.4266 165.984 100.362 164.833 101.357 163.74C102.299 163.922 103.24 164.071 104.182 164.187L108.065 171.286C107.406 185.931 103.758 258.905 103.805 264.192C103.805 271.216 111.808 272.383 116.868 274.12C123.294 276.255 130.285 278.737 137.11 278.687C140.005 278.687 144.454 277.496 143.607 273.376C142.877 269.876 138.523 266.972 136.028 265.036C132.024 261.836 127.868 258.853 123.576 256.1C122.501 255.303 121.377 254.581 120.211 253.941C120.003 253.812 119.835 253.625 119.722 253.402C119.61 253.179 119.56 252.928 119.575 252.675C119.434 250.193 119.457 260.345 119.575 190.001C119.821 189.937 120.048 189.81 120.234 189.629C121.451 188.043 122.211 186.122 122.423 184.094C123.435 180.197 127.366 165.23 128.307 161.755C129.767 161.258 131.179 160.712 132.591 160.117L148.879 178.137C152.504 182.158 155.446 185.087 154.787 174.96C154.528 170.914 153.045 147.656 152.951 146.366C156.764 147.656 146.784 144.678 178.324 153.986C179.454 154.333 180.513 154.904 181.572 153.986C181.863 153.765 182.108 153.482 182.289 153.157C182.472 152.829 182.587 152.467 182.629 152.092C182.672 151.715 182.639 151.335 182.534 150.972C182.429 150.61 182.254 150.277 182.02 149.989C179.36 145.72 178.983 145.745 167.497 129.512C167.12 128.941 166.414 128.172 165.826 127.402L193.718 118.715C202.874 115.91 201.038 114.073 194.494 111.318ZM186.091 78.9262C185.574 79.4474 183.738 81.1355 168.156 94.936C167.126 90.1741 165.546 85.5648 163.449 81.2099C190.211 78.3555 182.231 79.1744 186.091 78.9262ZM167.262 50.4564C166.932 51.4741 158.035 72.1254 158.129 71.8771C155.387 67.9976 152.227 64.4655 148.714 61.353C168.745 49.5132 166.509 50.7791 167.262 50.4564ZM136.993 32.4855C137.557 31.5919 138.687 30.3509 139.511 29.1595C139.299 34.8683 138.687 51.4986 138.593 54.2537C134.594 52.0459 130.348 50.3783 125.954 49.2898L136.993 32.4855ZM106.653 18.4121C107.877 22.582 111.102 34.3969 114.609 47.6018C107.378 47.3548 100.165 48.473 93.3074 50.903C95.3081 41.744 102.463 26.7024 106.653 18.4121ZM60.1194 32.5105C61.155 33.0565 62.1907 33.7764 62.7791 34.099C71.655 39.5381 79.9491 45.971 87.5168 53.2858C80.6696 56.5176 74.4826 61.1194 69.2989 66.8382C68.6634 64.4306 60.0488 32.2374 60.1194 32.5105ZM28.7678 65.8947C29.3798 66.0933 26.4142 65.374 63.4855 74.4834C59.3185 80.8761 56.3615 88.0568 54.7767 95.631C27.2616 63.8599 31.098 68.1534 28.7678 65.8947ZM7.34902 92.032C4.15441 85.9731 2.60693 79.1014 2.87691 72.175C2.75858 53.3109 7.69473 34.7952 17.117 18.7598C19.3295 15.111 21.0477 11.1396 23.425 7.59021C24.1419 6.24837 25.0921 5.06118 26.2259 4.09042C27.4499 3.34578 27.1674 4.09041 26.9085 5.30665C26.3949 7.37426 25.677 9.37907 24.7666 11.2886C24.0605 12.8771 25.5669 13.7707 26.5554 12.3559C27.1909 11.512 27.85 10.6929 28.5561 9.87376C29.2622 9.05466 31.5218 5.8279 32.6516 5.92718C34.1815 5.92718 30.9569 13.4977 30.2979 14.8132C29.6388 16.1287 30.5097 18.0399 31.8749 16.3521C33.6684 14.0594 35.6536 11.9411 37.8063 10.0227C38.583 9.47662 38.7007 9.02984 38.7007 9.84894C38.7007 12.3311 36.347 15.4585 35.2878 17.469C34.4169 19.0328 33.5225 20.5717 32.581 22.061C32.1103 22.8056 31.9455 24.5431 33.193 24.3197C35.9054 23.8297 38.656 23.6135 41.4075 23.6744C37.2179 27.3479 31.1923 28.6386 26.1318 29.9541C23.778 30.6243 23.3073 32.1136 22.3187 34.3227C15.2575 49.7614 10.5501 71.1325 18.0585 86.4472C24.3194 99.2798 40.1365 105.833 53.3645 108.786L40.16 116.009C27.0968 112.137 14.0336 104.095 7.34902 92.032ZM21.2831 129.264L53.8823 111.641C54.5075 117.727 56.0988 123.659 58.5898 129.189C57.2246 129.338 21.0476 129.288 21.3301 129.288L21.2831 129.264ZM70.7115 153.663L47.8567 166.744C48.1392 166.074 48.3981 163.244 61.6967 135.097C65.2986 141.158 69.8698 146.517 75.2071 150.933C73.7243 151.851 72.2414 152.844 70.7586 153.688L70.7115 153.663ZM100.486 264.043C100.274 268.138 93.2132 269.305 90.1298 270.348C83.803 272.671 77.2506 274.244 70.5938 275.039C69.1531 275.272 67.6792 275.083 66.3336 274.493C64.9684 273.401 67.3457 271.837 68.2636 270.968C74.6886 265.52 81.5658 260.695 88.8117 256.547C89.1843 256.301 89.4935 255.961 89.7111 255.559C89.9288 255.154 90.0484 254.703 90.0592 254.239C90.0592 230.956 90.0592 207.667 90.0592 184.367L96.6501 177.715C100.628 267.17 100.486 263.795 100.486 264.043ZM84.0101 181.984C83.4217 176.548 84.5751 190.796 81.6564 155.649C87.0269 159.086 92.8825 161.601 99.0034 163.095L84.0101 181.984ZM127.672 263.199C132.641 266.18 137.116 269.995 140.923 274.493C140.932 274.55 140.932 274.609 140.923 274.666C139.535 275.101 138.071 275.203 136.64 274.964C129.272 274.418 117.81 270.496 110.937 267.89C108.23 266.873 106.441 265.408 106.465 262.132C106.465 254.487 106.465 263.249 110.089 183.076L116.939 190.051V255.753C116.915 256.969 117.057 256.099 127.649 263.198L127.672 263.199ZM119.763 185.409C119.316 184.466 120.469 186.626 108.301 164.411C114.191 164.775 120.099 164.12 125.789 162.475C125.506 163.393 121.152 180.097 119.74 185.409L119.763 185.409ZM135.957 158.528C141.209 155.907 146.083 152.514 150.433 148.451C150.786 154.333 152.245 176.672 152.245 176.672C148.597 172.502 156.176 180.942 135.934 158.528L135.957 158.528ZM177.854 150.014C159.612 144.628 160.483 144.678 155.352 143.313C158.678 139.426 161.502 135.094 163.755 130.43C164.32 131.175 164.955 131.895 165.426 132.565C165.897 133.235 177.242 149.369 177.83 150.014H177.854ZM163.731 125.193C160.515 133.21 155.643 140.371 149.47 146.15C143.297 151.931 135.978 156.185 128.048 158.602C81.3033 173.346 34.7935 117.598 66.9691 73.4409C75.4583 62.2428 87.4828 54.6376 100.848 52.0127C114.213 49.3879 128.027 51.9197 139.77 59.1439C160.412 72.4232 173.122 99.8753 163.613 125.218L163.731 125.193ZM166.509 123.952C168.577 117.965 169.614 111.633 169.568 105.262C169.568 104.616 167.544 103.847 194.659 115.19C183.738 118.74 166.65 123.902 166.391 123.977L166.509 123.952Z" fill="#0D128A"/>
<path d="M88.7175 88.1845C88.7175 91.8084 90.1768 98.8825 94.8608 98.3116C98.5326 97.8648 100.18 93.3473 100.792 89.6986C101.357 93.2977 103.146 97.5173 106.7 97.145C111.408 96.5493 112.82 89.4504 112.937 85.5038C112.82 81.9296 111.431 74.4088 106.512 75.4264C103.052 76.1462 101.381 80.3907 100.816 84.0394C100.204 80.341 98.462 75.8732 94.6725 76.593C90.2004 77.5114 88.7175 84.2379 88.7175 88.1845ZM107.03 78.9017C109.76 79.9194 110.302 84.4369 110.372 86.9438C110.443 89.4508 109.501 95.2589 106.065 93.2981C104.911 92.5534 104.069 91.3732 103.711 89.9968C104.959 91.4116 107.83 89.9968 107.995 85.6035C107.83 80.7881 104.111 81.3839 103.052 85.3056C103.146 82.9972 103.923 77.76 107.03 78.9017ZM95.2612 80.1676C97.9915 81.1605 98.5093 85.6779 98.5799 88.1849C98.6505 90.6918 97.6384 96.5 94.2961 94.5639C89.824 92.0322 90.5066 78.4301 95.1906 80.1676H95.2612Z" fill="#0D128A"/>
<path d="M94.6019 91.7582C96.4849 91.3611 97.3323 88.879 97.4029 86.794C97.4029 85.3792 96.7674 82.9467 95.0492 83.3935C93.3309 83.8402 92.3187 86.4961 92.3422 88.3577C92.2246 89.7973 92.8602 92.1305 94.6019 91.7582Z" fill="#0D128A"/>
<path d="M100.769 113.85C94.5783 114.843 94.2959 108.513 86.7875 101.861C83.5864 99.0314 78.1963 95.8295 73.9596 98.0882C67.5104 101.563 71.2293 111.566 73.8184 116.332C76.3296 121.286 79.9828 125.496 84.4417 128.571C88.9004 131.646 94.0214 133.491 99.3329 133.93C108.254 134.377 121.575 129.785 123.764 119.186C126.165 107.52 106.065 112.658 100.769 113.85ZM86.105 124.547C81.9379 121.986 78.6434 118.104 76.69 113.452C78.1331 113.264 79.5983 113.43 80.9706 113.936C82.3425 114.445 83.5844 115.282 84.5986 116.381C85.3565 117.565 85.8803 118.9 86.1392 120.303C86.3979 121.705 86.3865 123.15 86.105 124.547Z" fill="#0D128A"/>
<path d="M84.5275 69.4939C85.2807 69.618 86.081 68.5258 86.2693 67.8805C86.5348 66.972 87.0682 66.1765 87.7922 65.6093C88.516 65.0422 89.3925 64.7331 90.2942 64.7282C92.1066 64.7282 92.8127 61.2284 91.5181 61.278C89.798 61.4034 88.1558 62.0822 86.8133 63.2228C85.4705 64.3633 84.492 65.9109 84.0097 67.6571C83.845 68.2776 83.6802 69.3449 84.5275 69.4939Z" fill="#0D128A"/>
</svg>
