<svg width="81" height="81" viewBox="0 0 81 81" fill="none" xmlns="http://www.w3.org/2000/svg">
<path d="M26.0112 80.9236H8.67039C3.88361 80.9236 0 77.04 0 72.2532V8.67039C0 3.88361 3.88361 0 8.67039 0H26.0112C30.7979 0 34.6815 3.88361 34.6815 8.67039V72.2532C34.6815 77.04 30.7979 80.9236 26.0112 80.9236ZM80.9236 72.2532V8.67039C80.9236 3.88361 77.04 0 72.2532 0H54.9124C50.1257 0 46.2421 3.88361 46.2421 8.67039V72.2532C46.2421 77.04 50.1257 80.9236 54.9124 80.9236H72.2532C77.04 80.9236 80.9236 77.04 80.9236 72.2532Z" fill="#4F4C4C"/>
</svg>
