<svg width="52" height="52" viewBox="0 0 52 52" fill="none" xmlns="http://www.w3.org/2000/svg">
<g clip-path="url(#clip0_612_302)">
<path d="M22.4882 38.815H14.8535C14.2233 38.815 13.7119 38.3036 13.7119 37.6735V14.2714C13.7119 13.6413 14.2233 13.1299 14.8535 13.1299H22.4882C23.1184 13.1299 23.6298 13.6413 23.6298 14.2714V37.6735C23.6298 38.3036 23.119 38.815 22.4882 38.815ZM15.995 36.5319H21.3467V15.413H15.995V36.5319Z" fill="#7AC3FF"/>
<path d="M37.0879 38.815H29.4531C28.8229 38.815 28.3115 38.3036 28.3115 37.6735V14.2714C28.3115 13.6413 28.8229 13.1299 29.4531 13.1299H37.0879C37.718 13.1299 38.2294 13.6413 38.2294 14.2714V37.6735C38.2294 38.3036 37.718 38.815 37.0879 38.815ZM30.5946 36.5319H35.9463V15.413H30.5946V36.5319Z" fill="#7AC3FF"/>
<path d="M25.9708 51.6574C11.808 51.6574 0.285645 40.1351 0.285645 25.9723C0.285645 11.8095 11.808 0.287109 25.9708 0.287109C40.1336 0.287109 51.656 11.8095 51.656 25.9723C51.656 40.1351 40.1336 51.6574 25.9708 51.6574ZM25.9708 2.57023C13.0671 2.57023 2.56877 13.0686 2.56877 25.9723C2.56877 38.8759 13.0671 49.3743 25.9708 49.3743C38.8745 49.3743 49.3728 38.8759 49.3728 25.9723C49.3728 13.0686 38.8745 2.57023 25.9708 2.57023Z" fill="#7AC3FF"/>
</g>
<defs>
<clipPath id="clip0_612_302">
<rect width="52" height="52" fill="white" transform="translate(0 0.000976562)"/>
</clipPath>
</defs>
</svg>
