<svg width="52" height="52" viewBox="0 0 52 52" fill="none" xmlns="http://www.w3.org/2000/svg">
<g clip-path="url(#clip0_612_299)">
<path d="M25.9708 0.287109C11.808 0.287109 0.285645 11.8095 0.285645 25.9723C0.285645 40.1351 11.808 51.6574 25.9708 51.6574C40.1336 51.6574 51.656 40.1351 51.656 25.9723C51.656 11.8095 40.1336 0.287109 25.9708 0.287109ZM35.5634 27.1287L28.1946 31.3827L20.8258 35.6367C19.9359 36.1504 18.8235 35.5083 18.8235 34.4803V25.9723V17.4636C18.8235 16.4357 19.9359 15.7935 20.8258 16.3072L28.1946 20.5613L35.5634 24.8153C36.4538 25.3301 36.4538 26.6144 35.5634 27.1287Z" fill="#7AC3FF"/>
</g>
<defs>
<clipPath id="clip0_612_299">
<rect width="52" height="52" fill="white" transform="translate(0 0.000976562)"/>
</clipPath>
</defs>
</svg>
