<svg width="114" height="122" viewBox="0 0 114 122" fill="none" xmlns="http://www.w3.org/2000/svg">
<path d="M57 115.192C84.6142 115.192 107 90.9728 107 61.0962C107 31.2197 84.6142 7 57 7C29.3858 7 7 31.2197 7 61.0962C7 90.9728 29.3858 115.192 57 115.192Z" stroke="white" stroke-width="13.21" stroke-linecap="round"/>
<path d="M62.5554 91.1496C62.5554 92.7437 61.9701 94.2726 60.9283 95.3998C59.8864 96.527 58.4733 97.1603 56.9999 97.1603C55.5265 97.1603 54.1134 96.527 53.0715 95.3998C52.0297 94.2726 51.4443 92.7437 51.4443 91.1496C51.4443 89.5555 52.0297 88.0266 53.0715 86.8994C54.1134 85.7722 55.5265 85.1389 56.9999 85.1389C58.4733 85.1389 59.8864 85.7722 60.9283 86.8994C61.9701 88.0266 62.5554 89.5555 62.5554 91.1496Z" fill="white"/>
<path d="M57.0002 73.1175V67.1068C57.0002 61.0961 73.6669 58.0907 70.8891 43.064C68.1113 28.0373 45.8891 28.0373 43.1113 43.064" stroke="white" stroke-width="13.21" stroke-linecap="round"/>
</svg>
