<svg width="126" height="138" viewBox="0 0 126 138" fill="none" xmlns="http://www.w3.org/2000/svg">
<path d="M23.973 40.1021C25.0586 38.4385 26.5552 37.0659 27.6069 35.4013C27.8536 34.9252 28.0215 34.4078 28.1051 33.8687C28.7692 30.8722 29.7729 27.9811 31.0963 25.2537C31.0575 26.5176 30.9082 27.7712 30.6524 28.9986C30.5082 29.7572 32.2753 31.0015 32.6422 30.186C33.0091 29.3704 33.3184 28.7771 33.6939 28.0807C34.0693 27.2043 34.5946 26.4083 35.2432 25.73C35.1911 27.4417 34.9678 29.1352 34.5755 30.7841C34.4109 31.5353 36.1774 32.7446 36.5718 31.9507C37.3095 30.4564 38.1407 29.016 39.0599 27.6387C38.6671 30.1311 38.0302 32.5655 37.1591 34.9051C36.9256 35.5844 38.3011 36.4752 38.8401 36.28C40.1403 35.7976 41.4744 35.3161 42.8306 34.9471C39.4996 39.5161 34.2337 40.2967 32.7839 42.0693C28.9635 46.9447 26.2888 52.692 24.9591 58.8856C23.323 66.621 25.4966 74.4877 32.374 78.9421C34.188 80.112 36.1077 81.0861 38.103 81.8471C38.3777 85.1745 39.0595 88.4696 40.1302 91.6548C33.8574 90.1865 28.1719 86.5627 24.0171 81.3878C16.1839 71.1636 14.5189 54.4954 23.973 40.1021Z" fill="#FF3E74"/>
<path d="M42.4212 93.047C39.7138 85.6912 39.2512 77.7445 41.0998 70.3046C42.9484 62.8645 47.0157 56.2997 52.7395 51.5179C58.3106 46.8366 65.2349 44.137 72.5429 43.7971C79.8502 43.4576 87.1743 45.4949 93.4868 49.6242C99.8 53.7531 104.785 59.7667 107.745 66.8215C110.704 73.8761 111.489 81.6184 109.988 88.9625C108.531 96.2871 104.946 102.893 99.7036 107.916C94.4597 112.939 87.8035 116.146 80.6028 117.115C72.7168 118.081 64.6349 116.223 57.6923 111.846C50.7497 107.47 45.3629 100.837 42.4212 93.047ZM75.1065 67.9924C82.2225 79.6104 95.5856 74.4672 94.7279 64.0475C94.6773 63.4025 93.8166 62.9454 93.2938 62.8682C86.1632 61.7437 78.9543 61.7319 71.9107 62.8335C65.3791 63.7968 59.0346 65.6448 53.0381 68.3308C52.7422 68.4767 52.76 68.7501 52.9203 69.0413C53.0806 69.3325 53.2489 69.7078 53.2801 69.9745L44.942 74.0858C44.0678 74.5168 45.8198 76.1035 46.6133 75.7123L54.2252 71.9591C59.7835 80.9602 71.0549 81.6789 75.1065 67.9924Z" fill="#FF3E74"/>
<path d="M85.4176 118.267C76.5739 120.207 67.2179 118.788 59.0322 114.268C50.8482 109.747 44.3741 102.422 40.7769 93.6105C34.2277 92.0121 28.2246 88.402 23.5718 83.2649C14.3771 72.6189 11.8773 54.5289 21.8436 39.072C22.9819 37.3119 25.5652 34.7865 25.9154 33.3268C26.1964 32.1775 26.5041 31.0385 26.8386 29.9097C27.4842 27.8284 28.1223 24.8163 29.7033 23.2082C30.9315 22.0032 32.5512 22.9147 32.9949 24.4589C33.2326 24.012 33.5984 23.6552 34.0449 23.435C34.4914 23.2149 34.9971 23.142 35.4964 23.2255C36.0183 23.4262 36.4743 23.7882 36.7979 24.2614C37.1215 24.7346 37.296 25.2953 37.2984 25.863C38.2898 24.6866 39.412 24.0804 40.54 25.1814C41.8816 26.5121 41.0811 29.093 40.7249 30.6085C40.4769 31.6652 40.0793 32.6898 39.8657 33.7824C40.3499 33.5437 40.9174 33.4402 41.4505 33.3007C42.5904 32.9679 44.1338 32.4361 45.1192 33.5193C46.1047 34.6024 44.8163 36.2955 44.0239 37.1975C42.4582 38.9283 40.5761 40.3227 38.4771 41.3076C36.8508 41.844 35.3941 42.7923 34.2375 44.0679C32.7052 46.2632 31.3387 48.5811 30.1501 51.0021C23.8758 63.7748 24.5226 75.4619 37.98 80.4448C37.7292 75.3145 38.4847 70.2282 40.2003 65.4922C41.916 60.7562 44.5576 56.4673 47.9639 52.885C53.3132 47.4283 60.2189 43.8636 67.7575 42.6675C75.2955 41.4717 83.1045 42.7023 90.1384 46.1941C97.1426 49.7089 103.045 55.2827 107.072 62.1864C111.099 69.0905 113.065 77.0019 112.711 84.8871C112.211 92.8405 109.313 100.331 104.421 106.314C99.5285 112.297 92.8865 116.475 85.4176 118.267ZM93.6413 49.7384C88.0863 46.1552 81.7593 44.1498 75.3299 43.9335C68.9005 43.7174 62.6068 45.299 57.1152 48.5106C51.6237 51.7223 47.1365 56.4455 44.1309 62.1797C41.1239 67.9146 39.7091 74.4476 40.036 81.0883C40.2217 86.2083 41.4592 91.2747 43.665 95.9518C45.8721 100.628 48.9967 104.809 52.8332 108.216C56.6694 111.622 61.1291 114.177 65.9166 115.712C70.7038 117.246 75.7109 117.724 80.6031 117.114C87.8012 116.153 94.4596 112.959 99.707 107.946C104.954 102.933 108.548 96.3367 110.017 89.0187C111.438 81.6952 110.63 74.003 107.702 66.9788C104.773 59.9549 99.8662 53.9374 93.6413 49.7384ZM32.3339 78.9622C25.4495 74.4937 23.2829 66.6411 24.919 58.9057C26.2614 52.6974 28.9535 46.941 32.7975 42.0629C34.2075 40.3452 39.5595 39.434 42.8443 34.9407C41.4881 35.3097 40.154 35.7912 38.8538 36.2736C38.3428 36.5256 36.9393 35.578 37.1728 34.8987C38.0336 32.5587 38.6654 30.1274 39.0601 27.6389C38.1598 29.0138 37.342 30.4474 36.6123 31.9311C36.218 32.7249 34.4515 31.5156 34.6161 30.7645C35.0143 29.1172 35.2386 27.4225 35.2838 25.7104C34.6384 26.3918 34.1143 27.1869 33.7345 28.061C33.359 28.7574 33.0104 29.4406 32.6828 30.1663C32.3551 30.892 30.5488 29.7376 30.6929 28.9789C30.9488 27.7516 31.0981 26.498 31.1369 25.234C29.8089 27.9591 28.8042 30.8513 28.1457 33.8491C28.0621 34.3882 27.8942 34.9055 27.6475 35.3817C26.5888 37.032 25.0922 38.4046 24.0136 40.0824C14.6057 54.4001 16.2035 71.1014 24.0173 81.388C28.1722 86.5629 33.8576 90.1867 40.1304 91.6551C39.0597 88.4699 38.378 85.1748 38.1032 81.8473C36.0955 81.095 34.1609 80.1281 32.3339 78.9622Z" fill="black"/>
<path d="M84.9443 74.619C82.9371 74.4135 80.9892 73.7011 79.2725 72.5454C77.5559 71.3898 76.1258 69.8254 75.1067 67.9924C72.1827 77.8966 65.5391 80.2908 59.8424 77.2818C57.5441 76.0587 55.5962 74.2102 54.2184 71.9449L46.5393 75.7313C45.7458 76.1225 43.9938 74.5358 44.8679 74.1048L53.2464 69.9736C53.1066 69.6899 52.9597 69.3921 52.9006 69.0687C52.8414 68.7453 52.6278 68.5156 53.0044 68.3299C62.2615 64.2209 72.2892 62.0681 82.5148 61.9949C86.091 62.0071 89.6727 62.3102 93.2267 62.9014C93.7496 62.9785 94.6103 63.4357 94.6608 64.0807C94.7898 65.4798 94.6338 66.879 94.2033 68.1879C93.7728 69.4967 93.077 70.6862 92.1615 71.6792C91.246 72.6723 90.1301 73.4472 88.8869 73.9537C87.6437 74.4601 86.3015 74.6862 84.9443 74.619ZM57.0426 73.1969C57.3858 73.6285 57.7581 74.0344 58.1587 74.4096L63.1247 66.8836L60.7238 67.609L57.0426 73.1969ZM60.0028 75.8099C60.8738 76.2914 61.8189 76.5977 62.7876 76.7111L70.4487 65.1235C69.1249 65.3884 67.808 65.6674 66.4986 65.9957L60.0028 75.8099ZM77.8022 69.2549C78.1457 69.6836 78.5137 70.091 78.905 70.4742L83.3222 63.8358L81.3716 63.8808L77.8022 69.2549ZM80.7694 71.8821C81.6346 72.3755 82.5798 72.6887 83.5479 72.8041L89.2884 64.1027C88.2029 64.0033 87.1225 63.9484 86.0474 63.9378L80.7694 71.8821Z" fill="#0D128A"/>
<path d="M90.5814 56.5189C90.1731 56.8437 89.4339 56.3619 89.1316 56.0878C87.6131 54.7033 85.3167 53.4027 83.2816 54.124C82.4865 54.4102 80.9298 52.7449 82.0014 52.3752C84.8379 51.3468 88.2506 53.4193 90.3528 55.3094C90.6761 55.626 90.9692 56.1867 90.5814 56.5189Z" fill="#0D128A"/>
<path d="M55.2833 59.2198C56.5207 56.8467 58.7123 54.4085 61.5854 54.4375C62.4596 54.4473 63.7812 56.2462 62.4595 56.2103C60.2911 56.1864 58.2754 58.6084 57.2548 60.5396C56.7938 61.4016 54.8562 60.0827 55.2833 59.2198Z" fill="#0D128A"/>
<path d="M69.4256 79.6965C73.2353 81.1502 79.0547 82.0008 81.553 77.9129C82.049 77.1218 83.9871 78.4757 83.4777 79.2734C80.6808 83.773 74.0771 83.027 69.7564 81.3846C68.85 81.0381 68.0012 79.1471 69.4256 79.6965Z" fill="#0D128A"/>
</svg>
