<svg width="46" height="46" viewBox="0 0 46 46" fill="none" xmlns="http://www.w3.org/2000/svg">
<path d="M6.44336 33.1308C3.81153 35.7668 2.56711 39.4305 3.13524 42.8702C6.57502 43.4337 10.2367 42.1872 12.8704 39.5562C15.5023 36.9202 16.7467 33.2565 16.1786 29.8168C12.7388 29.2533 9.07711 30.4998 6.44336 33.1308Z" fill="#FCEA2B"/>
<path d="M19.6533 31.2351C19.4934 32.04 19.0986 32.7796 18.5187 33.3605C18.2363 33.6416 17.9149 33.8806 17.5645 34.0701C19.3665 36.5463 20.6958 39.307 21.4769 42.1951C22.0678 41.6771 22.6356 41.1297 23.1782 40.5548C24.7727 38.8596 26.1356 36.9404 27.2209 34.8613C28.2631 32.8447 29.0334 30.7014 29.5076 28.4989C26.4007 30.1275 23.0315 31.0629 19.6533 31.2351Z" fill="#61B2E4"/>
<path d="M5.44599 22.8272C4.87102 23.3689 4.32339 23.9358 3.80518 24.5257C6.69516 25.3017 9.45864 26.6264 11.9383 28.4241C12.127 28.0792 12.3636 27.7626 12.6412 27.4841C13.2202 26.9062 13.957 26.5121 14.7591 26.351C14.9346 22.9756 15.8727 19.6099 17.5031 16.5066C17.5047 16.5036 17.5062 16.5005 17.5078 16.4973C15.3038 16.9712 13.1591 17.7412 11.1411 18.7833C9.06125 19.8691 7.14146 21.2323 5.44599 22.8272Z" fill="#92D3F5"/>
<path d="M22.0268 10.3263C17.6676 14.7016 15.0552 20.4619 14.7583 26.3528C16.1229 26.0763 17.5353 26.5012 18.5206 27.4847C19.5088 28.4737 19.9335 29.8932 19.6505 31.2621C25.5463 30.9614 31.3097 28.3437 35.6845 23.9795C41.2772 18.3774 43.9208 10.5911 42.7121 3.28161C41.269 3.04605 39.7919 2.95839 38.3028 3.01988C32.3248 3.2637 26.4618 5.89586 22.0268 10.3263ZM30.5671 9.88544C32.1014 8.35112 34.5893 8.3507 36.124 9.88444C36.1243 9.88477 36.1247 9.88511 36.125 9.88544C37.6597 11.4193 37.6602 13.9064 36.126 15.4407C36.1257 15.441 36.1253 15.4413 36.125 15.4417C34.5902 16.9752 32.1024 16.9747 30.5683 15.4405C29.0336 13.9068 29.033 11.4198 30.5671 9.88544Z" fill="#EA5A47"/>
<path d="M15.1247 36.3998C14.3951 37.219 13.5503 37.9386 12.6188 38.5344C9.71011 40.3866 6.18225 40.8963 3.08528 39.9118C2.96071 40.9087 2.97754 41.9047 3.13528 42.8696C6.57506 43.4332 10.2367 42.1867 12.8705 39.5557C13.7911 38.6282 14.5542 37.5595 15.1247 36.3998Z" fill="#F1B31C"/>
<path d="M14.8465 25.2755C14.819 25.6322 14.8 25.9886 14.7896 26.3446C16.1454 26.0813 17.5435 26.5085 18.5204 27.4847C19.5087 28.4736 19.9333 29.8931 19.6503 31.2621C25.5458 30.9606 31.3085 28.3425 35.6826 23.9783C36.9269 22.7228 38.038 21.3435 38.9946 19.8669C37.872 20.8891 36.6571 21.8122 35.3673 22.6229C29.0699 26.5484 21.4571 27.5325 14.8465 25.2755Z" fill="#D22F27"/>
<path d="M13.0423 33.495C13.7675 33.1306 14.476 32.7302 15.1672 32.2967C17.2032 31.0199 19.065 29.4597 20.6913 27.6677L20.6937 27.6653C22.2605 25.9229 23.5889 23.9833 24.6375 21.9055C24.6883 21.8052 24.7181 21.6956 24.7248 21.5833C21.8929 20.9556 12.3539 30.1253 13.0423 33.495Z" fill="#61B2E4"/>
<path d="M33.346 17.6118C30.6161 17.6118 28.3955 15.3918 28.3955 12.6628C28.3955 9.93369 30.6161 7.71375 33.346 7.71375C36.0759 7.71375 38.2965 9.93369 38.2965 12.6628C38.2965 15.3918 36.0759 17.6118 33.346 17.6118ZM33.346 9.36339C31.5262 9.36339 30.0457 10.843 30.0457 12.6628C30.0457 14.4824 31.5262 15.9621 33.346 15.9621C35.1657 15.9621 36.6464 14.4824 36.6464 12.6628C36.6464 10.843 35.1657 9.36339 33.346 9.36339Z" fill="black"/>
<path d="M10.2208 30.5885C8.82256 31.1787 7.53581 32.0447 6.44346 33.1307C3.81188 35.7664 2.5673 39.4298 3.13509 42.8692C6.57487 43.4327 10.2364 42.1863 12.8703 39.5553C13.9571 38.4634 14.824 37.1771 15.4149 35.7791" stroke="black" stroke-width="4.41834" stroke-miterlimit="10" stroke-linecap="round" stroke-linejoin="round"/>
<path d="M5.44599 22.8272C4.87102 23.3689 4.32339 23.9358 3.80518 24.5257C6.69516 25.3017 9.45864 26.6264 11.9383 28.4241C12.127 28.0792 12.3636 27.7626 12.6412 27.4841C13.2202 26.9062 13.957 26.5121 14.7591 26.351C14.9346 22.9756 15.8727 19.6099 17.5031 16.5066C17.5047 16.5036 17.5062 16.5005 17.5078 16.4973C15.3038 16.9712 13.1591 17.7412 11.1411 18.7833C9.06125 19.8691 7.14146 21.2323 5.44599 22.8272Z" stroke="black" stroke-width="4.41834" stroke-miterlimit="10" stroke-linecap="round" stroke-linejoin="round"/>
<path d="M19.6533 31.2351C19.4934 32.04 19.0986 32.7796 18.5187 33.3605C18.2363 33.6416 17.9149 33.8806 17.5645 34.0701C19.3665 36.5463 20.6958 39.307 21.4769 42.1951C22.0678 41.6771 22.6356 41.1297 23.1782 40.5548C24.7727 38.8596 26.1356 36.9404 27.2209 34.8613C28.2631 32.8447 29.0334 30.7014 29.5076 28.4989C26.4007 30.1275 23.0315 31.0629 19.6533 31.2351Z" stroke="black" stroke-width="4.41834" stroke-miterlimit="10" stroke-linecap="round" stroke-linejoin="round"/>
<path d="M19.5342 29.1569C19.7588 29.8954 19.743 30.5667 19.6484 31.2605C25.5446 30.9596 31.3085 28.3414 35.6832 23.9766C41.275 18.3757 43.919 10.5916 42.712 3.28295C35.4031 2.08594 27.623 4.73452 22.0275 10.3248C17.6676 14.7003 15.0547 20.4608 14.7578 26.3521C15.5422 26.1932 16.3397 26.2736 17.0654 26.551" stroke="black" stroke-width="4.41834" stroke-miterlimit="10" stroke-linecap="round" stroke-linejoin="round"/>
<path d="M23.9025 21.5331C21.8897 22.5483 20.009 23.8351 18.3197 25.3532C16.5824 26.929 15.0699 28.7326 13.833 30.7037C13.4131 31.3729 13.0261 32.0597 12.6733 32.7614" stroke="black" stroke-width="4.41834" stroke-miterlimit="10" stroke-linecap="round" stroke-linejoin="round"/>
</svg>
