<svg width="106" height="108" viewBox="0 0 106 108" fill="none" xmlns="http://www.w3.org/2000/svg">
<path d="M103.148 53.5086C102.312 49.1317 96.8272 46.2039 88.3207 44.7896C88.834 46.0061 89.2311 47.0743 89.6359 48.3287C92.6891 48.8181 94.4909 49.7836 94.7347 51.0601C95.5822 55.5035 76.8683 65.7374 52.935 70.6288C29.0022 75.5198 8.91342 73.2197 8.06469 68.7758C7.76929 67.2275 9.74514 65.411 13.5934 63.3501C13.4823 62.7294 13.5304 61.8952 13.5304 61.0389C13.5304 60.5482 13.5491 60.0633 13.5662 59.5779C5.62148 64.3979 1.17262 69.6122 2.04349 74.1742C3.85547 83.6636 27.9564 86.7319 55.8758 81.0261C83.7952 75.3189 104.96 62.9981 103.148 53.5086Z" fill="#F4F4F4"/>
<path d="M94.7349 51.0597C94.7838 51.32 94.7613 51.601 94.6795 51.8975C98.6895 53.2458 101.462 55.127 102.631 57.5342C103.2 56.1546 103.396 54.8041 103.148 53.5083C102.312 49.1313 96.8273 46.2035 88.3208 44.7892C88.8341 46.0058 89.2313 47.0739 89.636 48.3284C92.6888 48.8177 94.491 49.7832 94.7349 51.0597Z" fill="#F9F9F9"/>
<path d="M8.06499 74.3473C8.91373 78.7907 29.0025 81.0913 52.9353 76.2003C76.8686 71.3094 95.5825 61.0751 94.7351 56.632C94.5865 55.8577 93.8574 55.2005 92.6328 54.6918C87.1441 59.7259 71.6323 66.8073 52.9353 70.6288C33.3369 74.6336 16.3242 73.8152 10.3358 70.9477C8.6775 72.1912 7.8709 73.328 8.06499 74.3473Z" fill="#F9F9F9"/>
<path d="M2.56661 75.7092C3.48431 73.4998 5.3895 71.2191 8.12683 68.9626C8.10725 68.9 8.07703 68.8388 8.06511 68.7749C7.76971 67.2267 9.74556 65.4102 13.5938 63.3492C13.4827 62.7286 13.5308 61.8943 13.5308 61.0381C13.5308 60.5474 13.5496 60.0624 13.5666 59.577C5.62147 64.398 1.17262 69.6122 2.04349 74.1742C2.14522 74.7076 2.32783 75.2177 2.56661 75.7092Z" fill="#F9F9F9"/>
<path d="M13.567 59.5776C13.55 60.063 13.5312 60.5483 13.5312 61.0386C13.5312 64.9799 14.0871 68.7847 15.1036 72.3864C23.1419 73.9505 37.2082 73.8426 52.9354 70.6285C70.2741 67.0854 84.867 60.7382 91.2734 55.8195C90.9252 53.0322 90.3063 50.3339 89.4376 47.7536C89.3307 47.44 89.2252 47.125 89.1145 46.822C89.0102 46.533 88.8983 46.2467 88.7876 45.9604C88.6693 45.6574 88.5514 45.3539 88.4207 45.0394C82.4319 30.6885 68.6367 20.6414 52.5698 20.6414C31.4829 20.6414 14.3115 37.9452 13.567 59.5776Z" fill="#FFDA88"/>
<path d="M55.8757 81.0261C42.3317 83.7936 29.6955 84.4913 20.0576 83.3981C27.054 94.2693 39.001 101.437 52.5697 101.437C71.657 101.437 87.5353 87.2575 90.9277 68.5243C82.3629 73.5677 69.9851 78.1415 55.8757 81.0261Z" fill="#FFDA88"/>
<path d="M23.2594 72.3864C22.2421 68.7847 21.6866 64.9799 21.6866 61.0386C21.6866 60.5479 21.7066 60.063 21.7232 59.5776C22.4175 39.3908 37.4194 22.9803 56.5556 20.8748C55.2429 20.7369 53.9187 20.6414 52.5711 20.6414C31.4846 20.6414 14.3123 37.9452 13.5679 59.5776C13.5517 60.063 13.5312 60.5483 13.5312 61.0386C13.5312 64.9799 14.0871 68.7847 15.1044 72.3864C19.2098 73.1854 24.8943 73.5444 31.5638 73.2792C28.3735 73.1396 25.5617 72.8339 23.2594 72.3864Z" fill="#FFE2A9"/>
<path d="M28.5404 83.8742C25.5251 83.8469 22.6733 83.6945 20.0581 83.3981C27.054 94.2693 39.0006 101.437 52.5707 101.437C53.9651 101.437 55.3408 101.352 56.6973 101.204C45.0108 99.9624 34.86 93.3936 28.5404 83.8742Z" fill="#FFE2A9"/>
<path d="M93.2034 16.3954C95.0645 14.2926 94.926 11.0268 92.894 9.10082C90.862 7.17489 87.7061 7.31821 85.845 9.42094C83.9838 11.5237 84.1223 14.7896 86.1543 16.7155C88.1863 18.6414 91.3422 18.4981 93.2034 16.3954Z" fill="#9AE8CE"/>
<path d="M87.9993 12.9049C87.9993 10.6806 89.3673 8.80152 91.2738 8.07518C90.7358 7.87081 90.1624 7.74219 89.5563 7.74219C86.8024 7.74219 84.5669 10.0538 84.5669 12.9054C84.5669 15.757 86.8024 18.0686 89.5563 18.0686C90.1624 18.0686 90.7358 17.9395 91.2738 17.7356C89.3673 17.0083 87.9993 15.1293 87.9993 12.9049Z" fill="#AEF4DB"/>
<path d="M103.647 25.0618C103.647 26.7819 102.3 28.1755 100.638 28.1755C98.975 28.1755 97.6274 26.7819 97.6274 25.0618C97.6274 23.3418 98.9755 21.9473 100.638 21.9473C102.3 21.9477 103.647 23.3418 103.647 25.0618Z" fill="#9AE8CE"/>
<path d="M99.8868 25.0619C99.8868 23.7554 100.665 22.6415 101.767 22.1786C101.419 22.0323 101.038 21.9478 100.638 21.9478C98.975 21.9478 97.6274 23.3418 97.6274 25.0623C97.6274 26.7823 98.9755 28.176 100.638 28.176C101.037 28.176 101.418 28.0914 101.767 27.9443C100.665 27.4823 99.8868 26.3683 99.8868 25.0619Z" fill="#AEF4DB"/>
<path d="M78.9888 14.9037C77.9217 14.9037 77.0576 14.0091 77.0576 12.9053C77.0576 5.78909 82.6519 0 89.5286 0C90.5961 0 91.4598 0.894595 91.4598 1.99885C91.4598 3.10311 90.5961 3.99726 89.5286 3.99726C84.7818 3.99726 80.9204 7.9932 80.9204 12.9053C80.9199 14.0091 80.0555 14.9037 78.9888 14.9037Z" fill="#FFDA88"/>
<path d="M78.6305 14.1263C78.6305 7.01007 84.2247 1.22098 91.1006 1.22098C91.1989 1.22098 91.2943 1.23596 91.3875 1.25093C91.1006 0.51755 90.4106 0 89.5994 0C82.7222 0 77.1279 5.78909 77.1279 12.9053C77.1279 13.9078 77.8434 14.7302 78.773 14.8738C78.6828 14.643 78.6305 14.391 78.6305 14.1263Z" fill="#FFE2A9"/>
<path d="M36.7379 107.561C36.5494 107.561 36.3574 107.533 36.1675 107.473C18.8633 101.943 13.4768 90.2399 13.2554 89.744C12.8089 88.7419 13.2325 87.5539 14.2004 87.0923C15.1691 86.6303 16.3116 87.0663 16.7606 88.0631C16.8113 88.175 21.7513 98.682 37.307 103.653C38.326 103.979 38.8976 105.098 38.5827 106.152C38.3264 107.011 37.5628 107.561 36.7379 107.561Z" fill="#FFDA88"/>
<path d="M37.3074 103.683C21.7518 98.7132 16.8117 88.2058 16.7611 88.0939C16.312 87.0972 15.1696 86.6615 14.2008 87.1231C13.481 87.4667 13.0648 88.2111 13.0805 88.9824C13.9373 88.8018 14.8303 89.2387 15.2143 90.0923C15.2654 90.2042 20.205 100.712 35.7606 105.682C36.5698 105.941 37.0878 106.701 37.1138 107.53C37.7842 107.39 38.3673 106.908 38.5831 106.183C38.8981 105.129 38.3264 104.01 37.3074 103.683Z" fill="#FFE2A9"/>
<path d="M20.806 62.4243C20.7689 62.4243 20.7323 62.4229 20.6953 62.4216C19.6312 62.3591 18.8169 61.4169 18.8761 60.3162C18.9037 59.7955 19.638 47.5007 26.4568 40.1528C27.1975 39.3564 28.4191 39.3304 29.1878 40.0955C29.9574 40.8606 29.9816 42.1252 29.2431 42.9216C23.4258 49.1882 22.7388 60.4263 22.7324 60.5395C22.6728 61.6032 21.8216 62.4243 20.806 62.4243Z" fill="#F4F4F4"/>
<path d="M31.4247 38.9419C31.0084 38.9419 30.5891 38.8041 30.2358 38.5178C29.396 37.8372 29.2475 36.5801 29.9051 35.7111C30.2082 35.3103 32.9557 31.7645 36.0242 30.7157C37.0338 30.3748 38.129 30.9382 38.4636 31.9882C38.7981 33.0357 38.2482 34.1664 37.2352 34.5126C35.5641 35.0825 33.5282 37.4065 32.9468 38.1755C32.5658 38.679 31.9984 38.9419 31.4247 38.9419Z" fill="#F4F4F4"/>
<path d="M29.1489 85.8899C13.8767 85.8899 1.67213 82.5432 0.148314 74.5618C-0.876642 69.1908 3.42579 63.4131 12.5895 57.8535C13.1973 57.484 13.9512 57.4866 14.5569 57.8614C15.1626 58.2363 15.5227 58.9208 15.4967 59.6506C15.4771 60.1999 15.4622 60.6175 15.4622 61.039L15.4567 61.6689C15.4499 62.1789 15.4426 62.7057 15.4924 62.9854C15.6478 63.8509 15.237 64.72 14.4815 65.1248C10.8852 67.0505 10.1408 68.146 9.99521 68.4455C10.9772 69.8444 20.2482 72.5493 38.2526 70.8201C39.2937 70.7069 40.2557 71.5252 40.3544 72.6247C40.4532 73.7241 39.6721 74.6975 38.6097 74.7988C27.1726 75.8982 7.4673 75.9489 6.16993 69.1634C6.10097 68.8005 6.08565 68.4477 6.11715 68.1054C4.39881 70.1836 3.62244 72.1353 3.93827 73.7866C5.3131 80.9861 26.8287 84.9248 55.5015 79.0656C84.176 73.2039 102.627 61.0963 101.253 53.8968C100.877 51.9244 98.9391 50.1885 95.7191 48.8402C96.1949 49.3776 96.4988 49.9894 96.6295 50.6734C97.2739 54.0501 93.0107 58.0227 83.958 62.4802C75.3532 66.7184 64.469 70.3082 53.3098 72.589C51.6851 72.9207 50.0128 73.2303 48.1965 73.5351C47.1528 73.7197 46.1526 72.9731 45.9815 71.8825C45.8104 70.7919 46.5259 69.7656 47.5789 69.5898C49.35 69.2921 50.9803 68.9912 52.5607 68.6675C76.3181 63.8126 91.8734 54.513 92.7987 51.4764C92.5616 51.2632 91.7261 50.6866 89.3408 50.3039C88.6261 50.1893 88.0336 49.6714 87.8042 48.9622C87.4181 47.765 87.0435 46.7568 86.5507 45.5882C86.2684 44.9182 86.3621 44.1426 86.7945 43.5647C87.227 42.9868 87.9251 42.7005 88.627 42.8154C100.96 44.8663 104.361 49.5515 105.043 53.1207C107.416 65.556 81.6749 77.7901 56.2498 82.9867C47.1456 84.8477 37.6686 85.8899 29.1489 85.8899Z" fill="#161616"/>
<path d="M27.334 75.3595C22.5268 75.3595 18.1903 75.0212 14.7464 74.3512C14.0322 74.212 13.4533 73.6694 13.2494 72.947C12.1547 69.0682 11.5996 65.0617 11.5996 61.0385C11.5996 60.5676 11.6158 60.1016 11.6324 59.636C12.4254 36.592 30.4055 18.6428 52.5693 18.6428C68.9337 18.6428 83.7024 28.6926 90.193 44.2469C90.3224 44.5579 90.4382 44.8547 90.554 45.1512L90.6029 45.2776C90.7119 45.5573 90.82 45.837 90.9222 46.118C91.0316 46.4197 91.1371 46.7307 91.2427 47.0417C92.1795 49.8263 92.8282 52.6744 93.1887 55.563C93.2781 56.2814 92.9857 56.9932 92.4234 57.4249C86.0873 62.2885 71.5361 68.8634 53.3091 72.5889C51.7274 72.9118 50.055 73.2214 48.1954 73.5324C47.1453 73.7134 46.151 72.969 45.9803 71.8797C45.8092 70.7891 46.5247 69.7629 47.5778 69.5871C49.3927 69.2827 51.0225 68.9819 52.5608 68.667C69.227 65.2617 82.9 59.296 89.1919 54.8939C88.8488 52.6832 88.3185 50.5077 87.6132 48.4102C87.5013 48.0812 87.4059 47.7975 87.3063 47.524C87.2144 47.2716 87.1165 47.0205 87.019 46.7695C86.8662 46.3766 86.7611 46.107 86.6457 45.8273C80.7675 31.7433 67.3912 22.6401 52.5689 22.6401C32.4946 22.6401 16.2106 38.8956 15.4964 59.6483C15.4768 60.1989 15.4619 60.6165 15.4619 61.038C15.4619 64.2702 15.8582 67.4918 16.6397 70.6319C22.2382 71.5362 30.0186 71.608 38.2523 70.8191C39.3117 70.7019 40.2554 71.5256 40.3541 72.6237C40.4529 73.7231 39.6714 74.6966 38.6094 74.7979C34.7079 75.1745 30.892 75.3595 27.334 75.3595Z" fill="#161616"/>
<path d="M52.569 103.435C38.8322 103.435 26.0777 96.3593 18.4497 84.5054C18.0342 83.8601 18.0172 83.0232 18.4071 82.3598C18.797 81.6965 19.5197 81.3278 20.268 81.4111C30.1166 82.529 42.6306 81.696 55.5013 79.0651C68.9556 76.3144 81.1976 71.9542 89.9727 66.787C90.6261 66.403 91.4356 66.4448 92.0486 66.8963C92.6615 67.3491 92.9646 68.1274 92.8258 68.8925C91.107 78.3833 86.2206 87.0737 79.0668 93.3637C78.2547 94.0768 77.0369 93.9755 76.3444 93.1346C75.6535 92.2929 75.7527 91.0318 76.5657 90.3165C81.968 85.5669 85.9427 79.3083 88.0173 72.3797C79.3324 76.8192 68.2392 80.5354 56.2492 82.9871C44.807 85.3242 33.5997 86.2791 24.1678 85.7471C31.1846 94.3895 41.5269 99.4382 52.5686 99.4382C58.3446 99.4382 63.8865 98.0952 69.0407 95.4449C69.9958 94.9529 71.1557 95.3563 71.6295 96.3465C72.1041 97.334 71.7142 98.5339 70.7594 99.0255C65.0673 101.951 58.9465 103.435 52.569 103.435Z" fill="#161616"/>
<path d="M89.528 20.067C85.7117 20.067 82.6074 16.8542 82.6074 12.9054C82.6074 8.95612 85.7121 5.74377 89.528 5.74377C93.3443 5.74377 96.4486 8.95656 96.4486 12.9054C96.4486 16.8542 93.3443 20.067 89.528 20.067ZM89.528 9.74059C87.842 9.74059 86.4702 11.1602 86.4702 12.9049C86.4702 14.6496 87.842 16.0693 89.528 16.0693C91.214 16.0693 92.5858 14.6496 92.5858 12.9049C92.5858 11.1602 91.214 9.74059 89.528 9.74059Z" fill="#161616"/>
<path d="M100.637 30.1744C97.9126 30.1744 95.6958 27.8804 95.6958 25.0618C95.6958 22.2428 97.9126 19.9489 100.637 19.9489C103.361 19.9489 105.578 22.2428 105.578 25.0618C105.578 27.8804 103.361 30.1744 100.637 30.1744ZM100.637 23.947C100.043 23.947 99.5581 24.4465 99.5581 25.0623C99.5581 25.6776 100.042 26.1775 100.637 26.1775C101.231 26.1775 101.715 25.678 101.715 25.0623C101.715 24.4465 101.231 23.947 100.637 23.947Z" fill="#161616"/>
<path d="M78.9888 14.9037C77.9217 14.9037 77.0576 14.0091 77.0576 12.9053C77.0576 5.78909 82.6519 0 89.5286 0C90.5957 0 91.4598 0.894595 91.4598 1.99885C91.4598 3.10311 90.5953 3.99726 89.5286 3.99726C84.7818 3.99726 80.9204 7.9932 80.9204 12.9053C80.9199 14.0091 80.0555 14.9037 78.9888 14.9037Z" fill="#161616"/>
<path d="M36.7379 107.561C36.5494 107.561 36.3574 107.533 36.1675 107.473C18.8633 101.943 13.4768 90.2399 13.2554 89.744C12.8089 88.7419 13.2325 87.5539 14.2004 87.0923C15.1691 86.6303 16.3116 87.0663 16.7606 88.0631C16.8113 88.175 21.7513 98.682 37.307 103.653C38.326 103.979 38.8976 105.098 38.5827 106.152C38.3264 107.011 37.5628 107.561 36.7379 107.561Z" fill="#161616"/>
<path d="M20.806 62.4243C20.7689 62.4243 20.7323 62.4229 20.6953 62.4216C19.6312 62.3591 18.8169 61.4169 18.8761 60.3162C18.9037 59.7955 19.638 47.5007 26.4568 40.1528C27.1975 39.3564 28.4191 39.3304 29.1878 40.0955C29.9574 40.8606 29.9816 42.1252 29.2431 42.9216C23.4258 49.1882 22.7388 60.4263 22.7324 60.5395C22.6728 61.6032 21.8216 62.4243 20.806 62.4243Z" fill="#161616"/>
<path d="M31.4247 38.9419C31.0084 38.9419 30.5891 38.8041 30.2358 38.5178C29.396 37.8372 29.2475 36.5801 29.9051 35.7111C30.2082 35.3103 32.9557 31.7645 36.0242 30.7157C37.0338 30.3748 38.129 30.9382 38.4636 31.9882C38.7981 33.0357 38.2482 34.1664 37.2352 34.5126C35.5641 35.0825 33.5282 37.4065 32.9468 38.1755C32.5658 38.679 31.9984 38.9419 31.4247 38.9419Z" fill="#161616"/>
</svg>
