<svg width="19" height="16" viewBox="0 0 19 16" fill="none" xmlns="http://www.w3.org/2000/svg">
<path opacity="0.8" d="M9.46211 0.256083L8.58862 2.85755C8.01947 4.5208 6.84492 5.4364 5.42365 5.80531L0.765279 6.65124C0.672717 6.67535 0.546442 6.74106 0.530481 6.96931C0.517047 7.16142 0.630421 7.28021 0.718726 7.31697L5.21556 8.80309C6.57153 9.36811 7.60736 10.4364 7.93948 12.1626L8.44242 14.8604C8.51431 15.2419 8.94002 15.2774 9.06879 14.9118L9.99572 12.295C10.566 10.6375 11.7385 9.72942 13.1538 9.35819L17.7617 8.50682C17.8542 8.48271 18.0211 8.4313 18.0379 8.19164C18.0556 7.93866 17.8965 7.87784 17.8082 7.84109L13.3636 6.3567C12.0123 5.79201 10.9776 4.72956 10.6451 3.009L10.0913 0.288614C10.0129 -0.0876781 9.58641 -0.111767 9.46211 0.256083Z" fill="#FFEB93"/>
</svg>