<svg width="136" height="100" viewBox="0 0 136 100" fill="none" xmlns="http://www.w3.org/2000/svg">
<path d="M64.6314 50.0009C64.6314 33.6686 79.6283 20.4185 98.2288 20.179L83.0267 20.0855L79.4804 6.91021L65.4953 12.6981L55.768 2.17383L46.0391 12.6981L32.0528 6.91021L28.5065 20.0855L13.0378 20.1804L16.3749 33.3979L2.48389 39.3592L12.0442 50.0013L2.48389 60.6415L16.3744 66.6024L13.0372 79.8184L28.506 79.9147L32.0522 93.0915L46.0385 87.3022L55.7674 97.8269L65.4947 87.3022L79.4799 93.0915L83.0261 79.9147L98.1724 79.8199C79.5992 79.5554 64.6314 66.3149 64.6314 50.0009Z" fill="#FF7D5F"/>
<path d="M38.0274 79.9149L22.5598 79.8186L25.8958 66.6026L12.0059 60.6417L21.5667 50.0011L12.0059 39.3594L25.8958 33.3986L22.5598 20.1811L38.0274 20.0862L40.6217 10.4559L32.0539 6.91089L28.506 20.0862L13.0378 20.1811L16.3738 33.3986L2.48389 39.3594L12.0447 50.0011L2.48389 60.6417L16.3738 66.6026L13.0378 79.8186L28.506 79.9149L32.0539 93.0917L40.6217 89.5453L38.0274 79.9149Z" fill="#FF9D8D"/>
<path d="M132.838 50.0009C132.838 66.4817 117.57 79.8453 98.7357 79.8453C79.8992 79.8453 64.6313 66.4817 64.6313 50.0009C64.6313 33.5187 79.8986 20.1565 98.7357 20.1565C117.57 20.157 132.838 33.5187 132.838 50.0009Z" fill="#FFC67B"/>
<path d="M74.7741 50.0009C74.7741 35.0315 87.3831 22.6715 103.809 20.5215C102.149 20.305 100.464 20.1565 98.7373 20.1565C79.9008 20.1565 64.6313 33.5187 64.6313 50.0009C64.6313 66.4817 79.9008 79.8453 98.7373 79.8453C100.464 79.8453 102.149 79.6968 103.809 79.4803C87.3831 77.3308 74.7741 64.9708 74.7741 50.0009Z" fill="#FFD39F"/>
<path d="M64.6312 50.0006C64.6312 41.245 68.9652 33.3967 75.8278 27.9369C70.3207 24.0964 63.3574 21.7869 55.7678 21.7869C37.9604 21.7869 23.5264 34.4185 23.5264 50.0011C23.5264 65.5822 37.9604 78.2153 55.7678 78.2153C63.3574 78.2153 70.3207 75.9043 75.8278 72.0652C68.9652 66.605 64.6312 58.7548 64.6312 50.0006Z" fill="#FFDA88"/>
<path d="M30.0692 50.0006C30.0692 35.4044 42.734 23.3998 58.9719 21.9382C57.9165 21.8463 56.8512 21.7869 55.7678 21.7869C37.9604 21.7869 23.5264 34.4185 23.5264 50.0011C23.5264 65.5822 37.9604 78.2153 55.7678 78.2153C56.8512 78.2153 57.917 78.1558 58.9719 78.0639C42.734 76.6013 30.0692 64.5953 30.0692 50.0006Z" fill="#FFE2A9"/>
<path d="M89.4683 35.1435C89.4683 37.3907 87.3853 39.2149 84.8157 39.2149C82.2461 39.2149 80.1631 37.3907 80.1631 35.1435C80.1631 32.8948 82.2461 31.072 84.8157 31.072C87.3859 31.072 89.4683 32.8943 89.4683 35.1435Z" fill="#FFDA88"/>
<path d="M83.4974 35.1435C83.4974 33.4098 84.7395 31.941 86.4826 31.3523C85.9641 31.1779 85.4058 31.072 84.8162 31.072C82.2465 31.072 80.1636 32.8948 80.1636 35.1435C80.1636 37.3907 82.2465 39.2149 84.8162 39.2149C85.4058 39.2149 85.9641 39.1086 86.4826 38.9332C84.739 38.3454 83.4974 36.8752 83.4974 35.1435Z" fill="#FFE2A9"/>
<path d="M120.557 45.3168C120.969 43.0972 119.246 41.0059 116.71 40.6456C114.173 40.2854 111.783 41.7927 111.372 44.0123C110.96 46.2319 112.683 48.3233 115.219 48.6835C117.755 49.0437 120.145 47.5364 120.557 45.3168Z" fill="#FFDA88"/>
<path d="M114.641 44.665C114.641 42.9313 115.884 41.4625 117.627 40.8737C117.108 40.6999 116.55 40.5935 115.96 40.5935C113.391 40.5935 111.308 42.4163 111.308 44.665C111.308 46.9122 113.391 48.7364 115.96 48.7364C116.55 48.7364 117.108 48.6301 117.627 48.4547C115.884 47.8674 114.641 46.3967 114.641 44.665Z" fill="#FFE2A9"/>
<path d="M98.7611 59.7286C98.7611 63.0969 95.6391 65.8308 91.7885 65.8308C87.9373 65.8308 84.8164 63.0969 84.8164 59.7286C84.8164 56.359 87.9373 53.6279 91.7885 53.6279C95.6391 53.6279 98.7611 56.359 98.7611 59.7286Z" fill="#FFDA88"/>
<path d="M88.3353 59.7286C88.3353 56.8941 90.554 54.5333 93.549 53.8473C92.983 53.7185 92.401 53.6279 91.7896 53.6279C87.9373 53.6279 84.8164 56.3595 84.8164 59.7286C84.8164 63.0969 87.9373 65.8308 91.7896 65.8308C92.401 65.8308 92.983 65.7403 93.549 65.61C90.554 64.9249 88.3353 62.5618 88.3353 59.7286Z" fill="#FFE2A9"/>
<path d="M125.897 67.9937C124.617 66.6821 122.738 65.8313 120.613 65.8313C116.762 65.8313 113.64 68.5624 113.64 71.932C113.64 73.5014 114.336 74.9179 115.45 75.9992C119.535 73.9823 123.079 71.247 125.897 67.9937Z" fill="#FFDA88"/>
<path d="M117.055 71.932C117.055 69.0807 119.302 66.7046 122.325 66.0363C121.776 65.9118 121.209 65.8313 120.614 65.8313C116.762 65.8313 113.641 68.5624 113.641 71.932C113.641 73.5014 114.337 74.9179 115.452 75.9992C116.278 75.5915 117.066 75.1345 117.847 74.6688C117.36 73.8439 117.055 72.9256 117.055 71.932Z" fill="#FFE2A9"/>
<path d="M32.5561 46.834C32.3853 46.834 32.2123 46.8182 32.0393 46.7861C30.7008 46.5385 29.8441 45.3935 30.1222 44.2218C30.2016 43.8907 32.1543 36.0448 40.8973 30.8979C42.0376 30.2316 43.5786 30.4931 44.3444 31.4895C45.1103 32.486 44.8076 33.8359 43.6695 34.5066C36.6591 38.6317 35.0009 45.0524 34.9845 45.1162C34.7321 46.1351 33.7013 46.834 32.5561 46.834Z" fill="#FF7D5F"/>
<path d="M98.7355 82.0194C78.5605 82.0194 62.1475 67.6555 62.1475 50.0015C62.1475 32.3475 78.5605 17.9836 98.7355 17.9836C102.456 17.9836 106.133 18.4732 109.665 19.44C110.974 19.7978 111.704 21.018 111.294 22.1629C110.884 23.3078 109.492 23.9459 108.182 23.5895C105.131 22.7545 101.953 22.3315 98.7355 22.3315C81.3004 22.3315 67.1154 34.7437 67.1154 50.002C67.1154 65.2602 81.3004 77.6725 98.7355 77.6725C116.169 77.6725 130.353 65.2602 130.353 50.002C130.353 41.4615 125.925 33.5269 118.204 28.231C117.124 27.4909 116.935 26.1237 117.781 25.1785C118.629 24.2348 120.19 24.0705 121.268 24.8092C130.199 30.9338 135.321 40.1168 135.321 50.002C135.321 67.6555 118.909 82.0194 98.7355 82.0194Z" fill="#161616"/>
<path d="M50.8654 80.0279C50.74 80.0279 50.6141 80.0192 50.486 80.0025C33.4248 77.7183 21.0425 65.1006 21.0425 50.0009C21.0425 33.2452 36.6207 19.6133 55.7676 19.6133C63.69 19.6133 71.1619 21.9046 77.3763 26.2376C77.9456 26.6338 78.2867 27.2297 78.3102 27.8664C78.3343 28.503 78.0376 29.1177 77.4995 29.5464C70.9007 34.7954 67.1158 42.2518 67.1158 50.0009C67.1158 57.7501 70.9007 65.207 77.4995 70.4555C78.0381 70.8842 78.3348 71.4983 78.3102 72.1355C78.2867 72.7721 77.9445 73.3681 77.3757 73.7643C73.3828 76.548 68.6251 78.5586 63.6161 79.5804C62.2858 79.852 60.9435 79.1248 60.6332 77.9559C60.3217 76.7871 61.1532 75.6196 62.4889 75.3466C65.8633 74.6586 69.103 73.4476 71.9956 71.8045C65.7051 65.8963 62.1479 58.0888 62.1479 50.0009C62.1479 41.9117 65.7067 34.1003 72.0011 28.1921C67.17 25.417 61.6114 23.9607 55.7681 23.9607C39.3595 23.9607 26.011 35.6428 26.011 50.0009C26.011 62.9382 36.6201 73.7489 51.2387 75.7058C52.5947 75.8869 53.5253 76.9964 53.3184 78.1825C53.1295 79.258 52.0714 80.0279 50.8654 80.0279Z" fill="#161616"/>
<path d="M55.7679 100C55.0185 100 54.3085 99.7044 53.8372 99.1933L45.3356 89.9974L33.1153 95.0552C32.437 95.3383 31.6504 95.334 30.9748 95.0495C30.2988 94.7649 29.8066 94.2274 29.6353 93.5889L26.5363 82.0753L13.0202 81.992C12.2708 81.9877 11.563 81.6864 11.096 81.1742C10.6285 80.6607 10.4506 79.9895 10.6126 79.35L13.5283 67.8025L1.39064 62.5933C0.717852 62.3044 0.229543 61.7655 0.0631247 61.126C-0.103294 60.4864 0.0686002 59.8143 0.532273 59.2989L8.8855 50.0014L0.531179 40.7021C0.0680534 40.1871 -0.104388 39.515 0.0620304 38.875C0.228449 38.2355 0.717306 37.696 1.38955 37.4077L13.5272 32.1985L10.6116 20.6495C10.4495 20.01 10.6274 19.3388 11.0949 18.8253C11.5624 18.3132 12.2697 18.0114 13.0191 18.007L26.5363 17.9237L29.6347 6.41258C29.8061 5.77448 30.2988 5.23651 30.9743 4.95195C31.6493 4.66883 32.4354 4.66596 33.1136 4.94476L45.3345 10.0026L53.8361 0.806721C54.3074 0.296053 55.0174 0 55.7668 0C56.5174 0 57.2263 0.297011 57.6987 0.806721L66.1976 10.0026L78.4178 4.94476C79.0945 4.66596 79.8822 4.66883 80.5572 4.95195C81.2333 5.23651 81.7254 5.77257 81.8968 6.41258L84.9952 17.9251L98.2452 18.0056C99.6061 18.0142 100.706 18.9795 100.711 20.1709C100.716 21.3623 99.6253 22.3348 98.2638 22.353C81.0882 22.5738 67.114 34.976 67.114 50.001C67.114 65.0001 81.0641 77.4027 98.2118 77.646C99.5716 77.6657 100.662 78.6396 100.656 79.8295C100.649 81.0195 99.5503 81.9848 98.1894 81.9934L84.9958 82.0753L81.8968 93.5889C81.7254 94.2284 81.2327 94.7649 80.5572 95.0495C79.8822 95.334 79.095 95.3383 78.4167 95.0552L66.1976 89.9974L57.6987 99.1933C57.2274 99.703 56.5185 100 55.7679 100ZM46.0379 85.1283C46.7698 85.1283 47.4859 85.4114 47.9698 85.9351L55.7679 94.3707L63.5633 85.9351C64.2859 85.1537 65.5198 84.9075 66.5572 85.3377L77.7664 89.9768L80.6087 79.4171C80.7428 78.916 81.0696 78.4901 81.5103 78.1931C70.0121 72.7688 62.1471 62.1166 62.1471 50.0019C62.1471 37.8781 70.0088 27.2293 81.5075 21.8078C81.0685 21.5108 80.7428 21.085 80.6081 20.5853L77.7659 10.0256L66.5556 14.6657C65.522 15.0915 64.2832 14.8468 63.5622 14.0669L55.7668 5.63124L47.9687 14.0669C47.2488 14.8468 46.0133 15.0915 44.9759 14.6657L33.7656 10.0256L30.9228 20.5853C30.6601 21.5616 29.6687 22.2538 28.5229 22.261L16.1242 22.3377L18.7989 32.9314C19.0458 33.9106 18.4956 34.9099 17.467 35.3511L6.33284 40.1287L13.9958 48.6591C14.7041 49.4477 14.7041 50.5571 13.9958 51.3452L6.33284 59.8742L17.467 64.6518C18.4956 65.0935 19.0452 66.0937 18.7989 67.0715L16.1242 77.6652L28.5229 77.7418C29.6687 77.749 30.6601 78.4408 30.9228 79.4176L33.7656 89.9787L44.9748 85.3386C45.317 85.1964 45.6794 85.1283 46.0379 85.1283Z" fill="#161616"/>
<path d="M84.816 41.3885C80.8805 41.3885 77.6797 38.5865 77.6797 35.1436C77.6797 31.7006 80.8811 28.8987 84.816 28.8987C88.7515 28.8987 91.9523 31.7006 91.9523 35.1436C91.9523 38.5865 88.7509 41.3885 84.816 41.3885ZM84.816 33.2456C83.6198 33.2456 82.6471 34.0973 82.6471 35.1436C82.6471 36.1894 83.6198 37.0411 84.816 37.0411C86.0121 37.0411 86.9843 36.1894 86.9843 35.1436C86.9843 34.0973 86.0116 33.2456 84.816 33.2456Z" fill="#161616"/>
<path d="M115.96 50.9097C112.025 50.9097 108.824 48.1078 108.824 44.6648C108.824 41.2219 112.025 38.4199 115.96 38.4199C119.896 38.4199 123.096 41.2219 123.096 44.6648C123.096 48.1078 119.896 50.9097 115.96 50.9097ZM115.96 42.7668C114.764 42.7668 113.792 43.6186 113.792 44.6643C113.792 45.7101 114.764 46.5619 115.96 46.5619C117.156 46.5619 118.128 45.7101 118.128 44.6643C118.128 43.6186 117.156 42.7668 115.96 42.7668Z" fill="#161616"/>
<path d="M91.7878 68.0046C86.5736 68.0046 82.3315 64.2924 82.3315 59.729C82.3315 55.1665 86.5736 51.4543 91.7878 51.4543C97.0027 51.4543 101.244 55.1665 101.244 59.729C101.244 64.2929 97.0027 68.0046 91.7878 68.0046ZM91.7878 55.8017C89.3129 55.8017 87.2995 57.5637 87.2995 59.729C87.2995 61.8957 89.3129 63.6577 91.7878 63.6577C94.2628 63.6577 96.2762 61.8957 96.2762 59.729C96.2762 57.5637 94.2628 55.8017 91.7878 55.8017Z" fill="#161616"/>
<path d="M115.45 78.1727C114.764 78.1727 114.089 77.925 113.604 77.4537C112.025 75.9212 111.156 73.9595 111.156 71.9316C111.156 67.3692 115.398 63.657 120.612 63.657C123.358 63.657 125.973 64.7224 127.786 66.5821C128.543 67.3591 128.58 68.4925 127.875 69.3064C124.809 72.8457 121.04 75.7339 116.669 77.892C116.287 78.0803 115.867 78.1727 115.45 78.1727ZM120.613 68.0044C118.138 68.0044 116.124 69.7663 116.124 71.9316C116.124 72.3206 116.189 72.6746 116.295 72.9932C118.539 71.6773 120.573 70.116 122.376 68.3287C121.827 68.1165 121.231 68.0044 120.613 68.0044Z" fill="#161616"/>
<path d="M32.5561 46.834C32.3853 46.834 32.2123 46.8182 32.0393 46.7861C30.7008 46.5385 29.8441 45.3935 30.1222 44.2218C30.2016 43.8907 32.1543 36.0448 40.8973 30.8979C42.0376 30.2316 43.5786 30.4931 44.3444 31.4895C45.1103 32.486 44.8076 33.8359 43.6695 34.5066C36.6591 38.6317 35.0009 45.0524 34.9845 45.1162C34.7321 46.1351 33.7013 46.834 32.5561 46.834Z" fill="#161616"/>
</svg>
